<svg xmlns="http://www.w3.org/2000/svg" width="1242" height="846" viewBox="0 0 1242 846" version="1.1">
	<path d="M 248 149.201 C 150.140 149.909, 92.440 151.017, 88.500 152.264 C 87.400 152.612, 76.693 153.120, 64.706 153.392 C 43.461 153.874, 42.864 153.945, 40.985 156.193 C 39.106 158.442, 39.057 161.467, 39.044 277.287 C 39.035 355.733, 38.686 396.719, 38.015 397.971 C 37.389 399.142, 37 412.160, 37 431.974 C 37 463.355, 36.949 464.175, 34.750 468.290 C 32.533 472.438, 32.490 473.225, 31.840 521.500 C 31.477 548.450, 30.684 574.550, 30.078 579.500 C 28.939 588.793, 27.673 608.884, 26.200 641 C 25.432 657.754, 24.787 662.505, 23.073 664 C 21.702 665.197, 19.198 674.043, 19.694 675.939 C 20.227 677.974, 23.774 679.575, 26.062 678.813 C 27.308 678.397, 29.961 671.587, 29.985 668.740 C 29.993 667.772, 30.900 666.210, 32 665.268 C 33.860 663.675, 34 662.318, 34 645.843 C 34 634.484, 34.424 627.120, 35.181 625.315 C 35.830 623.767, 36.713 615.075, 37.143 606 C 37.573 596.925, 38.434 585.450, 39.056 580.500 C 39.689 575.460, 40.378 550.179, 40.621 523.048 C 41.017 478.978, 41.212 474.423, 42.778 472.695 C 44.301 471.014, 44.589 466.898, 45.272 437.147 C 45.696 418.641, 46.371 349.275, 46.772 283 L 47.500 162.500 67.463 162.311 C 78.442 162.207, 88.342 161.786, 89.463 161.376 C 93.529 159.888, 151.542 158.907, 247.333 158.706 L 345.166 158.500 345.051 177.500 C 344.943 195.418, 345.080 196.912, 347.468 203.731 L 350 210.962 350 361.994 L 350 513.025 347.759 520.263 C 345.561 527.362, 345.507 528.774, 344.925 594.500 C 344.552 636.561, 343.919 663.712, 343.226 667.443 C 342.618 670.711, 342.345 673.749, 342.619 674.193 C 342.894 674.637, 344.351 675, 345.859 675 C 347.367 675, 349.089 675.489, 349.687 676.087 C 351.630 678.030, 370.004 675.904, 376.500 672.985 C 380.151 671.344, 382.454 671.532, 387.242 673.862 C 389.849 675.132, 394.349 676.567, 397.242 677.052 C 407.643 678.798, 408.942 679.258, 412.820 682.578 C 414.984 684.430, 417.760 688.095, 418.990 690.723 C 421.175 695.390, 441.558 717, 443.777 717 C 445.262 717, 468.423 740.162, 471.418 744.643 C 477.593 753.882, 479.014 755.715, 482.895 759.453 C 485.153 761.627, 487 763.920, 487 764.548 C 487 765.176, 487.859 766.467, 488.909 767.417 C 489.958 768.367, 491.372 770.483, 492.049 772.119 C 493.372 775.311, 496.034 777.024, 503.672 779.597 C 506.327 780.492, 510.889 783.256, 513.809 785.740 C 518.989 790.146, 519.304 790.262, 526.759 790.527 C 530.961 790.676, 535.417 790.412, 536.660 789.939 L 538.921 789.079 538.979 561.052 C 539.030 359.567, 538.860 332.602, 537.522 329.399 C 536.510 326.976, 519.324 309.078, 485.658 275.387 C 457.966 247.674, 434.902 224.994, 434.404 224.988 C 433.907 224.981, 431.568 223.181, 429.207 220.988 C 426.845 218.794, 424.510 217, 424.017 217 C 423.174 217, 416.366 211.705, 411.154 206.997 C 409.864 205.831, 407.839 204.498, 406.654 204.035 C 405.469 203.571, 400 198.424, 394.500 192.597 C 367.045 163.508, 361.207 157.596, 357.750 155.380 C 355.066 153.659, 354 152.268, 354 150.487 C 354 148.298, 353.610 148.029, 350.750 148.240 C 348.962 148.373, 302.725 148.805, 248 149.201 M 354.667 165.667 C 354.300 166.033, 354 173.163, 354 181.510 C 354 194.185, 354.336 197.661, 356.039 202.593 C 358.056 208.439, 358.077 210.083, 358.042 361 C 358.009 499.293, 357.850 514.292, 356.336 522 C 354.936 529.130, 354.549 540.975, 353.937 595.500 C 353.535 631.250, 353.048 662.300, 352.853 664.500 L 352.500 668.500 357 668.374 C 363.616 668.189, 370.290 666.910, 372 665.499 C 373.675 664.117, 377.491 663.069, 383.553 662.326 C 387.102 661.892, 388.035 662.237, 391.053 665.099 C 393.371 667.297, 395.975 668.619, 399 669.132 C 412.952 671.498, 414.612 672.089, 418.833 676.186 C 421.125 678.410, 423 680.594, 423 681.038 C 423 681.483, 424.057 683.119, 425.348 684.673 C 426.639 686.228, 427.979 688.663, 428.325 690.085 C 429.159 693.507, 437.699 701.939, 447 708.525 C 454.425 713.783, 460.871 719.848, 462.672 723.272 C 463.185 724.247, 466.995 728.522, 471.138 732.772 C 475.282 737.022, 480.299 742.990, 482.289 746.033 C 484.278 749.076, 487.784 753.576, 490.080 756.033 C 492.376 758.490, 495.682 762.503, 497.426 764.951 C 499.849 768.352, 501.766 769.800, 505.549 771.086 C 508.272 772.013, 512.695 774.710, 515.377 777.080 C 519.586 780.800, 520.886 781.398, 524.877 781.445 L 529.500 781.500 529.752 558.052 C 529.920 409.755, 529.667 334.267, 529.002 333.602 C 528.451 333.051, 528 331.648, 528 330.485 C 528 329.028, 513.881 314.260, 482.666 283.068 C 457.733 258.152, 436.471 237.301, 435.416 236.734 C 434.362 236.166, 431.197 233.631, 428.382 231.101 C 423.557 226.763, 420.703 224.515, 415.559 221 C 406.264 214.648, 401.621 210.613, 387.760 196.840 C 379.092 188.226, 372 180.670, 372 180.047 C 372 178.481, 363.179 169.326, 359.382 166.950 C 355.927 164.789, 355.626 164.707, 354.667 165.667 M 187.500 259.213 C 184.750 259.728, 180.925 260.377, 179 260.655 C 176.447 261.023, 174.215 262.522, 170.750 266.193 C 168.137 268.962, 166 271.838, 166 272.585 C 166 273.332, 164.875 276.487, 163.500 279.596 C 161.632 283.819, 161 286.969, 161 292.053 C 161 296.905, 160.549 299.308, 159.429 300.429 C 157.031 302.826, 154.945 302.315, 153.704 299.027 C 153.087 297.391, 151.926 295.802, 151.125 295.494 C 148.982 294.672, 135.875 301.214, 131.197 305.441 C 127.021 309.214, 122.956 318.486, 123.786 322.346 C 124.195 324.244, 133.522 329, 136.837 329 C 137.817 329, 139.371 329.563, 140.291 330.250 C 141.802 331.378, 141.824 331.889, 140.526 335.500 C 139.477 338.418, 139.076 344.540, 139.044 358.134 L 139 376.767 143 380.381 C 145.932 383.030, 147 384.776, 147 386.921 C 147 389.768, 150.499 395.029, 154.240 397.807 C 155.208 398.525, 156 399.687, 156 400.387 C 156 402.433, 163.092 409.712, 168.256 412.966 C 170.871 414.614, 175.297 416.711, 178.091 417.624 C 180.953 418.561, 183.460 420.065, 183.835 421.070 C 184.201 422.051, 184.275 426.371, 184 430.669 C 183.536 437.917, 183.308 438.575, 180.847 439.749 C 179.388 440.446, 176.688 442.855, 174.847 445.103 C 173.006 447.351, 169.881 451.059, 167.903 453.345 C 163.040 458.962, 157.507 467.843, 156.590 471.503 C 156.177 473.151, 152.991 477.452, 149.510 481.060 C 145.302 485.420, 142.817 488.941, 142.099 491.560 C 141.505 493.727, 140.118 496.850, 139.016 498.500 C 137.915 500.150, 137.010 502.358, 137.007 503.406 C 137.003 504.454, 134.350 510.529, 131.111 516.906 C 124.960 529.015, 123.498 534.660, 123.856 544.925 C 124.077 551.255, 125.337 553.216, 128.914 552.801 C 131.411 552.510, 131.522 552.207, 132.133 544 C 132.847 534.407, 134.230 529.373, 138.726 520 C 142.969 511.153, 147.888 500.294, 149.731 495.702 C 150.569 493.614, 153.826 489.334, 156.968 486.192 C 161.218 481.942, 163.137 479.076, 164.466 474.990 C 165.448 471.971, 167.320 468.068, 168.626 466.317 C 169.932 464.566, 171 462.741, 171 462.262 C 171 461.783, 172.533 459.718, 174.406 457.673 C 177.419 454.383, 177.983 454.126, 179.297 455.440 C 180.474 456.617, 180.674 458.755, 180.260 465.713 C 179.973 470.546, 179.347 475.258, 178.869 476.184 C 178.391 477.111, 177.998 503.211, 177.996 534.184 C 177.993 588.701, 177.929 590.605, 175.996 593.774 C 174.426 596.349, 174 598.814, 174 605.314 C 174 609.860, 173.325 616.171, 172.500 619.339 C 171.675 622.506, 171 626.503, 171 628.220 C 171 629.937, 170.253 632.168, 169.341 633.176 C 166.699 636.096, 165.806 643.102, 165.313 664.808 C 164.831 685.995, 165.154 688, 169.051 688 C 173.301 688, 173.720 686.090, 173.556 667.464 C 173.443 654.647, 173.758 649.093, 174.700 647.277 C 175.415 645.899, 176 642.868, 176 640.541 C 176 637.580, 176.600 635.767, 178 634.500 C 179.398 633.235, 180 631.420, 180 628.471 C 180 626.150, 180.650 622.409, 181.444 620.157 C 182.456 617.291, 182.711 613.939, 182.295 608.979 C 181.768 602.696, 181.952 601.557, 183.917 598.898 C 186.023 596.050, 186.135 594.938, 186.159 576.610 C 186.173 566, 186.544 556.738, 186.983 556.027 C 187.583 555.057, 188.354 555.392, 190.071 557.367 C 191.331 558.815, 192.932 560, 193.629 560 C 195.469 560, 200 566.311, 200 568.873 C 200 571.275, 205.727 583.301, 207.125 583.833 C 207.606 584.017, 208 585.003, 208 586.024 C 208 587.046, 208.450 588.160, 209 588.500 C 209.550 588.840, 210 590.013, 210 591.107 C 210 592.201, 211.026 594.087, 212.280 595.298 C 216.728 599.596, 217 601.616, 217 630.422 C 217 645.452, 217.281 659.156, 217.625 660.875 C 218.177 663.634, 218.645 664, 221.625 664 L 225 664 225.246 640.250 C 225.666 599.797, 225.809 602.231, 222.600 595.250 C 221.020 591.813, 219.374 589, 218.944 589 C 218.513 589, 217.450 586.862, 216.581 584.250 C 215.712 581.638, 213.933 578.260, 212.629 576.744 C 210.475 574.241, 209.240 570.836, 207.505 562.622 C 207.171 561.039, 205.523 558.499, 203.843 556.978 C 199.342 552.902, 198.501 552.071, 192.228 545.500 L 186.500 539.500 186.141 513.142 C 185.808 488.654, 186.028 484.939, 188.595 471.852 C 188.881 470.395, 189.920 468.993, 190.905 468.735 C 191.942 468.464, 192.961 466.947, 193.323 465.133 C 193.856 462.469, 194.393 462, 196.910 462 C 201.568 462, 214.246 464.920, 215.953 466.386 C 217.763 467.940, 221.739 469.085, 241.906 473.862 C 255.204 477.012, 259.572 480.193, 257.055 484.896 C 256.475 485.981, 256 487.997, 256 489.375 C 256 490.754, 255.550 492.160, 255 492.500 C 253.326 493.535, 253.781 504.638, 255.571 506.429 C 257.676 508.534, 277.957 508.649, 284.215 506.591 C 286.572 505.816, 289.850 504.883, 291.500 504.518 C 293.150 504.152, 296.016 502.861, 297.870 501.648 C 300.729 499.777, 301.589 498.233, 303.542 491.471 C 306.630 480.777, 305.682 476.395, 298.427 467.823 C 294.139 462.757, 292.325 461.401, 288.349 460.289 C 278.451 457.523, 275.699 457.541, 272.310 460.393 C 270.606 461.827, 268.269 463, 267.118 463 C 265.764 463, 264.134 464.412, 262.500 467 C 259.557 471.662, 257.975 471.915, 250 469 C 246.991 467.900, 243.786 467, 242.879 467 C 240.334 467, 221.368 461.318, 219.500 459.996 C 217.331 458.461, 208.058 456.641, 199.579 456.085 C 190.889 455.515, 190.634 455.427, 189.722 452.679 C 188.960 450.381, 189.171 449.447, 190.859 447.650 C 192.679 445.713, 192.967 443.979, 193.216 433.471 L 193.500 421.500 204.500 420.948 C 216.033 420.369, 221.621 418.887, 223.807 415.829 C 224.525 414.823, 225.534 414, 226.048 414 C 227.204 414, 233 408.027, 233 406.836 C 233 406.358, 234.543 405.232, 236.430 404.332 C 238.405 403.390, 241.192 400.640, 243.001 397.848 C 244.729 395.182, 246.898 392.980, 247.821 392.956 C 262.773 392.566, 264 392.005, 264 385.565 C 264 382.279, 263.395 380.794, 261.195 378.687 C 259.653 377.209, 257.658 376, 256.763 376 C 254.494 376, 253.568 372.342, 255.167 369.701 C 256.215 367.971, 256.393 362.681, 256 345 C 255.508 322.882, 255.852 319, 258.299 319 C 258.975 319, 262.559 316.264, 266.264 312.920 C 272.310 307.464, 273 306.455, 273 303.075 C 273 300.720, 272.326 298.700, 271.200 297.681 C 268.497 295.234, 261.330 293.002, 256.124 292.985 C 249.374 292.962, 248.502 292.127, 250.426 287.523 C 252.182 283.319, 252.496 275.435, 251.057 271.651 C 250.026 268.937, 250.051 268.948, 238.500 266.487 C 230.527 264.788, 226.116 263.698, 212.123 259.967 C 204.376 257.901, 195.884 257.641, 187.500 259.213 M 195 265 C 194.175 265.533, 190.677 265.976, 187.228 265.985 C 181.291 265.999, 180.719 266.218, 176.542 270.068 C 173.806 272.590, 171.890 275.345, 171.501 277.318 C 171.155 279.068, 169.972 282.804, 168.872 285.621 C 167.659 288.729, 166.996 292.427, 167.186 295.029 L 167.500 299.317 175.999 299.517 C 180.673 299.627, 185.848 299.302, 187.499 298.795 C 189.150 298.287, 194.325 297.470, 199 296.979 C 213.027 295.506, 221.720 294.291, 222.736 293.663 C 223.264 293.337, 226.577 293.015, 230.098 292.947 C 233.619 292.879, 237.305 292.603, 238.289 292.332 C 240.097 291.835, 246 280.650, 246 277.721 C 246 276.848, 244.988 275.851, 243.750 275.505 C 242.512 275.158, 240.600 274.497, 239.500 274.036 C 238.400 273.574, 233.900 272.431, 229.500 271.495 C 221.411 269.775, 214.155 267.878, 206.072 265.373 C 200.898 263.769, 197.103 263.641, 195 265 M 225 300.201 C 220.796 301.398, 201.848 303.673, 186 304.884 C 179.675 305.367, 173.127 306.208, 171.449 306.754 C 169.770 307.300, 161.709 307.734, 153.534 307.719 L 138.671 307.691 135.336 311.331 C 131.360 315.669, 131.113 318.373, 134.491 320.586 C 140.026 324.213, 164.384 325.511, 182 323.119 C 190.509 321.963, 197.660 321.418, 229.500 319.498 C 234.450 319.199, 240.300 318.456, 242.500 317.845 C 249.685 315.852, 258.422 311.088, 262.373 307.010 L 266.247 303.013 261.873 301.028 C 254.719 297.782, 244.490 298.582, 242.998 302.504 C 242.117 304.822, 238.980 306.224, 237.173 305.107 C 236.597 304.751, 235.658 303.231, 235.087 301.730 C 233.944 298.724, 231.494 298.352, 225 300.201 M 226.586 325.750 C 226.175 326.163, 219.012 326.810, 210.669 327.188 C 193.023 327.988, 178.886 329.415, 174.190 330.869 C 172.370 331.433, 166.849 331.857, 161.921 331.810 C 148.358 331.682, 148.150 332.051, 147.341 357.639 L 146.862 372.778 151.335 377.815 C 153.796 380.585, 156.101 384.185, 156.459 385.815 C 156.817 387.445, 158.661 390.190, 160.555 391.914 C 162.450 393.638, 164 395.734, 164 396.572 C 164 399.583, 173.802 407.024, 182 410.235 C 185.529 411.618, 189.491 411.999, 200.356 411.999 C 213.945 412, 214.250 411.952, 216.179 409.500 C 217.260 408.125, 218.781 407, 219.558 407 C 220.336 407, 222.111 405.278, 223.503 403.174 C 224.896 401.070, 227.715 398.403, 229.768 397.247 C 237.846 392.697, 241.344 386.001, 235.643 385.999 C 234.464 385.999, 230.796 384.719, 227.492 383.156 C 224.188 381.593, 216.951 379.118, 211.411 377.657 C 202.731 375.368, 199.336 375, 186.869 375 C 171.725 375, 170.004 374.546, 169.996 370.550 C 169.994 369.423, 169.094 367.027, 167.996 365.226 C 165.421 361.001, 165.475 359.301, 168.215 358.432 C 170.007 357.863, 171.126 358.536, 174.067 361.951 L 177.704 366.174 204.362 366.050 L 231.020 365.927 235.348 368.464 C 240.696 371.598, 243.512 371.674, 245.437 368.736 C 246.609 366.948, 246.937 362.482, 247 347.486 C 247.044 337.044, 247.062 327.712, 247.040 326.750 C 247.005 325.205, 245.850 325, 237.167 325 C 231.758 325, 226.997 325.337, 226.586 325.750 M 293 335 C 290.525 336.039, 287.557 336.913, 286.405 336.944 C 285.253 336.975, 281.540 338.790, 278.155 340.978 C 272.083 344.903, 272 345.018, 272 349.559 C 272 353.914, 271.653 354.495, 265.564 360.331 C 258.447 367.152, 257.433 369.489, 260.650 371.660 C 262.670 373.024, 263.139 372.775, 268.400 367.556 C 271.480 364.500, 274.433 362, 274.961 362 C 277.332 362, 280 357.491, 280 353.486 C 280 348.030, 282.577 345.674, 291.525 342.951 C 300.043 340.359, 302.701 338.178, 301.065 335.122 C 299.699 332.569, 298.824 332.556, 293 335 M 173.200 335.200 C 170.688 337.712, 172.558 342, 176.165 342 C 177.135 342, 178.431 341.063, 179.045 339.917 C 179.934 338.255, 179.809 337.446, 178.425 335.917 C 176.426 333.708, 174.901 333.499, 173.200 335.200 M 223.200 335.200 C 220.397 338.003, 223.124 342.730, 226.860 341.545 C 229.636 340.663, 230.335 338.028, 228.369 335.855 C 226.423 333.705, 224.889 333.511, 223.200 335.200 M 250.226 384.179 C 250.737 385.712, 255.879 385.986, 256.250 384.500 C 256.387 383.950, 254.989 383.355, 253.143 383.179 C 250.708 382.946, 249.907 383.220, 250.226 384.179 M 717.221 385.751 C 714.695 386.044, 713.375 387.030, 711.471 390.046 C 710.112 392.199, 709 395.108, 709 396.512 C 709 397.915, 708.358 399.309, 707.573 399.610 C 706.788 399.912, 705.184 402.205, 704.007 404.708 C 702.121 408.720, 701.938 410.394, 702.451 418.879 C 702.771 424.170, 703.384 436.375, 703.814 446 C 704.280 456.429, 705.142 464.914, 705.948 467 C 706.691 468.925, 707.614 471.400, 708 472.500 C 708.386 473.600, 709.293 476.075, 710.018 478 C 710.742 479.925, 711.503 485.770, 711.710 490.990 C 711.992 498.115, 712.573 501.306, 714.043 503.797 C 715.213 505.780, 716 508.944, 716 511.663 C 716 515.056, 716.635 516.966, 718.500 519.182 C 720.762 521.870, 721.003 523.028, 721.035 531.327 C 721.059 537.387, 721.556 541.348, 722.500 543 C 723.286 544.375, 723.945 547.586, 723.965 550.135 C 723.993 553.881, 724.453 555.067, 726.361 556.317 C 727.660 557.168, 728.999 559.245, 729.337 560.933 C 729.674 562.621, 731.284 565.464, 732.915 567.251 C 739.433 574.395, 741 576.333, 741 577.252 C 741 577.779, 742.125 579.548, 743.500 581.182 C 745.813 583.931, 746 584.925, 746 594.462 C 746 604.354, 745.899 604.836, 743.500 606.408 C 742.125 607.309, 741 608.974, 741 610.109 C 741 612.620, 731.180 632, 729.907 632 C 728.641 632, 728.732 664.716, 730 665.500 C 730.550 665.840, 731 669.319, 731 673.230 C 731 681.358, 732.779 684.724, 736.126 682.933 C 737.774 682.051, 738 680.673, 738 671.524 C 738 665.665, 737.563 660.848, 737 660.500 C 736.431 660.148, 736 655.121, 736 648.835 C 736 638.511, 736.164 637.594, 738.500 634.818 C 739.875 633.184, 741 631.261, 741 630.544 C 741 629.828, 742.575 626.627, 744.500 623.430 C 746.425 620.233, 748 616.651, 748 615.469 C 748 614.148, 748.963 612.882, 750.500 612.182 C 752.972 611.056, 753 610.903, 753 598.580 C 753 586.206, 753.637 583.652, 756.009 586.511 C 756.689 587.330, 757.672 588, 758.193 588 C 758.715 588, 761.276 589.800, 763.885 592 C 766.494 594.200, 769.100 596, 769.675 596 C 770.251 596, 771.797 598.138, 773.111 600.750 C 774.425 603.362, 775.837 605.650, 776.250 605.833 C 776.663 606.017, 777 606.804, 777 607.583 C 777 608.362, 777.931 609.931, 779.069 611.069 C 780.994 612.994, 781.307 613.029, 783.534 611.569 C 784.852 610.706, 786.170 610, 786.465 610 C 787.352 610, 787.066 624.894, 786.143 626.764 C 785.671 627.719, 784.546 629.919, 783.643 631.654 C 782.739 633.389, 782 636.652, 782 638.904 C 782 641.667, 781.349 643.651, 780 645 C 778.900 646.100, 778 647.796, 778 648.768 C 778 649.740, 776.875 652.191, 775.500 654.215 C 773.177 657.634, 773 658.742, 773 669.888 C 773 676.805, 773.423 682.144, 774 682.500 C 775.328 683.321, 775.280 690.608, 773.931 693.130 C 772.475 695.849, 774.368 698, 778.216 698 C 780.346 698, 781.335 697.434, 781.710 696 C 782.254 693.920, 785.423 693.258, 786.500 695 C 787.366 696.401, 794.349 696.251, 795.800 694.800 C 796.673 693.927, 797 686.388, 797 667.144 L 797 640.689 799.500 637.411 C 800.875 635.608, 802 633.709, 802 633.189 C 802 632.670, 802.710 631.656, 803.578 630.935 C 804.446 630.215, 806.237 627.493, 807.557 624.887 C 808.878 622.280, 810.868 619.859, 811.979 619.507 C 814.208 618.799, 814.873 613.657, 812.893 612.434 C 809.911 610.591, 816.614 610.029, 841.781 610.015 C 866.102 610.002, 869.131 610.177, 869.689 611.632 C 870.034 612.530, 869.795 614.099, 869.158 615.119 C 868.473 616.216, 868 621.242, 868 627.427 C 868 633.318, 867.563 638.152, 867 638.500 C 866.450 638.840, 865.997 640.554, 865.994 642.309 C 865.990 644.064, 865.315 646.789, 864.494 648.364 C 863.672 649.940, 863 653.636, 863 656.579 C 863 660.973, 863.371 662.128, 865.078 663.042 C 868.328 664.781, 869.996 663.515, 870.032 659.281 C 870.049 657.202, 870.724 654.626, 871.532 653.559 C 872.339 652.491, 873 649.930, 873 647.868 C 873 645.805, 873.450 643.840, 874 643.500 C 874.564 643.151, 875 638.301, 875 632.375 C 875 626.172, 875.485 620.974, 876.185 619.684 C 876.837 618.483, 877.632 615.925, 877.952 614 C 878.516 610.607, 878.671 610.500, 883.017 610.500 L 887.500 610.500 887.500 632 L 887.500 653.500 882.012 653.811 C 876.985 654.095, 873 655.984, 873 658.084 C 873 660.291, 876.496 662, 881.012 662 C 883.691 662, 886.160 662.450, 886.500 663 C 887.359 664.390, 892.346 664.254, 893.800 662.800 C 894.669 661.931, 895 654.763, 895 636.835 C 895 613.374, 895.102 612.016, 896.934 611.035 C 899 609.929, 940.646 609.543, 943.411 610.604 C 945.321 611.337, 944.760 614.291, 941.353 621.437 C 939.667 624.974, 939 628.130, 939 632.565 C 939 635.970, 938.325 640.371, 937.500 642.346 C 935.739 646.561, 935.400 666.011, 937.035 669.066 C 937.952 670.779, 939.207 671, 948.035 671 C 959.353 671, 960.133 670.280, 955.549 664.066 C 953.104 660.753, 953.098 660.681, 953.130 636.551 C 953.147 623.244, 953.474 611.851, 953.857 611.232 C 954.239 610.613, 957.461 609.970, 961.016 609.804 C 966.230 609.559, 967.544 609.162, 967.813 607.752 C 968.160 605.931, 965.887 603, 964.129 603 C 963.571 603, 961.481 602.037, 959.486 600.859 C 957.490 599.682, 954.427 598.426, 952.679 598.068 C 950.930 597.711, 949.633 596.986, 949.796 596.459 C 950.134 595.366, 954.520 595.654, 957.500 596.965 C 958.600 597.449, 960.708 598.105, 962.183 598.425 C 963.659 598.744, 965.152 599.904, 965.501 601.002 C 965.872 602.171, 967.014 603, 968.253 603 C 969.418 603, 971.300 603.843, 972.436 604.874 C 973.571 605.905, 976.750 607.974, 979.500 609.473 C 982.250 610.972, 985.210 612.829, 986.079 613.599 C 986.947 614.370, 988.522 615.009, 989.579 615.019 C 990.635 615.030, 993.300 616.627, 995.500 618.570 C 997.700 620.512, 1000.672 622.347, 1002.105 622.647 C 1003.538 622.947, 1006.238 624.515, 1008.105 626.131 C 1009.972 627.748, 1012.593 629.617, 1013.928 630.285 C 1015.263 630.953, 1017.760 633.502, 1019.477 635.950 C 1021.257 638.488, 1024.661 641.534, 1027.400 643.042 C 1030.041 644.495, 1033.314 647.106, 1034.674 648.842 C 1036.087 650.648, 1038.077 652.005, 1039.322 652.012 C 1040.520 652.019, 1043.425 653.125, 1045.778 654.470 C 1048.131 655.815, 1050.722 656.660, 1051.537 656.348 C 1053.571 655.567, 1054.489 651.294, 1053.006 649.508 C 1051.436 647.615, 1046.188 645, 1043.961 645 C 1043.009 645, 1041.552 643.965, 1040.724 642.701 C 1039.895 641.436, 1037.256 639.527, 1034.859 638.458 C 1030.433 636.484, 1027.094 633.446, 1027.033 631.339 C 1026.993 629.922, 1021.302 625.007, 1019.673 624.983 C 1019.028 624.973, 1017.440 623.848, 1016.145 622.483 C 1014.850 621.117, 1013.232 620, 1012.550 620 C 1011.868 620, 1010.506 619.111, 1009.523 618.026 C 1008.540 616.940, 1006.783 615.760, 1005.618 615.404 C 1004.453 615.049, 1001.361 613.237, 998.748 611.379 C 996.134 609.521, 993.306 608, 992.463 608 C 990.282 608, 985.911 604.953, 986.568 603.891 C 987.351 602.623, 1019.353 602.753, 1020.629 604.029 C 1021.265 604.665, 1027.148 604.951, 1036.066 604.779 C 1049.186 604.525, 1050.507 604.334, 1050.831 602.644 C 1051.636 598.451, 1049.391 598.131, 1005.796 596.229 C 994.637 595.742, 988.679 595.085, 987.846 594.250 C 987.049 593.450, 983.606 593, 978.286 593 C 973.714 593, 969.191 592.610, 968.236 592.134 C 965.152 590.596, 959.578 588.783, 956.500 588.318 C 954.850 588.068, 952.600 587.465, 951.500 586.977 C 949.088 585.907, 941.867 585.174, 924.298 584.218 C 915.955 583.764, 910.637 583.040, 909.848 582.250 C 909.162 581.563, 906.917 581, 904.859 581 C 902.801 581, 900.840 580.550, 900.500 580 C 900.160 579.450, 897.321 578.984, 894.191 578.965 C 891.061 578.945, 887.375 578.286, 886 577.500 C 884.625 576.714, 882.256 576.055, 880.736 576.035 C 879.216 576.016, 877.191 575.610, 876.236 575.134 C 872.611 573.326, 867.357 571.713, 863.566 571.243 C 861.402 570.974, 857.716 569.685, 855.373 568.377 C 853.031 567.070, 850.392 566, 849.508 566 C 847.219 566, 841.683 562.985, 842.488 562.176 C 842.859 561.804, 854.038 561.197, 867.331 560.827 C 891.790 560.146, 906.639 559.062, 908.543 557.819 C 909.117 557.444, 914.871 557.032, 921.329 556.903 C 929.103 556.747, 933.651 556.228, 934.786 555.366 C 936.103 554.365, 943.403 554.056, 966.275 554.032 L 996.050 554 997.041 551.392 C 997.892 549.155, 998.491 548.853, 1001.266 549.267 C 1004.977 549.820, 1009.712 551.461, 1015.613 554.238 C 1017.875 555.303, 1021.425 556.331, 1023.501 556.524 C 1025.577 556.717, 1027.753 557.353, 1028.338 557.938 C 1028.922 558.522, 1030.408 559, 1031.641 559 C 1032.874 559, 1034.160 559.450, 1034.500 560 C 1034.840 560.550, 1036.779 561.016, 1038.809 561.035 C 1040.839 561.055, 1043.625 561.714, 1045 562.500 C 1046.375 563.286, 1048.928 563.945, 1050.673 563.965 C 1052.559 563.986, 1055.052 565.015, 1056.818 566.500 C 1058.452 567.875, 1060.427 569, 1061.207 569 C 1061.987 569, 1064.958 570.125, 1067.808 571.500 C 1070.658 572.875, 1074.058 574, 1075.363 574 C 1076.668 574, 1080.811 575.575, 1084.570 577.500 C 1089.194 579.868, 1092.770 581, 1095.626 581 C 1098.669 581, 1100.675 581.697, 1102.818 583.500 C 1104.768 585.141, 1107.011 586, 1109.345 586 C 1113.436 586, 1115.441 588.320, 1113.725 591.068 C 1112.916 592.365, 1113.178 593.636, 1114.832 596.440 C 1116.025 598.461, 1117 601.014, 1117 602.115 C 1117 603.215, 1118.125 606.130, 1119.500 608.593 C 1121.003 611.285, 1122 614.665, 1122 617.068 C 1122 619.266, 1122.675 622.680, 1123.500 624.654 C 1124.325 626.629, 1125 629.963, 1125 632.063 C 1125 634.163, 1125.450 636.160, 1126 636.500 C 1127.368 637.345, 1127.298 657.302, 1125.922 658.678 C 1125.329 659.271, 1124.991 661.049, 1125.172 662.628 C 1125.430 664.887, 1126.065 665.565, 1128.149 665.807 C 1132.649 666.328, 1134 661.963, 1134 646.905 C 1134 639.459, 1133.582 633.860, 1133 633.500 C 1132.450 633.160, 1132 630.974, 1132 628.641 C 1132 626.308, 1131.519 623.919, 1130.930 623.330 C 1130.342 622.742, 1129.645 619.476, 1129.381 616.072 C 1129.113 612.616, 1128.040 608.351, 1126.950 606.412 C 1125.878 604.502, 1124.984 601.715, 1124.965 600.220 C 1124.945 598.724, 1124.286 596.375, 1123.500 595 C 1122.714 593.625, 1122.055 592.163, 1122.035 591.750 C 1122.016 591.337, 1131.814 591, 1143.809 591 C 1161.436 591, 1165.990 590.719, 1167.559 589.532 C 1168.626 588.724, 1170.519 588.049, 1171.764 588.032 C 1173.009 588.014, 1174.809 587.610, 1175.764 587.134 C 1178.269 585.885, 1184.316 583.982, 1184.667 584.333 C 1184.831 584.498, 1184.463 585.962, 1183.850 587.587 C 1182.892 590.124, 1183.107 591.277, 1185.367 595.738 C 1186.815 598.595, 1188.014 602.411, 1188.032 604.217 C 1188.049 606.023, 1188.724 608.374, 1189.532 609.441 C 1190.339 610.509, 1191 612.395, 1191 613.632 C 1191 614.870, 1191.450 616.160, 1192 616.500 C 1192.550 616.840, 1193.014 618.329, 1193.032 619.809 C 1193.049 621.289, 1193.724 623.374, 1194.532 624.441 C 1195.733 626.029, 1196 630.982, 1196 651.656 C 1196 675.603, 1196.101 676.984, 1197.931 677.963 C 1199.388 678.743, 1200.246 678.611, 1201.431 677.427 C 1202.778 676.079, 1202.995 672.162, 1202.965 649.679 C 1202.936 628.868, 1202.636 622.987, 1201.500 621 C 1200.714 619.625, 1200.055 617.276, 1200.035 615.780 C 1200.016 614.285, 1199.037 611.360, 1197.859 609.280 C 1196.682 607.201, 1195.565 603.523, 1195.377 601.107 C 1195.046 596.853, 1190.214 585, 1188.811 585 C 1188.430 585, 1188.764 583.763, 1189.553 582.250 C 1190.342 580.737, 1190.990 578.180, 1190.994 576.566 C 1191.003 572.028, 1187.337 565.382, 1184.079 564.033 C 1182.515 563.385, 1179.973 561.537, 1178.430 559.927 C 1176.888 558.317, 1174.919 557, 1174.055 557 C 1173.191 557, 1170.371 555.875, 1167.788 554.500 C 1165.205 553.125, 1162.386 552, 1161.524 552 C 1159.638 552, 1144.442 544.475, 1141.203 541.938 C 1139.940 540.948, 1137.582 539.848, 1135.965 539.492 C 1134.347 539.137, 1132.743 538.392, 1132.400 537.838 C 1132.057 537.284, 1131.846 531.801, 1131.932 525.655 C 1132.050 517.072, 1131.707 513.719, 1130.450 511.199 C 1129.108 508.510, 1128.906 505.780, 1129.329 496.054 C 1129.798 485.287, 1130.097 483.811, 1132.556 480.095 C 1134.046 477.843, 1135.606 476, 1136.022 476 C 1136.439 476, 1138.447 474.516, 1140.486 472.702 C 1144.634 469.010, 1145.130 464.828, 1141.500 464.143 C 1140.400 463.936, 1137.859 462.287, 1135.853 460.479 C 1129.508 454.759, 1121.707 452.142, 1109.203 451.537 C 1102.688 451.222, 1098.974 450.517, 1096.096 449.049 C 1092.980 447.459, 1090.174 447, 1083.574 447 C 1078.595 447, 1073.706 446.428, 1071.784 445.620 C 1064.594 442.599, 1060.876 442, 1049.301 442 C 1035.830 442, 1034.283 442.683, 1034.869 448.375 C 1035.258 452.153, 1036.631 454, 1039.050 454 C 1040.042 454, 1043.876 455.575, 1047.569 457.500 C 1052.867 460.261, 1055.468 461.007, 1059.892 461.032 C 1063.229 461.051, 1066.286 461.658, 1067.441 462.532 C 1068.509 463.339, 1070.395 464, 1071.632 464 C 1072.870 464, 1074.160 464.450, 1074.500 465 C 1074.842 465.554, 1079.376 466, 1084.656 466 C 1093.883 466, 1094.453 466.134, 1102.118 470.122 C 1107.567 472.957, 1109.759 474.597, 1109.136 475.372 C 1108.638 475.993, 1107.928 477.916, 1107.559 479.646 C 1107.189 481.377, 1106.012 483.584, 1104.943 484.551 C 1103.404 485.944, 1103 487.642, 1103 492.721 C 1103 496.247, 1102.438 500.114, 1101.750 501.316 C 1100.969 502.680, 1100.312 509.317, 1100 519 L 1099.500 534.500 1096.097 534.825 C 1092.838 535.136, 1091.340 534.595, 1080.865 529.330 C 1078.315 528.048, 1075.579 527, 1074.784 527 C 1073.989 527, 1071.125 525.877, 1068.419 524.504 C 1065.714 523.131, 1062.804 522.006, 1061.954 522.004 C 1061.103 522.002, 1057.503 520.435, 1053.954 518.523 C 1048.316 515.485, 1046.591 515.043, 1040.309 515.023 C 1036.354 515.010, 1032.840 514.550, 1032.500 514 C 1032.160 513.450, 1030.529 513, 1028.875 513 C 1027.222 513, 1024.886 512.444, 1023.684 511.763 C 1022.483 511.083, 1018.350 510.296, 1014.500 510.013 L 1007.500 509.500 1007.211 500.725 C 1006.992 494.081, 1007.295 491.417, 1008.461 489.753 C 1009.307 488.544, 1010 486.557, 1010 485.337 C 1010 484.116, 1010.450 482.840, 1011 482.500 C 1011.550 482.160, 1012 480.835, 1012 479.556 C 1012 478.178, 1013.019 476.562, 1014.500 475.592 C 1015.875 474.691, 1017 473.116, 1017 472.091 C 1017 471.067, 1017.672 468.940, 1018.494 467.364 C 1019.315 465.789, 1019.990 463.753, 1019.994 462.840 C 1019.997 461.927, 1022.025 459.250, 1024.500 456.891 C 1029.141 452.468, 1029.998 450.073, 1027.639 448.115 C 1025.898 446.671, 1020.421 448.825, 1017.348 452.163 C 1014.821 454.908, 1010 464.651, 1010 467.013 C 1010 467.914, 1008.875 469.708, 1007.500 471 C 1006.125 472.292, 1005 473.894, 1005 474.560 C 1005 475.226, 1004.328 477.060, 1003.506 478.636 C 1002.685 480.211, 1002.010 482.261, 1002.006 483.191 C 1002.003 484.121, 1001.550 485.160, 1001 485.500 C 999.920 486.167, 999.571 512.720, 1000.607 515.418 C 1001.080 516.651, 1002.750 517, 1008.173 517 C 1012 517, 1016.114 517.533, 1017.316 518.184 C 1019.595 519.420, 1025.673 520.791, 1032.500 521.609 C 1034.700 521.872, 1037.574 522.317, 1038.886 522.597 L 1041.272 523.106 1038.449 526.053 C 1035.606 529.021, 1032.644 529.851, 1031.500 528 C 1031.160 527.450, 1029.135 527, 1027 527 C 1024.865 527, 1022.840 526.550, 1022.500 526 C 1022.160 525.450, 1018.620 525, 1014.632 525 C 1009.806 525, 1006.733 524.509, 1005.441 523.532 C 1002.393 521.226, 998.778 521.724, 991.137 525.500 C 987.242 527.425, 983.571 529, 982.979 529 C 982.388 529, 980.041 528.100, 977.764 527 C 975.487 525.900, 973.101 525, 972.461 525 C 971.821 525, 969.182 523.875, 966.596 522.500 C 963.961 521.099, 960.227 520, 958.101 520 C 953.873 520, 947.666 517.350, 948.549 515.922 C 948.862 515.415, 949.849 515, 950.743 515 C 952.926 515, 960.539 511.260, 962.042 509.450 C 962.703 508.652, 964.652 507.984, 966.372 507.965 C 968.093 507.945, 970.625 507.286, 972 506.500 C 973.591 505.590, 977.486 505.058, 982.715 505.035 C 989.701 505.005, 991.080 504.720, 991.933 503.126 C 992.700 501.691, 992.496 500.854, 991.061 499.555 C 989.489 498.133, 987.676 497.936, 979.843 498.337 C 966.437 499.023, 959.385 500.315, 956.778 502.563 C 953.460 505.423, 948.479 508, 946.270 508 C 945.213 508, 943.292 509.125, 942 510.500 C 940.261 512.352, 938.623 513, 935.686 513 C 930.687 513, 928.288 515.542, 930.731 518.250 C 931.629 519.245, 933.735 520, 935.616 520 C 937.517 520, 939.682 520.784, 940.711 521.845 C 943.519 524.742, 948.954 527, 953.120 527 C 956.989 527, 964 529.697, 964 531.185 C 964 531.633, 947.688 532.016, 927.750 532.035 C 898.208 532.064, 891.037 532.335, 889 533.500 C 887.258 534.496, 883.131 534.940, 875.382 534.965 L 864.264 535 855.481 539.482 C 850.650 541.947, 845.943 544.647, 845.020 545.482 C 843.945 546.454, 841.354 547, 837.808 547 C 833.197 547, 831.844 547.429, 829.702 549.570 C 826.357 552.916, 824.138 551.818, 819.459 544.503 C 817.569 541.549, 815.568 538.851, 815.012 538.507 C 814.455 538.163, 814 536.109, 814 533.941 L 814 530 821.599 530 C 826.547 530, 830.471 529.421, 832.849 528.340 C 837.068 526.421, 843 521.180, 843 519.371 C 843 518.691, 843.864 517.860, 844.921 517.525 C 847.046 516.851, 851 510.023, 851 507.028 C 851 505.978, 851.450 504.840, 852 504.500 C 852.550 504.160, 853.016 501.771, 853.035 499.191 C 853.055 496.611, 853.714 493.375, 854.500 492 C 855.362 490.492, 855.943 486.648, 855.965 482.309 C 855.984 478.354, 856.450 474.840, 857 474.500 C 857.571 474.147, 858 469.052, 858 462.628 L 858 451.374 854.899 448.437 C 853.194 446.822, 851.403 444.482, 850.919 443.238 C 850.436 441.993, 848.880 440.447, 847.461 439.800 C 846.043 439.154, 843.302 437.135, 841.370 435.313 C 839.438 433.491, 837.167 432, 836.323 432 C 835.479 432, 833.903 430.875, 832.821 429.500 C 831.740 428.125, 830.346 427, 829.725 427 C 829.104 427, 827.224 425.709, 825.548 424.132 C 823.871 422.554, 819.885 419.854, 816.688 418.132 C 811.785 415.489, 809.802 415, 803.997 415 C 800.214 415, 796.840 415.450, 796.500 416 C 796.160 416.550, 794.187 417, 792.115 417 C 789.390 417, 787.699 417.691, 786 419.500 C 784.708 420.875, 783.091 422, 782.407 422 C 781.722 422, 779.713 423.537, 777.941 425.415 C 776.170 427.293, 773.321 429.095, 771.610 429.419 C 768.339 430.039, 753 444.049, 753 446.417 C 753 447.096, 751.875 448.708, 750.500 450 C 748.320 452.048, 748 453.198, 748 458.996 C 748 463.510, 747.386 466.904, 746.085 469.571 L 744.170 473.500 743.507 470.500 C 743.143 468.850, 742.411 466.596, 741.882 465.491 C 740.828 463.290, 741.345 428.307, 742.687 411 C 743.135 405.225, 744.070 399.506, 744.764 398.290 C 745.899 396.305, 745.719 395.852, 742.987 393.832 C 741.314 392.595, 740.152 391.046, 740.404 390.389 C 740.656 389.732, 740.283 388.402, 739.575 387.434 C 738.530 386.004, 736.616 385.645, 729.394 385.522 C 724.502 385.438, 719.025 385.541, 717.221 385.751 M 717.750 396.087 C 716.788 397.778, 716 400.178, 716 401.421 C 716 402.859, 715.092 404.092, 713.500 404.818 C 711.819 405.584, 711 406.763, 711 408.420 C 711 409.774, 710.550 411.160, 710 411.500 C 709.450 411.840, 709 414.540, 709 417.500 C 709 420.460, 709.450 423.160, 710 423.500 C 710.600 423.871, 711.014 430.800, 711.035 440.809 C 711.062 453.392, 711.423 458.115, 712.500 460 C 713.286 461.375, 713.945 463.752, 713.965 465.283 C 713.984 466.814, 715.125 470.287, 716.500 473 C 718.588 477.121, 719 479.345, 719 486.500 C 719 493.655, 719.412 495.879, 721.500 500 C 722.992 502.944, 724 506.635, 724 509.152 C 724 512.152, 724.650 514.063, 726.250 515.764 C 728.201 517.840, 728.545 519.442, 728.837 527.829 C 729.022 533.148, 729.584 537.928, 730.087 538.450 C 730.589 538.973, 731 541.508, 731 544.085 C 731 547.979, 731.422 549.047, 733.500 550.408 C 735.062 551.431, 736 552.983, 736 554.543 C 736 557.569, 739.519 563.329, 744.096 567.796 C 746.953 570.584, 748.091 571.046, 751.478 570.796 C 756.949 570.392, 757.111 568.160, 752.064 562.685 C 749.587 559.998, 748 557.307, 748 555.793 C 748 554.427, 747.076 552.474, 745.947 551.452 C 744.818 550.430, 742.568 546.729, 740.947 543.227 C 738.167 537.221, 738 536.132, 738 523.989 C 738 516.487, 737.583 510.860, 737 510.500 C 736.390 510.123, 736 502.468, 736 490.875 C 736 478.910, 735.591 471.103, 734.895 469.803 C 733.450 467.103, 733.534 418.066, 734.986 416.614 C 735.544 416.056, 736 411.217, 736 405.859 C 736 400.444, 736.444 395.844, 737 395.500 C 739.762 393.793, 737.140 393.001, 728.750 393.006 L 719.500 393.013 717.750 396.087 M 801.450 422.916 C 800.928 423.420, 798.726 424.106, 796.558 424.441 C 791.684 425.194, 791.265 425.593, 792.788 428.032 C 794.539 430.836, 794.283 432.778, 792 434 C 790.299 434.910, 790 436.094, 790 441.913 C 790 449.393, 790.779 450.681, 796.402 452.499 C 798.467 453.166, 800.741 455.335, 803.219 459 C 806.924 464.477, 806.939 464.543, 806.969 475.076 C 806.998 485.083, 806.866 485.778, 804.500 488 C 803.064 489.349, 802 491.467, 802 492.974 C 802 497.164, 800.298 498, 791.760 498 C 782.896 498, 778.503 496.318, 773.197 490.890 C 770.507 488.139, 770 486.866, 770 482.862 C 770 479.172, 769.439 477.497, 767.500 475.405 C 766.079 473.872, 765 471.507, 765 469.927 C 765 468.151, 765.904 466.434, 767.500 465.179 C 768.875 464.097, 770 462.474, 770 461.571 C 770 460.668, 770.697 458.866, 771.548 457.567 C 772.657 455.875, 773.011 453.263, 772.798 448.363 C 772.417 439.611, 770.693 438.950, 764.701 445.257 C 756.582 453.805, 755 456.726, 755 463.175 C 755 466.393, 754.605 469.809, 754.123 470.764 C 750.881 477.181, 749.761 489.557, 751.929 495 C 753.496 498.932, 756.798 502.999, 758.424 503.001 C 759.016 503.002, 760.807 504.127, 762.406 505.501 C 764.004 506.876, 765.861 508, 766.533 508 C 767.205 508, 768.348 508.715, 769.073 509.588 C 769.798 510.462, 774.344 513.162, 779.176 515.588 C 786.850 519.442, 788.777 520, 794.421 520 C 797.975 520, 801.160 520.450, 801.500 521 C 802.285 522.270, 826.400 522.335, 828.764 521.073 C 829.719 520.563, 831.217 519.929, 832.092 519.665 C 832.968 519.400, 834.449 517.573, 835.383 515.605 C 836.317 513.637, 837.963 511.555, 839.041 510.978 C 841.404 509.714, 841.613 508, 839.404 508 C 838.527 508, 836.614 507.382, 835.154 506.627 C 833.694 505.873, 830.700 504.695, 828.500 504.010 C 826.300 503.326, 823.375 501.744, 822 500.495 C 820.625 499.246, 818.487 497.919, 817.250 497.545 C 814.971 496.856, 814.506 495.452, 815.607 492.582 C 816.419 490.466, 823.298 490.450, 825.050 492.560 C 826.668 494.510, 833.782 498, 836.138 498 C 837.108 498, 838.332 497.229, 838.859 496.287 C 839.387 495.345, 841.096 494.521, 842.659 494.455 C 845.023 494.357, 845.555 493.846, 845.827 491.418 C 846.007 489.813, 846.569 488.072, 847.077 487.550 C 847.585 487.027, 848 483.626, 848 479.991 C 848 475.728, 848.521 472.693, 849.468 471.441 C 850.419 470.184, 850.948 467.078, 850.968 462.623 L 851 455.746 842.340 447.373 C 837.345 442.544, 832.831 439, 831.676 439 C 830.574 439, 826.634 436.300, 822.921 433 C 819.208 429.700, 815.877 427, 815.518 427 C 815.160 427, 813.392 425.875, 811.589 424.500 C 808.303 421.993, 803.229 421.201, 801.450 422.916 M 1052.637 449.696 C 1052.254 450.079, 1053.609 451.204, 1055.649 452.196 C 1059.525 454.082, 1067.482 454.647, 1068.435 453.105 C 1069.142 451.962, 1066.648 451, 1062.977 451 C 1061.405 451, 1059.840 450.550, 1059.500 450 C 1058.798 448.865, 1053.695 448.639, 1052.637 449.696 M 1072 454.927 C 1072 455.517, 1073.025 456, 1074.277 456 C 1075.530 456, 1077.547 456.695, 1078.760 457.544 C 1080.372 458.673, 1082.918 459.009, 1088.232 458.794 C 1101.040 458.276, 1095.399 455.093, 1080.250 454.290 C 1074.769 454, 1072 454.213, 1072 454.927 M 1101.570 459.886 C 1101.269 460.374, 1101.988 461.025, 1103.169 461.334 C 1106.104 462.101, 1118 460.915, 1118 459.855 C 1118 458.719, 1102.274 458.748, 1101.570 459.886 M 792.553 461.915 C 792.231 462.436, 792.394 463.125, 792.915 463.447 C 793.436 463.769, 794.125 463.606, 794.447 463.085 C 794.769 462.564, 794.606 461.875, 794.085 461.553 C 793.564 461.231, 792.875 461.394, 792.553 461.915 M 831.223 462.557 C 828.378 464.549, 828.426 465.154, 831.686 468.413 C 833.654 470.382, 835.190 471.019, 837.436 470.799 C 841.804 470.373, 842.053 467.064, 837.975 463.633 C 834.310 460.549, 834.130 460.520, 831.223 462.557 M 277.200 465.200 C 275.434 466.966, 275.646 473, 277.474 473 C 279.279 473, 282.350 467.355, 281.604 465.410 C 280.942 463.684, 278.817 463.583, 277.200 465.200 M 780 466 C 780 467.100, 780.450 468, 781 468 C 781.550 468, 782 467.100, 782 466 C 782 464.900, 781.550 464, 781 464 C 780.450 464, 780 464.900, 780 466 M 811.200 465.200 C 809.209 467.191, 809.808 469.914, 812.379 470.559 C 818.646 472.132, 823.045 469.169, 819.960 465.452 C 818.503 463.696, 812.866 463.534, 811.200 465.200 M 1119.250 468.676 C 1117.288 469.080, 1117 469.763, 1117 474.011 C 1117 476.690, 1116.550 479.160, 1116 479.500 C 1115.450 479.840, 1115 481.363, 1115 482.885 C 1115 484.543, 1113.998 486.592, 1112.500 488 C 1110.272 490.093, 1110 491.151, 1110 497.709 C 1110 502.413, 1109.481 505.870, 1108.564 507.285 C 1107.556 508.839, 1107.183 512.038, 1107.314 518 L 1107.500 526.500 1110.500 526.827 C 1112.150 527.007, 1114.750 528.341, 1116.278 529.792 C 1118.960 532.336, 1119.152 532.371, 1121.778 530.783 C 1124.090 529.386, 1124.546 528.360, 1124.805 523.978 C 1125.008 520.551, 1124.588 518.021, 1123.555 516.444 C 1122.299 514.527, 1122 510.730, 1122 496.690 C 1122 480.559, 1122.144 479.179, 1124.007 477.493 C 1125.891 475.789, 1129.313 469.973, 1128.754 469.427 C 1128.114 468.802, 1121.268 468.261, 1119.250 468.676 M 266.034 476.896 C 264.504 481.533, 265.155 484, 267.910 484 C 270.774 484, 271.290 482.476, 269.858 478.244 C 267.988 472.715, 267.474 472.534, 266.034 476.896 M 287 474.500 C 287 474.775, 287.225 475, 287.500 475 C 287.775 475, 288 474.775, 288 474.500 C 288 474.225, 287.775 474, 287.500 474 C 287.225 474, 287 474.225, 287 474.500 M 792.553 478.915 C 792.231 479.436, 792.394 480.125, 792.915 480.447 C 793.436 480.769, 794.125 480.606, 794.447 480.085 C 794.769 479.564, 794.606 478.875, 794.085 478.553 C 793.564 478.231, 792.875 478.394, 792.553 478.915 M 263.783 491.191 C 262.839 491.911, 261.763 494.453, 261.391 496.840 L 260.716 501.179 272.108 500.840 C 281.864 500.549, 284.210 500.141, 288.443 498 C 293.520 495.432, 296.038 492.707, 294.634 491.298 C 294.197 490.859, 287.463 490.361, 279.670 490.191 C 269.137 489.961, 265.059 490.218, 263.783 491.191 M 743.545 501.142 C 743.090 502.840, 743.403 504.878, 744.419 506.843 C 745.609 509.145, 746 512.943, 746 522.215 C 746 533.837, 746.167 534.872, 748.970 540.618 C 750.604 543.966, 752.629 547.277, 753.470 547.975 C 754.312 548.674, 755 550.325, 755 551.645 C 755 553.055, 756.650 555.835, 759 558.384 C 761.463 561.056, 763 563.693, 763 565.247 C 763 569.736, 766.528 570.996, 779.215 571.035 C 787.109 571.060, 791.251 571.500, 793 572.500 C 794.956 573.618, 800.291 573.934, 817.500 573.949 C 830.043 573.961, 840.145 573.553, 841 573 C 841.825 572.467, 841.999 572.024, 841.388 572.015 C 840.776 572.007, 838.576 570.650, 836.500 569 C 834.424 567.350, 831.750 566, 830.559 566 C 829.367 566, 826.866 564.425, 825 562.500 C 823.134 560.575, 821.061 559, 820.393 559 C 819.725 559, 816.439 554.938, 813.090 549.973 C 808.227 542.764, 807 540.161, 807 537.054 C 807 531.536, 806.166 530.005, 803.143 529.968 C 801.689 529.951, 799.626 529.276, 798.559 528.468 C 797.315 527.527, 794.286 527, 790.127 527 C 784.424 527, 782.538 526.449, 774.569 522.457 C 769.581 519.959, 763.475 516.359, 761 514.457 C 758.525 512.556, 755.825 510.699, 755 510.331 C 752.126 509.050, 746.492 503.631, 745.377 501.074 L 744.253 498.500 743.545 501.142 M 1049.250 528.745 C 1047.463 529.635, 1046 530.947, 1046 531.661 C 1046 533.037, 1052.937 537, 1055.346 537 C 1056.130 537, 1058.060 537.672, 1059.636 538.494 C 1061.211 539.315, 1063.872 539.990, 1065.550 539.994 C 1070.004 540.003, 1071 541.607, 1071 548.766 C 1071 555.660, 1069.819 559, 1067.381 559 C 1066.530 559, 1066.001 559.504, 1066.207 560.120 C 1066.821 561.963, 1074.841 566, 1077.887 566 C 1079.446 566, 1082.371 567.120, 1084.388 568.489 C 1090.905 572.911, 1093.803 574, 1099.056 574 C 1103.096 574, 1104.854 574.541, 1107.182 576.500 C 1109.019 578.046, 1111.395 579, 1113.407 579 C 1115.197 579, 1118.750 580.057, 1121.303 581.350 C 1125.554 583.502, 1127.327 583.716, 1142.396 583.895 C 1155.312 584.048, 1159.643 583.758, 1162.546 582.545 C 1164.580 581.695, 1167.202 581.001, 1168.372 581.001 C 1170.919 581.003, 1181.968 575.857, 1181.987 574.660 C 1181.994 574.198, 1180.587 572.623, 1178.860 571.160 C 1177.132 569.697, 1174.801 567.487, 1173.679 566.250 C 1172.546 565, 1170.466 564, 1169 564 C 1167.431 564, 1165.479 562.986, 1164.187 561.500 C 1162.991 560.125, 1160.952 559, 1159.656 559 C 1158.359 559, 1155.182 557.875, 1152.596 556.500 C 1150.010 555.125, 1147.257 554, 1146.478 554 C 1144.877 554, 1138.313 550.517, 1135.921 548.399 C 1135.053 547.629, 1133.694 547, 1132.902 547 C 1132.110 547, 1127.879 545.200, 1123.500 543 C 1114.393 538.425, 1109.876 537.912, 1107.579 541.191 C 1106.735 542.396, 1104.939 543.858, 1103.587 544.441 L 1101.131 545.500 1103.101 549.500 C 1105.364 554.093, 1105.253 556.824, 1102.741 558.398 C 1101.252 559.331, 1100.178 558.594, 1095.741 553.595 C 1086.600 543.295, 1082.018 539, 1080.171 539 C 1079.184 539, 1077.443 538.130, 1076.302 537.067 C 1075.160 536.003, 1072.630 534.834, 1070.679 534.468 C 1068.727 534.101, 1066.357 532.947, 1065.410 531.901 C 1064.413 530.798, 1062.365 530, 1060.536 530 C 1058.802 530, 1056.509 529.339, 1055.441 528.532 C 1053.089 526.753, 1053.266 526.747, 1049.250 528.745 M 994.670 532.663 C 993.399 533.934, 1000.079 537, 1004.120 537 C 1006.745 537, 1009.307 537.799, 1011.332 539.250 C 1016.338 542.837, 1019.016 544, 1022.270 544 C 1023.973 544, 1026.753 545.100, 1028.589 546.500 C 1030.392 547.875, 1033.040 549, 1034.473 549 C 1035.907 549, 1038.974 549.979, 1041.290 551.175 C 1043.605 552.371, 1047.300 553.682, 1049.500 554.088 C 1051.700 554.494, 1054.400 555.086, 1055.500 555.403 C 1056.844 555.789, 1058.609 555.020, 1060.883 553.056 C 1064.725 549.735, 1064.558 547, 1060.511 547 C 1059.108 547, 1054.206 545.200, 1049.619 543 C 1044.784 540.681, 1039.805 539, 1037.774 539 C 1035.784 539, 1033.171 538.136, 1031.727 537 C 1030.329 535.900, 1027.779 535, 1026.060 535 C 1024.342 535, 1021.320 534.325, 1019.346 533.500 C 1015.681 531.969, 996.031 531.302, 994.670 532.663 M 894.135 540.539 C 891.863 541.526, 887.225 542, 879.852 542 C 870.188 542, 868.367 542.287, 864 544.500 C 861.287 545.875, 858.221 547, 857.188 547 C 856.155 547, 854.506 547.889, 853.523 548.974 C 852.540 550.060, 850.896 551.216, 849.868 551.542 C 848.841 551.868, 848 552.572, 848 553.107 C 848 553.719, 855.504 553.916, 868.250 553.639 C 890.233 553.161, 901.270 552.125, 904.684 550.219 C 906.064 549.449, 911.292 549, 918.875 549 C 925.801 549, 931.144 548.577, 931.500 548 C 931.882 547.382, 940.657 547, 954.500 547 C 967.710 547, 977.125 546.607, 977.475 546.041 C 978.100 545.029, 976.196 541.011, 974.500 539.765 C 973.950 539.361, 956.400 539.041, 935.500 539.054 C 904.416 539.074, 896.888 539.344, 894.135 540.539 M 774.728 583.174 C 775.336 587.889, 778.336 593, 780.496 593 C 781.243 593, 782.675 594.030, 783.677 595.288 C 784.680 596.547, 786.930 598.163, 788.678 598.880 C 790.426 599.597, 792.100 600.817, 792.397 601.592 C 792.855 602.785, 804.294 603, 867.469 603 C 908.461 603, 941.999 602.663, 941.998 602.250 C 941.993 600.814, 931.447 596, 928.306 596 C 925.275 596, 922 593.885, 922 591.929 C 922 591.418, 918.715 591, 914.700 591 C 910.528 591, 906.907 590.507, 906.249 589.849 C 904.955 588.555, 898.658 587.204, 889 586.149 C 885.425 585.758, 881.517 584.890, 880.316 584.219 C 879.114 583.549, 876.842 583, 875.266 583 C 873.690 583, 871.960 582.560, 871.422 582.022 C 870.833 581.433, 854.368 580.867, 829.972 580.596 C 807.713 580.349, 786.051 579.855, 781.835 579.498 L 774.170 578.848 774.728 583.174 M 760.174 601.314 C 758.253 603.360, 758 604.748, 758 613.255 C 758 618.594, 758.445 623.157, 759 623.500 C 759.550 623.840, 760 628.186, 760 633.158 C 760 639.229, 760.506 643.264, 761.541 645.446 C 762.657 647.798, 763.002 651.149, 762.791 657.597 L 762.500 666.500 752.605 667 C 744.827 667.393, 742.485 667.857, 741.663 669.166 C 740.905 670.372, 740.979 671.270, 741.930 672.416 C 742.994 673.697, 745.498 674, 755.041 674 C 761.528 674, 767.548 673.727, 768.418 673.393 C 769.765 672.876, 770 670.512, 770 657.452 C 770 648.308, 769.596 641.869, 769 641.500 C 768.448 641.159, 767.986 636.536, 767.968 631.191 C 767.945 624.259, 767.518 620.947, 766.468 619.559 C 764.459 616.903, 764.551 607.614, 766.618 604.460 C 767.922 602.471, 767.995 601.699, 766.996 600.495 C 765.213 598.346, 762.676 598.651, 760.174 601.314 M 981.333 601.667 C 981.700 602.033, 982.300 602.033, 982.667 601.667 C 983.033 601.300, 982.733 601, 982 601 C 981.267 601, 980.967 601.300, 981.333 601.667 M 795.163 611.750 C 794.663 612.712, 794.535 616.650, 794.877 620.500 L 795.500 627.500 797.500 624.618 C 798.600 623.033, 801.652 619.374, 804.282 616.487 C 809.673 610.571, 809.380 610, 800.953 610 C 797.315 610, 795.839 610.446, 795.163 611.750 M 793 631 C 793 631.733, 793.300 632.033, 793.667 631.667 C 794.033 631.300, 794.033 630.700, 793.667 630.333 C 793.300 629.967, 793 630.267, 793 631 M 944 654 C 944 660, 944.400 664, 945 664 C 945.600 664, 946 660, 946 654 C 946 648, 945.600 644, 945 644 C 944.400 644, 944 648, 944 654 M 785.450 650.676 C 785.151 651.679, 783.765 654.827, 782.371 657.672 C 780.162 662.181, 779.897 663.784, 780.311 670.172 C 780.572 674.202, 781.179 679.300, 781.660 681.500 C 782.476 685.234, 782.766 685.500, 786.017 685.500 L 789.500 685.500 789.500 667.514 C 789.500 651.167, 789.340 649.497, 787.747 649.190 C 786.717 648.992, 785.769 649.605, 785.450 650.676" stroke="none" fill="#000000" fill-rule="evenodd"/>
</svg>