<svg width="1184" height="693" viewBox="0 0 1184 693" fill="none" xmlns="http://www.w3.org/2000/svg">
<path fill-rule="evenodd" clip-rule="evenodd" d="M228.37 51.0319C130.51 51.7399 72.8101 52.8479 68.8701 54.0949C67.7701 54.4429 57.0631 54.9509 45.0761 55.2229C23.8311 55.7049 23.2341 55.7759 21.3551 58.0239C19.4761 60.2729 19.4271 63.2979 19.4141 179.118C19.4051 257.564 19.0561 298.55 18.3851 299.802C17.7591 300.973 17.3701 313.991 17.3701 333.805C17.3701 365.186 17.3191 366.006 15.1201 370.121C12.9031 374.269 12.8601 375.056 12.2101 423.331C11.8471 450.281 11.0541 476.381 10.4481 481.331C9.30906 490.624 8.04307 510.715 6.57007 542.831C5.80207 559.585 5.15706 564.336 3.44306 565.831C2.07206 567.028 -0.431935 575.874 0.0640645 577.77C0.597065 579.805 4.14406 581.406 6.43206 580.644C7.67806 580.228 10.3311 573.418 10.3551 570.571C10.3631 569.603 11.2701 568.041 12.3701 567.099C14.2301 565.506 14.3701 564.149 14.3701 547.674C14.3701 536.315 14.7941 528.951 15.5511 527.146C16.2001 525.598 17.0831 516.906 17.5131 507.831C17.9431 498.756 18.8041 487.281 19.4261 482.331C20.0591 477.291 20.7481 452.01 20.9911 424.879C21.3871 380.809 21.5821 376.254 23.1481 374.526C24.6711 372.845 24.9591 368.729 25.6421 338.978C26.0661 320.472 26.7411 251.106 27.1421 184.831L27.8701 64.3309L47.8331 64.1419C58.8121 64.0379 68.7121 63.6169 69.8331 63.2069C73.8991 61.7189 131.912 60.7379 227.703 60.5369L325.536 60.3309L325.421 79.3309C325.313 97.2489 325.45 98.7429 327.838 105.562L330.37 112.793V263.825V414.856L328.129 422.094C325.931 429.193 325.877 430.605 325.295 496.331C324.922 538.392 324.289 565.543 323.596 569.274C322.988 572.542 322.715 575.58 322.989 576.024C323.264 576.468 324.721 576.831 326.229 576.831C327.737 576.831 329.459 577.32 330.057 577.918C332 579.861 350.374 577.735 356.87 574.816C360.521 573.175 362.824 573.363 367.612 575.693C370.219 576.963 374.719 578.398 377.612 578.883C388.013 580.629 389.312 581.089 393.19 584.409C395.354 586.261 398.13 589.926 399.36 592.554C401.545 597.221 421.928 618.831 424.147 618.831C425.632 618.831 448.793 641.993 451.788 646.474C457.963 655.713 459.384 657.546 463.265 661.284C465.523 663.458 467.37 665.751 467.37 666.379C467.37 667.007 468.229 668.298 469.279 669.248C470.328 670.198 471.742 672.314 472.419 673.95C473.742 677.142 476.404 678.855 484.042 681.428C486.697 682.323 491.259 685.087 494.179 687.571C499.359 691.977 499.674 692.093 507.129 692.358C511.331 692.507 515.787 692.243 517.03 691.77L519.291 690.91L519.349 462.883C519.4 261.398 519.23 234.433 517.892 231.23C516.88 228.807 499.694 210.909 466.028 177.218C438.336 149.505 415.272 126.825 414.774 126.819C414.277 126.812 411.938 125.012 409.577 122.819C407.215 120.625 404.88 118.831 404.387 118.831C403.544 118.831 396.736 113.536 391.524 108.828C390.234 107.662 388.209 106.329 387.024 105.866C385.839 105.402 380.37 100.255 374.87 94.4279C347.415 65.3389 341.577 59.4269 338.12 57.2109C335.436 55.4899 334.37 54.0989 334.37 52.3179C334.37 50.1289 333.98 49.8599 331.12 50.0709C329.332 50.2039 283.095 50.6359 228.37 51.0319ZM335.037 67.4979C334.67 67.8639 334.37 74.9939 334.37 83.3409C334.37 96.0159 334.706 99.4919 336.409 104.424C338.426 110.27 338.447 111.914 338.412 262.831C338.379 401.124 338.22 416.123 336.706 423.831C335.306 430.961 334.919 442.806 334.307 497.331C333.905 533.081 333.418 564.131 333.223 566.331L332.87 570.331L337.37 570.205C343.986 570.02 350.66 568.741 352.37 567.33C354.045 565.948 357.861 564.9 363.923 564.157C367.472 563.723 368.405 564.068 371.423 566.93C373.741 569.128 376.345 570.45 379.37 570.963C393.322 573.329 394.982 573.92 399.203 578.017C401.495 580.241 403.37 582.425 403.37 582.869C403.37 583.314 404.427 584.95 405.718 586.504C407.009 588.059 408.349 590.494 408.695 591.916C409.529 595.338 418.069 603.77 427.37 610.356C434.795 615.614 441.241 621.679 443.042 625.103C443.555 626.078 447.365 630.353 451.508 634.603C455.652 638.853 460.669 644.821 462.659 647.864C464.648 650.907 468.154 655.407 470.45 657.864C472.746 660.321 476.052 664.334 477.796 666.782C480.219 670.183 482.136 671.631 485.919 672.917C488.642 673.844 493.065 676.541 495.747 678.911C499.956 682.631 501.256 683.229 505.247 683.276L509.87 683.331L510.122 459.883C510.29 311.586 510.037 236.098 509.372 235.433C508.821 234.882 508.37 233.479 508.37 232.316C508.37 230.859 494.251 216.091 463.036 184.899C438.103 159.983 416.841 139.132 415.786 138.565C414.732 137.997 411.567 135.462 408.752 132.932C403.927 128.594 401.073 126.346 395.929 122.831C386.634 116.479 381.991 112.444 368.13 98.6709C359.462 90.0569 352.37 82.5009 352.37 81.8779C352.37 80.3119 343.549 71.1569 339.752 68.7809C336.297 66.6199 335.996 66.5379 335.037 67.4979ZM167.87 161.044C165.12 161.559 161.295 162.208 159.37 162.486C156.817 162.854 154.585 164.353 151.12 168.024C148.507 170.793 146.37 173.669 146.37 174.416C146.37 175.163 145.245 178.318 143.87 181.427C142.002 185.65 141.37 188.8 141.37 193.884C141.37 198.736 140.919 201.139 139.799 202.26C137.401 204.657 135.315 204.146 134.074 200.858C133.457 199.222 132.296 197.633 131.495 197.325C129.352 196.503 116.245 203.045 111.567 207.272C107.391 211.045 103.326 220.317 104.156 224.177C104.565 226.075 113.892 230.831 117.207 230.831C118.187 230.831 119.741 231.394 120.661 232.081C122.172 233.209 122.194 233.72 120.896 237.331C119.847 240.249 119.446 246.371 119.414 259.965L119.37 278.598L123.37 282.212C126.302 284.861 127.37 286.607 127.37 288.752C127.37 291.599 130.869 296.86 134.61 299.638C135.578 300.356 136.37 301.518 136.37 302.218C136.37 304.264 143.462 311.543 148.626 314.797C151.241 316.445 155.667 318.542 158.461 319.455C161.323 320.392 163.83 321.896 164.205 322.901C164.571 323.882 164.645 328.202 164.37 332.5C163.906 339.748 163.678 340.406 161.217 341.58C159.758 342.277 157.058 344.686 155.217 346.934C153.376 349.182 150.251 352.89 148.273 355.176C143.41 360.793 137.877 369.674 136.96 373.334C136.547 374.982 133.361 379.283 129.88 382.891C125.672 387.251 123.187 390.772 122.469 393.391C121.875 395.558 120.488 398.681 119.386 400.331C118.285 401.981 117.38 404.189 117.377 405.237C117.373 406.285 114.72 412.36 111.481 418.737C105.33 430.846 103.868 436.491 104.226 446.756C104.447 453.086 105.707 455.047 109.284 454.632C111.781 454.341 111.892 454.038 112.503 445.831C113.217 436.238 114.6 431.204 119.096 421.831C123.339 412.984 128.258 402.125 130.101 397.533C130.939 395.445 134.196 391.165 137.338 388.023C141.588 383.773 143.507 380.907 144.836 376.821C145.818 373.802 147.69 369.899 148.996 368.148C150.302 366.397 151.37 364.572 151.37 364.093C151.37 363.614 152.903 361.549 154.776 359.504C157.789 356.214 158.353 355.957 159.667 357.271C160.844 358.448 161.044 360.586 160.63 367.544C160.343 372.377 159.717 377.089 159.239 378.015C158.761 378.942 158.368 405.042 158.366 436.015C158.363 490.532 158.299 492.436 156.366 495.605C154.796 498.18 154.37 500.645 154.37 507.145C154.37 511.691 153.695 518.002 152.87 521.17C152.045 524.337 151.37 528.334 151.37 530.051C151.37 531.768 150.623 533.999 149.711 535.007C147.069 537.927 146.176 544.933 145.683 566.639C145.201 587.826 145.524 589.831 149.421 589.831C153.671 589.831 154.09 587.921 153.926 569.295C153.813 556.478 154.128 550.924 155.07 549.108C155.785 547.73 156.37 544.699 156.37 542.372C156.37 539.411 156.97 537.598 158.37 536.331C159.768 535.066 160.37 533.251 160.37 530.302C160.37 527.981 161.02 524.24 161.814 521.988C162.826 519.122 163.081 515.77 162.665 510.81C162.138 504.527 162.322 503.388 164.287 500.729C166.393 497.881 166.505 496.769 166.529 478.441C166.543 467.831 166.914 458.569 167.353 457.858C167.953 456.888 168.724 457.223 170.441 459.198C171.701 460.646 173.302 461.831 173.999 461.831C175.839 461.831 180.37 468.142 180.37 470.704C180.37 473.106 186.097 485.132 187.495 485.664C187.976 485.848 188.37 486.834 188.37 487.855C188.37 488.877 188.82 489.991 189.37 490.331C189.92 490.671 190.37 491.844 190.37 492.938C190.37 494.032 191.396 495.918 192.65 497.129C197.098 501.427 197.37 503.447 197.37 532.253C197.37 547.283 197.651 560.987 197.995 562.706C198.547 565.465 199.015 565.831 201.995 565.831H205.37L205.616 542.081C206.036 501.628 206.179 504.062 202.97 497.081C201.39 493.644 199.744 490.831 199.314 490.831C198.883 490.831 197.82 488.693 196.951 486.081C196.082 483.469 194.303 480.091 192.999 478.575C190.845 476.072 189.61 472.667 187.875 464.453C187.541 462.87 185.893 460.33 184.213 458.809C179.712 454.733 178.871 453.902 172.598 447.331L166.87 441.331L166.511 414.973C166.178 390.485 166.398 386.77 168.965 373.683C169.251 372.226 170.29 370.824 171.275 370.566C172.312 370.295 173.331 368.778 173.693 366.964C174.226 364.3 174.763 363.831 177.28 363.831C181.938 363.831 194.616 366.751 196.323 368.217C198.133 369.771 202.109 370.916 222.276 375.693C235.574 378.843 239.942 382.024 237.425 386.727C236.845 387.812 236.37 389.828 236.37 391.206C236.37 392.585 235.92 393.991 235.37 394.331C233.696 395.366 234.151 406.469 235.941 408.26C238.046 410.365 258.327 410.48 264.585 408.422C266.942 407.647 270.22 406.714 271.87 406.349C273.52 405.983 276.386 404.692 278.24 403.479C281.099 401.608 281.959 400.064 283.912 393.302C287 382.608 286.052 378.226 278.797 369.654C274.509 364.588 272.695 363.232 268.719 362.12C258.821 359.354 256.069 359.372 252.68 362.224C250.976 363.658 248.639 364.831 247.488 364.831C246.134 364.831 244.504 366.243 242.87 368.831C239.927 373.493 238.345 373.746 230.37 370.831C227.361 369.731 224.156 368.831 223.249 368.831C220.704 368.831 201.738 363.149 199.87 361.827C197.701 360.292 188.428 358.472 179.949 357.916C171.259 357.346 171.004 357.258 170.092 354.51C169.33 352.212 169.541 351.278 171.229 349.481C173.049 347.544 173.337 345.81 173.586 335.302L173.87 323.331L184.87 322.779C196.403 322.2 201.991 320.718 204.177 317.66C204.895 316.654 205.904 315.831 206.418 315.831C207.574 315.831 213.37 309.858 213.37 308.667C213.37 308.189 214.913 307.063 216.8 306.163C218.775 305.221 221.562 302.471 223.371 299.679C225.099 297.013 227.268 294.811 228.191 294.787C243.143 294.397 244.37 293.836 244.37 287.396C244.37 284.11 243.765 282.625 241.565 280.518C240.023 279.04 238.028 277.831 237.133 277.831C234.864 277.831 233.938 274.173 235.537 271.532C236.585 269.802 236.763 264.512 236.37 246.831C235.878 224.713 236.222 220.831 238.669 220.831C239.345 220.831 242.929 218.095 246.634 214.751C252.68 209.295 253.37 208.286 253.37 204.906C253.37 202.551 252.696 200.531 251.57 199.512C248.867 197.065 241.7 194.833 236.494 194.816C229.744 194.793 228.872 193.958 230.796 189.354C232.552 185.15 232.866 177.266 231.427 173.482C230.396 170.768 230.421 170.779 218.87 168.318C210.897 166.619 206.486 165.529 192.493 161.798C184.746 159.732 176.254 159.472 167.87 161.044ZM175.37 166.831C174.545 167.364 171.047 167.807 167.598 167.816C161.661 167.83 161.089 168.049 156.912 171.899C154.176 174.421 152.26 177.176 151.871 179.149C151.525 180.899 150.342 184.635 149.242 187.452C148.029 190.56 147.366 194.258 147.556 196.86L147.87 201.148L156.369 201.348C161.043 201.458 166.218 201.133 167.869 200.626C169.52 200.118 174.695 199.301 179.37 198.81C193.397 197.337 202.09 196.122 203.106 195.494C203.634 195.168 206.947 194.846 210.468 194.778C213.989 194.71 217.675 194.434 218.659 194.163C220.467 193.666 226.37 182.481 226.37 179.552C226.37 178.679 225.358 177.682 224.12 177.336C222.882 176.989 220.97 176.328 219.87 175.867C218.77 175.405 214.27 174.262 209.87 173.326C201.781 171.606 194.525 169.709 186.442 167.204C181.268 165.6 177.473 165.472 175.37 166.831ZM205.37 202.032C201.166 203.229 182.218 205.504 166.37 206.715C160.045 207.198 153.497 208.039 151.819 208.585C150.14 209.131 142.079 209.565 133.904 209.55L119.041 209.522L115.706 213.162C111.73 217.5 111.483 220.204 114.861 222.417C120.396 226.044 144.754 227.342 162.37 224.95C170.879 223.794 178.03 223.249 209.87 221.329C214.82 221.03 220.67 220.287 222.87 219.676C230.055 217.683 238.792 212.919 242.743 208.841L246.617 204.844L242.243 202.859C235.089 199.613 224.86 200.413 223.368 204.335C222.487 206.653 219.35 208.055 217.543 206.938C216.967 206.582 216.028 205.062 215.457 203.561C214.314 200.555 211.864 200.183 205.37 202.032ZM206.956 227.581C206.545 227.994 199.382 228.641 191.039 229.019C173.393 229.819 159.256 231.246 154.56 232.7C152.74 233.264 147.219 233.688 142.291 233.641C128.728 233.513 128.52 233.882 127.711 259.47L127.232 274.609L131.705 279.646C134.166 282.416 136.471 286.016 136.829 287.646C137.187 289.276 139.031 292.021 140.925 293.745C142.82 295.469 144.37 297.565 144.37 298.403C144.37 301.414 154.172 308.855 162.37 312.066C165.899 313.449 169.861 313.83 180.726 313.83C194.315 313.831 194.62 313.783 196.549 311.331C197.63 309.956 199.151 308.831 199.928 308.831C200.706 308.831 202.481 307.109 203.873 305.005C205.266 302.901 208.085 300.234 210.138 299.078C218.216 294.528 221.714 287.832 216.013 287.83C214.834 287.83 211.166 286.55 207.862 284.987C204.558 283.424 197.321 280.949 191.781 279.488C183.101 277.199 179.706 276.831 167.239 276.831C152.095 276.831 150.374 276.377 150.366 272.381C150.364 271.254 149.464 268.858 148.366 267.057C145.791 262.832 145.845 261.132 148.585 260.263C150.377 259.694 151.496 260.367 154.437 263.782L158.074 268.005L184.732 267.881L211.39 267.758L215.718 270.295C221.066 273.429 223.882 273.505 225.807 270.567C226.979 268.779 227.307 264.313 227.37 249.317C227.414 238.875 227.432 229.543 227.41 228.581C227.375 227.036 226.22 226.831 217.537 226.831C212.128 226.831 207.367 227.168 206.956 227.581ZM273.37 236.831C270.895 237.87 267.927 238.744 266.775 238.775C265.623 238.806 261.91 240.621 258.525 242.809C252.453 246.734 252.37 246.849 252.37 251.39C252.37 255.745 252.023 256.326 245.934 262.162C238.817 268.983 237.803 271.32 241.02 273.491C243.04 274.855 243.509 274.606 248.77 269.387C251.85 266.331 254.803 263.831 255.331 263.831C257.702 263.831 260.37 259.322 260.37 255.317C260.37 249.861 262.947 247.505 271.895 244.782C280.413 242.19 283.071 240.009 281.435 236.953C280.069 234.4 279.194 234.387 273.37 236.831ZM153.57 237.031C151.058 239.543 152.928 243.831 156.535 243.831C157.505 243.831 158.801 242.894 159.415 241.748C160.304 240.086 160.179 239.277 158.795 237.748C156.796 235.539 155.271 235.33 153.57 237.031ZM203.57 237.031C200.767 239.834 203.494 244.561 207.23 243.376C210.006 242.494 210.705 239.859 208.739 237.686C206.793 235.536 205.259 235.342 203.57 237.031ZM230.596 286.01C231.107 287.543 236.249 287.817 236.62 286.331C236.757 285.781 235.359 285.186 233.513 285.01C231.078 284.777 230.277 285.051 230.596 286.01ZM697.591 287.582C695.065 287.875 693.745 288.861 691.841 291.877C690.482 294.03 689.37 296.939 689.37 298.343C689.37 299.746 688.728 301.14 687.943 301.441C687.158 301.743 685.554 304.036 684.377 306.539C682.491 310.551 682.308 312.225 682.821 320.71C683.141 326.001 683.754 338.206 684.184 347.831C684.65 358.26 685.512 366.745 686.318 368.831C687.061 370.756 687.984 373.231 688.37 374.331C688.756 375.431 689.663 377.906 690.388 379.831C691.112 381.756 691.873 387.601 692.08 392.821C692.362 399.946 692.943 403.137 694.413 405.628C695.583 407.611 696.37 410.775 696.37 413.494C696.37 416.887 697.005 418.797 698.87 421.013C701.132 423.701 701.373 424.859 701.405 433.158C701.429 439.218 701.926 443.179 702.87 444.831C703.656 446.206 704.315 449.417 704.335 451.966C704.363 455.712 704.823 456.898 706.731 458.148C708.03 458.999 709.369 461.076 709.707 462.764C710.044 464.452 711.654 467.295 713.285 469.082C719.803 476.226 721.37 478.164 721.37 479.083C721.37 479.61 722.495 481.379 723.87 483.013C726.183 485.762 726.37 486.756 726.37 496.293C726.37 506.185 726.269 506.667 723.87 508.239C722.495 509.14 721.37 510.805 721.37 511.94C721.37 514.451 711.55 533.831 710.277 533.831C709.011 533.831 709.102 566.547 710.37 567.331C710.92 567.671 711.37 571.15 711.37 575.061C711.37 583.189 713.149 586.555 716.496 584.764C718.144 583.882 718.37 582.504 718.37 573.355C718.37 567.496 717.933 562.679 717.37 562.331C716.801 561.979 716.37 556.952 716.37 550.666C716.37 540.342 716.534 539.425 718.87 536.649C720.245 535.015 721.37 533.092 721.37 532.375C721.37 531.659 722.945 528.458 724.87 525.261C726.795 522.064 728.37 518.482 728.37 517.3C728.37 515.979 729.333 514.713 730.87 514.013C733.342 512.887 733.37 512.734 733.37 500.411C733.37 488.037 734.007 485.483 736.379 488.342C737.059 489.161 738.042 489.831 738.563 489.831C739.085 489.831 741.646 491.631 744.255 493.831C746.864 496.031 749.47 497.831 750.045 497.831C750.621 497.831 752.167 499.969 753.481 502.581C754.795 505.193 756.207 507.481 756.62 507.664C757.033 507.848 757.37 508.635 757.37 509.414C757.37 510.193 758.301 511.762 759.439 512.9C761.364 514.825 761.677 514.86 763.904 513.4C765.222 512.537 766.54 511.831 766.835 511.831C767.722 511.831 767.436 526.725 766.513 528.595C766.041 529.55 764.916 531.75 764.013 533.485C763.109 535.22 762.37 538.483 762.37 540.735C762.37 543.498 761.719 545.482 760.37 546.831C759.27 547.931 758.37 549.627 758.37 550.599C758.37 551.571 757.245 554.022 755.87 556.046C753.547 559.465 753.37 560.573 753.37 571.719C753.37 578.636 753.793 583.975 754.37 584.331C755.698 585.152 755.65 592.439 754.301 594.961C752.845 597.68 754.738 599.831 758.586 599.831C760.716 599.831 761.705 599.265 762.08 597.831C762.624 595.751 765.793 595.089 766.87 596.831C767.736 598.232 774.719 598.082 776.17 596.631C777.043 595.758 777.37 588.219 777.37 568.975V542.52L779.87 539.242C781.245 537.439 782.37 535.54 782.37 535.02C782.37 534.501 783.08 533.487 783.948 532.766C784.816 532.046 786.607 529.324 787.927 526.718C789.248 524.111 791.238 521.69 792.349 521.338C794.578 520.63 795.243 515.488 793.263 514.265C790.281 512.422 796.984 511.86 822.151 511.846C846.472 511.833 849.501 512.008 850.059 513.463C850.404 514.361 850.165 515.93 849.528 516.95C848.843 518.047 848.37 523.073 848.37 529.258C848.37 535.149 847.933 539.983 847.37 540.331C846.82 540.671 846.367 542.385 846.364 544.14C846.36 545.895 845.685 548.62 844.864 550.195C844.042 551.771 843.37 555.467 843.37 558.41C843.37 562.804 843.741 563.959 845.448 564.873C848.698 566.612 850.366 565.346 850.402 561.112C850.419 559.033 851.094 556.457 851.902 555.39C852.709 554.322 853.37 551.761 853.37 549.699C853.37 547.636 853.82 545.671 854.37 545.331C854.934 544.982 855.37 540.132 855.37 534.206C855.37 528.003 855.855 522.805 856.555 521.515C857.207 520.314 858.002 517.756 858.322 515.831C858.886 512.438 859.041 512.331 863.387 512.331H867.87V533.831V555.331L862.382 555.642C857.355 555.926 853.37 557.815 853.37 559.915C853.37 562.122 856.866 563.831 861.382 563.831C864.061 563.831 866.53 564.281 866.87 564.831C867.729 566.221 872.716 566.085 874.17 564.631C875.039 563.762 875.37 556.594 875.37 538.666C875.37 515.205 875.472 513.847 877.304 512.866C879.37 511.76 921.016 511.374 923.781 512.435C925.691 513.168 925.13 516.122 921.723 523.268C920.037 526.805 919.37 529.961 919.37 534.396C919.37 537.801 918.695 542.202 917.87 544.177C916.109 548.392 915.77 567.842 917.405 570.897C918.322 572.61 919.577 572.831 928.405 572.831C939.723 572.831 940.503 572.111 935.919 565.897C933.474 562.584 933.468 562.512 933.5 538.382C933.517 525.075 933.844 513.682 934.227 513.063C934.609 512.444 937.831 511.801 941.386 511.635C946.6 511.39 947.914 510.993 948.183 509.583C948.53 507.762 946.257 504.831 944.499 504.831C943.941 504.831 941.851 503.868 939.856 502.69C937.86 501.513 934.797 500.257 933.049 499.899C931.3 499.542 930.003 498.817 930.166 498.29C930.504 497.197 934.89 497.485 937.87 498.796C938.97 499.28 941.078 499.936 942.553 500.256C944.029 500.575 945.522 501.735 945.871 502.833C946.242 504.002 947.384 504.831 948.623 504.831C949.788 504.831 951.67 505.674 952.806 506.705C953.941 507.736 957.12 509.805 959.87 511.304C962.62 512.803 965.58 514.66 966.449 515.43C967.317 516.201 968.892 516.84 969.949 516.85C971.005 516.861 973.67 518.458 975.87 520.401C978.07 522.343 981.042 524.178 982.475 524.478C983.908 524.778 986.608 526.346 988.475 527.962C990.342 529.579 992.963 531.448 994.298 532.116C995.633 532.784 998.13 535.333 999.847 537.781C1001.63 540.319 1005.03 543.365 1007.77 544.873C1010.41 546.326 1013.68 548.937 1015.04 550.673C1016.46 552.479 1018.45 553.836 1019.69 553.843C1020.89 553.85 1023.8 554.956 1026.15 556.301C1028.5 557.646 1031.09 558.491 1031.91 558.179C1033.94 557.398 1034.86 553.125 1033.38 551.339C1031.81 549.446 1026.56 546.831 1024.33 546.831C1023.38 546.831 1021.92 545.796 1021.09 544.532C1020.27 543.267 1017.63 541.358 1015.23 540.289C1010.8 538.315 1007.46 535.277 1007.4 533.17C1007.36 531.753 1001.67 526.838 1000.04 526.814C999.398 526.804 997.81 525.679 996.515 524.314C995.22 522.948 993.602 521.831 992.92 521.831C992.238 521.831 990.876 520.942 989.893 519.857C988.91 518.771 987.153 517.591 985.988 517.235C984.823 516.88 981.731 515.068 979.118 513.21C976.504 511.352 973.676 509.831 972.833 509.831C970.652 509.831 966.281 506.784 966.938 505.722C967.721 504.454 999.723 504.584 1001 505.86C1001.64 506.496 1007.52 506.782 1016.44 506.61C1029.56 506.356 1030.88 506.165 1031.2 504.475C1032.01 500.282 1029.76 499.962 986.166 498.06C975.007 497.573 969.049 496.916 968.216 496.081C967.419 495.281 963.976 494.831 958.656 494.831C954.084 494.831 949.561 494.441 948.606 493.965C945.522 492.427 939.948 490.614 936.87 490.149C935.22 489.899 932.97 489.296 931.87 488.808C929.458 487.738 922.237 487.005 904.668 486.049C896.325 485.595 891.007 484.871 890.218 484.081C889.532 483.394 887.287 482.831 885.229 482.831C883.171 482.831 881.21 482.381 880.87 481.831C880.53 481.281 877.691 480.815 874.561 480.796C871.431 480.776 867.745 480.117 866.37 479.331C864.995 478.545 862.626 477.886 861.106 477.866C859.586 477.847 857.561 477.441 856.606 476.965C852.981 475.157 847.727 473.544 843.936 473.074C841.772 472.805 838.086 471.516 835.743 470.208C833.401 468.901 830.762 467.831 829.878 467.831C827.589 467.831 822.053 464.816 822.858 464.007C823.229 463.635 834.408 463.028 847.701 462.658C872.16 461.977 887.009 460.893 888.913 459.65C889.487 459.275 895.241 458.863 901.699 458.734C909.473 458.578 914.021 458.059 915.156 457.197C916.473 456.196 923.773 455.887 946.645 455.863L976.42 455.831L977.411 453.223C978.262 450.986 978.861 450.684 981.636 451.098C985.347 451.651 990.082 453.292 995.983 456.069C998.245 457.134 1001.8 458.162 1003.87 458.355C1005.95 458.548 1008.12 459.184 1008.71 459.769C1009.29 460.353 1010.78 460.831 1012.01 460.831C1013.24 460.831 1014.53 461.281 1014.87 461.831C1015.21 462.381 1017.15 462.847 1019.18 462.866C1021.21 462.886 1024 463.545 1025.37 464.331C1026.75 465.117 1029.3 465.776 1031.04 465.796C1032.93 465.817 1035.42 466.846 1037.19 468.331C1038.82 469.706 1040.8 470.831 1041.58 470.831C1042.36 470.831 1045.33 471.956 1048.18 473.331C1051.03 474.706 1054.43 475.831 1055.73 475.831C1057.04 475.831 1061.18 477.406 1064.94 479.331C1069.56 481.699 1073.14 482.831 1076 482.831C1079.04 482.831 1081.05 483.528 1083.19 485.331C1085.14 486.972 1087.38 487.831 1089.72 487.831C1093.81 487.831 1095.81 490.151 1094.1 492.899C1093.29 494.196 1093.55 495.467 1095.2 498.271C1096.4 500.292 1097.37 502.845 1097.37 503.946C1097.37 505.046 1098.5 507.961 1099.87 510.424C1101.37 513.116 1102.37 516.496 1102.37 518.899C1102.37 521.097 1103.05 524.511 1103.87 526.485C1104.7 528.46 1105.37 531.794 1105.37 533.894C1105.37 535.994 1105.82 537.991 1106.37 538.331C1107.74 539.176 1107.67 559.133 1106.29 560.509C1105.7 561.102 1105.36 562.88 1105.54 564.459C1105.8 566.718 1106.44 567.396 1108.52 567.638C1113.02 568.159 1114.37 563.794 1114.37 548.736C1114.37 541.29 1113.95 535.691 1113.37 535.331C1112.82 534.991 1112.37 532.805 1112.37 530.472C1112.37 528.139 1111.89 525.75 1111.3 525.161C1110.71 524.573 1110.02 521.307 1109.75 517.903C1109.48 514.447 1108.41 510.182 1107.32 508.243C1106.25 506.333 1105.35 503.546 1105.34 502.051C1105.32 500.555 1104.66 498.206 1103.87 496.831C1103.08 495.456 1102.43 493.994 1102.41 493.581C1102.39 493.168 1112.18 492.831 1124.18 492.831C1141.81 492.831 1146.36 492.55 1147.93 491.363C1149 490.555 1150.89 489.88 1152.13 489.863C1153.38 489.845 1155.18 489.441 1156.13 488.965C1158.64 487.716 1164.69 485.813 1165.04 486.164C1165.2 486.329 1164.83 487.793 1164.22 489.418C1163.26 491.955 1163.48 493.108 1165.74 497.569C1167.19 500.426 1168.38 504.242 1168.4 506.048C1168.42 507.854 1169.09 510.205 1169.9 511.272C1170.71 512.34 1171.37 514.226 1171.37 515.463C1171.37 516.701 1171.82 517.991 1172.37 518.331C1172.92 518.671 1173.38 520.16 1173.4 521.64C1173.42 523.12 1174.09 525.205 1174.9 526.272C1176.1 527.86 1176.37 532.813 1176.37 553.487C1176.37 577.434 1176.47 578.815 1178.3 579.794C1179.76 580.574 1180.62 580.442 1181.8 579.258C1183.15 577.91 1183.37 573.993 1183.34 551.51C1183.31 530.699 1183.01 524.818 1181.87 522.831C1181.08 521.456 1180.43 519.107 1180.41 517.611C1180.39 516.116 1179.41 513.191 1178.23 511.111C1177.05 509.032 1175.94 505.354 1175.75 502.938C1175.42 498.684 1170.58 486.831 1169.18 486.831C1168.8 486.831 1169.13 485.594 1169.92 484.081C1170.71 482.568 1171.36 480.011 1171.36 478.397C1171.37 473.859 1167.71 467.213 1164.45 465.864C1162.89 465.216 1160.34 463.368 1158.8 461.758C1157.26 460.148 1155.29 458.831 1154.43 458.831C1153.56 458.831 1150.74 457.706 1148.16 456.331C1145.58 454.956 1142.76 453.831 1141.89 453.831C1140.01 453.831 1124.81 446.306 1121.57 443.769C1120.31 442.779 1117.95 441.679 1116.34 441.323C1114.72 440.968 1113.11 440.223 1112.77 439.669C1112.43 439.115 1112.22 433.632 1112.3 427.486C1112.42 418.903 1112.08 415.55 1110.82 413.03C1109.48 410.341 1109.28 407.611 1109.7 397.885C1110.17 387.118 1110.47 385.642 1112.93 381.926C1114.42 379.674 1115.98 377.831 1116.39 377.831C1116.81 377.831 1118.82 376.347 1120.86 374.533C1125 370.841 1125.5 366.659 1121.87 365.974C1120.77 365.767 1118.23 364.118 1116.22 362.31C1109.88 356.59 1102.08 353.973 1089.57 353.368C1083.06 353.053 1079.34 352.348 1076.47 350.88C1073.35 349.29 1070.54 348.831 1063.94 348.831C1058.97 348.831 1054.08 348.259 1052.15 347.451C1044.96 344.43 1041.25 343.831 1029.67 343.831C1016.2 343.831 1014.65 344.514 1015.24 350.206C1015.63 353.984 1017 355.831 1019.42 355.831C1020.41 355.831 1024.25 357.406 1027.94 359.331C1033.24 362.092 1035.84 362.838 1040.26 362.863C1043.6 362.882 1046.66 363.489 1047.81 364.363C1048.88 365.17 1050.77 365.831 1052 365.831C1053.24 365.831 1054.53 366.281 1054.87 366.831C1055.21 367.385 1059.75 367.831 1065.03 367.831C1074.25 367.831 1074.82 367.965 1082.49 371.953C1087.94 374.788 1090.13 376.428 1089.51 377.203C1089.01 377.824 1088.3 379.747 1087.93 381.477C1087.56 383.208 1086.38 385.415 1085.31 386.382C1083.77 387.775 1083.37 389.473 1083.37 394.552C1083.37 398.078 1082.81 401.945 1082.12 403.147C1081.34 404.511 1080.68 411.148 1080.37 420.831L1079.87 436.331L1076.47 436.656C1073.21 436.967 1071.71 436.426 1061.24 431.161C1058.69 429.879 1055.95 428.831 1055.15 428.831C1054.36 428.831 1051.5 427.708 1048.79 426.335C1046.08 424.962 1043.17 423.837 1042.32 423.835C1041.47 423.833 1037.87 422.266 1034.32 420.354C1028.69 417.316 1026.96 416.874 1020.68 416.854C1016.72 416.841 1013.21 416.381 1012.87 415.831C1012.53 415.281 1010.9 414.831 1009.25 414.831C1007.59 414.831 1005.26 414.275 1004.05 413.594C1002.85 412.914 998.72 412.127 994.87 411.844L987.87 411.331L987.581 402.556C987.362 395.912 987.665 393.248 988.831 391.584C989.677 390.375 990.37 388.388 990.37 387.168C990.37 385.947 990.82 384.671 991.37 384.331C991.92 383.991 992.37 382.666 992.37 381.387C992.37 380.009 993.389 378.393 994.87 377.423C996.245 376.522 997.37 374.947 997.37 373.922C997.37 372.898 998.042 370.771 998.864 369.195C999.685 367.62 1000.36 365.584 1000.36 364.671C1000.37 363.758 1002.4 361.081 1004.87 358.722C1009.51 354.299 1010.37 351.904 1008.01 349.946C1006.27 348.502 1000.79 350.656 997.718 353.994C995.191 356.739 990.37 366.482 990.37 368.844C990.37 369.745 989.245 371.539 987.87 372.831C986.495 374.123 985.37 375.725 985.37 376.391C985.37 377.057 984.698 378.891 983.876 380.467C983.055 382.042 982.38 384.092 982.376 385.022C982.373 385.952 981.92 386.991 981.37 387.331C980.29 387.998 979.941 414.551 980.977 417.249C981.45 418.482 983.12 418.831 988.543 418.831C992.37 418.831 996.484 419.364 997.686 420.015C999.965 421.251 1006.04 422.622 1012.87 423.44C1015.07 423.703 1017.94 424.148 1019.26 424.428L1021.64 424.937L1018.82 427.884C1015.98 430.852 1013.01 431.682 1011.87 429.831C1011.53 429.281 1009.51 428.831 1007.37 428.831C1005.24 428.831 1003.21 428.381 1002.87 427.831C1002.53 427.281 998.99 426.831 995.002 426.831C990.176 426.831 987.103 426.34 985.811 425.363C982.763 423.057 979.148 423.555 971.507 427.331C967.612 429.256 963.941 430.831 963.349 430.831C962.758 430.831 960.411 429.931 958.134 428.831C955.857 427.731 953.471 426.831 952.831 426.831C952.191 426.831 949.552 425.706 946.966 424.331C944.331 422.93 940.597 421.831 938.471 421.831C934.243 421.831 928.036 419.181 928.919 417.753C929.232 417.246 930.219 416.831 931.113 416.831C933.296 416.831 940.909 413.091 942.412 411.281C943.073 410.483 945.022 409.815 946.742 409.796C948.463 409.776 950.995 409.117 952.37 408.331C953.961 407.421 957.856 406.889 963.085 406.866C970.071 406.836 971.45 406.551 972.303 404.957C973.07 403.522 972.866 402.685 971.431 401.386C969.859 399.964 968.046 399.767 960.213 400.168C946.807 400.854 939.755 402.146 937.148 404.394C933.83 407.254 928.849 409.831 926.64 409.831C925.583 409.831 923.662 410.956 922.37 412.331C920.631 414.183 918.993 414.831 916.056 414.831C911.057 414.831 908.658 417.373 911.101 420.081C911.999 421.076 914.105 421.831 915.986 421.831C917.887 421.831 920.052 422.615 921.081 423.676C923.889 426.573 929.324 428.831 933.49 428.831C937.359 428.831 944.37 431.528 944.37 433.016C944.37 433.464 928.058 433.847 908.12 433.866C878.578 433.895 871.407 434.166 869.37 435.331C867.628 436.327 863.501 436.771 855.752 436.796L844.634 436.831L835.851 441.313C831.02 443.778 826.313 446.478 825.39 447.313C824.315 448.285 821.724 448.831 818.178 448.831C813.567 448.831 812.214 449.26 810.072 451.401C806.727 454.747 804.508 453.649 799.829 446.334C797.939 443.38 795.938 440.682 795.382 440.338C794.825 439.994 794.37 437.94 794.37 435.772V431.831H801.969C806.917 431.831 810.841 431.252 813.219 430.171C817.438 428.252 823.37 423.011 823.37 421.202C823.37 420.522 824.234 419.691 825.291 419.356C827.416 418.682 831.37 411.854 831.37 408.859C831.37 407.809 831.82 406.671 832.37 406.331C832.92 405.991 833.386 403.602 833.405 401.022C833.425 398.442 834.084 395.206 834.87 393.831C835.732 392.323 836.313 388.479 836.335 384.14C836.354 380.185 836.82 376.671 837.37 376.331C837.941 375.978 838.37 370.883 838.37 364.459V353.205L835.269 350.268C833.564 348.653 831.773 346.313 831.289 345.069C830.806 343.824 829.25 342.278 827.831 341.631C826.413 340.985 823.672 338.966 821.74 337.144C819.808 335.322 817.537 333.831 816.693 333.831C815.849 333.831 814.273 332.706 813.191 331.331C812.11 329.956 810.716 328.831 810.095 328.831C809.474 328.831 807.594 327.54 805.918 325.963C804.241 324.385 800.255 321.685 797.058 319.963C792.155 317.32 790.172 316.831 784.367 316.831C780.584 316.831 777.21 317.281 776.87 317.831C776.53 318.381 774.557 318.831 772.485 318.831C769.76 318.831 768.069 319.522 766.37 321.331C765.078 322.706 763.461 323.831 762.777 323.831C762.092 323.831 760.083 325.368 758.311 327.246C756.54 329.124 753.691 330.926 751.98 331.25C748.709 331.87 733.37 345.88 733.37 348.248C733.37 348.927 732.245 350.539 730.87 351.831C728.69 353.879 728.37 355.029 728.37 360.827C728.37 365.341 727.756 368.735 726.455 371.402L724.54 375.331L723.877 372.331C723.513 370.681 722.781 368.427 722.252 367.322C721.198 365.121 721.715 330.138 723.057 312.831C723.505 307.056 724.44 301.337 725.134 300.121C726.269 298.136 726.089 297.683 723.357 295.663C721.684 294.426 720.522 292.877 720.774 292.22C721.026 291.563 720.653 290.233 719.945 289.265C718.9 287.835 716.986 287.476 709.764 287.353C704.872 287.269 699.395 287.372 697.591 287.582ZM698.12 297.918C697.158 299.609 696.37 302.009 696.37 303.252C696.37 304.69 695.462 305.923 693.87 306.649C692.189 307.415 691.37 308.594 691.37 310.251C691.37 311.605 690.92 312.991 690.37 313.331C689.82 313.671 689.37 316.371 689.37 319.331C689.37 322.291 689.82 324.991 690.37 325.331C690.97 325.702 691.384 332.631 691.405 342.64C691.432 355.223 691.793 359.946 692.87 361.831C693.656 363.206 694.315 365.583 694.335 367.114C694.354 368.645 695.495 372.118 696.87 374.831C698.958 378.952 699.37 381.176 699.37 388.331C699.37 395.486 699.782 397.71 701.87 401.831C703.362 404.775 704.37 408.466 704.37 410.983C704.37 413.983 705.02 415.894 706.62 417.595C708.571 419.671 708.915 421.273 709.207 429.66C709.392 434.979 709.954 439.759 710.457 440.281C710.959 440.804 711.37 443.339 711.37 445.916C711.37 449.81 711.792 450.878 713.87 452.239C715.432 453.262 716.37 454.814 716.37 456.374C716.37 459.4 719.889 465.16 724.466 469.627C727.323 472.415 728.461 472.877 731.848 472.627C737.319 472.223 737.481 469.991 732.434 464.516C729.957 461.829 728.37 459.138 728.37 457.624C728.37 456.258 727.446 454.305 726.317 453.283C725.188 452.261 722.938 448.56 721.317 445.058C718.537 439.052 718.37 437.963 718.37 425.82C718.37 418.318 717.953 412.691 717.37 412.331C716.76 411.954 716.37 404.299 716.37 392.706C716.37 380.741 715.961 372.934 715.265 371.634C713.82 368.934 713.904 319.897 715.356 318.445C715.914 317.887 716.37 313.048 716.37 307.69C716.37 302.275 716.814 297.675 717.37 297.331C720.132 295.624 717.51 294.832 709.12 294.837L699.87 294.844L698.12 297.918ZM781.82 324.747C781.298 325.251 779.096 325.937 776.928 326.272C772.054 327.025 771.635 327.424 773.158 329.863C774.909 332.667 774.653 334.609 772.37 335.831C770.669 336.741 770.37 337.925 770.37 343.744C770.37 351.224 771.149 352.512 776.772 354.33C778.837 354.997 781.111 357.166 783.589 360.831C787.294 366.308 787.309 366.374 787.339 376.907C787.368 386.914 787.236 387.609 784.87 389.831C783.434 391.18 782.37 393.298 782.37 394.805C782.37 398.995 780.668 399.831 772.13 399.831C763.266 399.831 758.873 398.149 753.567 392.721C750.877 389.97 750.37 388.697 750.37 384.693C750.37 381.003 749.809 379.328 747.87 377.236C746.449 375.703 745.37 373.338 745.37 371.758C745.37 369.982 746.274 368.265 747.87 367.01C749.245 365.928 750.37 364.305 750.37 363.402C750.37 362.499 751.067 360.697 751.918 359.398C753.027 357.706 753.381 355.094 753.168 350.194C752.787 341.442 751.063 340.781 745.071 347.088C736.952 355.636 735.37 358.557 735.37 365.006C735.37 368.224 734.975 371.64 734.493 372.595C731.251 379.012 730.131 391.388 732.299 396.831C733.866 400.763 737.168 404.83 738.794 404.832C739.386 404.833 741.177 405.958 742.776 407.332C744.374 408.707 746.231 409.831 746.903 409.831C747.575 409.831 748.718 410.546 749.443 411.419C750.168 412.293 754.714 414.993 759.546 417.419C767.22 421.273 769.147 421.831 774.791 421.831C778.345 421.831 781.53 422.281 781.87 422.831C782.655 424.101 806.77 424.166 809.134 422.904C810.089 422.394 811.587 421.76 812.462 421.496C813.338 421.231 814.819 419.404 815.753 417.436C816.687 415.468 818.333 413.386 819.411 412.809C821.774 411.545 821.983 409.831 819.774 409.831C818.897 409.831 816.984 409.213 815.524 408.458C814.064 407.704 811.07 406.526 808.87 405.841C806.67 405.157 803.745 403.575 802.37 402.326C800.995 401.077 798.857 399.75 797.62 399.376C795.341 398.687 794.876 397.283 795.977 394.413C796.789 392.297 803.668 392.281 805.42 394.391C807.038 396.341 814.152 399.831 816.508 399.831C817.478 399.831 818.702 399.06 819.229 398.118C819.757 397.176 821.466 396.352 823.029 396.286C825.393 396.188 825.925 395.677 826.197 393.249C826.377 391.644 826.939 389.903 827.447 389.381C827.955 388.858 828.37 385.457 828.37 381.822C828.37 377.559 828.891 374.524 829.838 373.272C830.789 372.015 831.318 368.909 831.338 364.454L831.37 357.577L822.71 349.204C817.715 344.375 813.201 340.831 812.046 340.831C810.944 340.831 807.004 338.131 803.291 334.831C799.578 331.531 796.247 328.831 795.888 328.831C795.53 328.831 793.762 327.706 791.959 326.331C788.673 323.824 783.599 323.032 781.82 324.747ZM1033.01 351.527C1032.62 351.91 1033.98 353.035 1036.02 354.027C1039.9 355.913 1047.85 356.478 1048.81 354.936C1049.51 353.793 1047.02 352.831 1043.35 352.831C1041.78 352.831 1040.21 352.381 1039.87 351.831C1039.17 350.696 1034.07 350.47 1033.01 351.527ZM1052.37 356.758C1052.37 357.348 1053.4 357.831 1054.65 357.831C1055.9 357.831 1057.92 358.526 1059.13 359.375C1060.74 360.504 1063.29 360.84 1068.6 360.625C1081.41 360.107 1075.77 356.924 1060.62 356.121C1055.14 355.831 1052.37 356.044 1052.37 356.758ZM1081.94 361.717C1081.64 362.205 1082.36 362.856 1083.54 363.165C1086.47 363.932 1098.37 362.746 1098.37 361.686C1098.37 360.55 1082.64 360.579 1081.94 361.717ZM772.923 363.746C772.601 364.267 772.764 364.956 773.285 365.278C773.806 365.6 774.495 365.437 774.817 364.916C775.139 364.395 774.976 363.706 774.455 363.384C773.934 363.062 773.245 363.225 772.923 363.746ZM811.593 364.388C808.748 366.38 808.796 366.985 812.056 370.244C814.024 372.213 815.56 372.85 817.806 372.63C822.174 372.204 822.423 368.895 818.345 365.464C814.68 362.38 814.5 362.351 811.593 364.388ZM257.57 367.031C255.804 368.797 256.016 374.831 257.844 374.831C259.649 374.831 262.72 369.186 261.974 367.241C261.312 365.515 259.187 365.414 257.57 367.031ZM760.37 367.831C760.37 368.931 760.82 369.831 761.37 369.831C761.92 369.831 762.37 368.931 762.37 367.831C762.37 366.731 761.92 365.831 761.37 365.831C760.82 365.831 760.37 366.731 760.37 367.831ZM791.57 367.031C789.579 369.022 790.178 371.745 792.749 372.39C799.016 373.963 803.415 371 800.33 367.283C798.873 365.527 793.236 365.365 791.57 367.031ZM1099.62 370.507C1097.66 370.911 1097.37 371.594 1097.37 375.842C1097.37 378.521 1096.92 380.991 1096.37 381.331C1095.82 381.671 1095.37 383.194 1095.37 384.716C1095.37 386.374 1094.37 388.423 1092.87 389.831C1090.64 391.924 1090.37 392.982 1090.37 399.54C1090.37 404.244 1089.85 407.701 1088.93 409.116C1087.93 410.67 1087.55 413.869 1087.68 419.831L1087.87 428.331L1090.87 428.658C1092.52 428.838 1095.12 430.172 1096.65 431.623C1099.33 434.167 1099.52 434.202 1102.15 432.614C1104.46 431.217 1104.92 430.191 1105.18 425.809C1105.38 422.382 1104.96 419.852 1103.93 418.275C1102.67 416.358 1102.37 412.561 1102.37 398.521C1102.37 382.39 1102.51 381.01 1104.38 379.324C1106.26 377.62 1109.68 371.804 1109.12 371.258C1108.48 370.633 1101.64 370.092 1099.62 370.507ZM246.404 378.727C244.874 383.364 245.525 385.831 248.28 385.831C251.144 385.831 251.66 384.307 250.228 380.075C248.358 374.546 247.844 374.365 246.404 378.727ZM267.37 376.331C267.37 376.606 267.595 376.831 267.87 376.831C268.145 376.831 268.37 376.606 268.37 376.331C268.37 376.056 268.145 375.831 267.87 375.831C267.595 375.831 267.37 376.056 267.37 376.331ZM772.923 380.746C772.601 381.267 772.764 381.956 773.285 382.278C773.806 382.6 774.495 382.437 774.817 381.916C775.139 381.395 774.976 380.706 774.455 380.384C773.934 380.062 773.245 380.225 772.923 380.746ZM244.153 393.022C243.209 393.742 242.133 396.284 241.761 398.671L241.086 403.01L252.478 402.671C262.234 402.38 264.58 401.972 268.813 399.831C273.89 397.263 276.408 394.538 275.004 393.129C274.567 392.69 267.833 392.192 260.04 392.022C249.507 391.792 245.429 392.049 244.153 393.022ZM723.915 402.973C723.46 404.671 723.773 406.709 724.789 408.674C725.979 410.976 726.37 414.774 726.37 424.046C726.37 435.668 726.537 436.703 729.34 442.449C730.974 445.797 732.999 449.108 733.84 449.806C734.682 450.505 735.37 452.156 735.37 453.476C735.37 454.886 737.02 457.666 739.37 460.215C741.833 462.887 743.37 465.524 743.37 467.078C743.37 471.567 746.898 472.827 759.585 472.866C767.479 472.891 771.621 473.331 773.37 474.331C775.326 475.449 780.661 475.765 797.87 475.78C810.413 475.792 820.515 475.384 821.37 474.831C822.195 474.298 822.369 473.855 821.758 473.846C821.146 473.838 818.946 472.481 816.87 470.831C814.794 469.181 812.12 467.831 810.929 467.831C809.737 467.831 807.236 466.256 805.37 464.331C803.504 462.406 801.431 460.831 800.763 460.831C800.095 460.831 796.809 456.769 793.46 451.804C788.597 444.595 787.37 441.992 787.37 438.885C787.37 433.367 786.536 431.836 783.513 431.799C782.059 431.782 779.996 431.107 778.929 430.299C777.685 429.358 774.656 428.831 770.497 428.831C764.794 428.831 762.908 428.28 754.939 424.288C749.951 421.79 743.845 418.19 741.37 416.288C738.895 414.387 736.195 412.53 735.37 412.162C732.496 410.881 726.862 405.462 725.747 402.905L724.623 400.331L723.915 402.973ZM1029.62 430.576C1027.83 431.466 1026.37 432.778 1026.37 433.492C1026.37 434.868 1033.31 438.831 1035.72 438.831C1036.5 438.831 1038.43 439.503 1040.01 440.325C1041.58 441.146 1044.24 441.821 1045.92 441.825C1050.37 441.834 1051.37 443.438 1051.37 450.597C1051.37 457.491 1050.19 460.831 1047.75 460.831C1046.9 460.831 1046.37 461.335 1046.58 461.951C1047.19 463.794 1055.21 467.831 1058.26 467.831C1059.82 467.831 1062.74 468.951 1064.76 470.32C1071.28 474.742 1074.17 475.831 1079.43 475.831C1083.47 475.831 1085.22 476.372 1087.55 478.331C1089.39 479.877 1091.77 480.831 1093.78 480.831C1095.57 480.831 1099.12 481.888 1101.67 483.181C1105.92 485.333 1107.7 485.547 1122.77 485.726C1135.68 485.879 1140.01 485.589 1142.92 484.376C1144.95 483.526 1147.57 482.832 1148.74 482.832C1151.29 482.834 1162.34 477.688 1162.36 476.491C1162.36 476.029 1160.96 474.454 1159.23 472.991C1157.5 471.528 1155.17 469.318 1154.05 468.081C1152.92 466.831 1150.84 465.831 1149.37 465.831C1147.8 465.831 1145.85 464.817 1144.56 463.331C1143.36 461.956 1141.32 460.831 1140.03 460.831C1138.73 460.831 1135.55 459.706 1132.97 458.331C1130.38 456.956 1127.63 455.831 1126.85 455.831C1125.25 455.831 1118.68 452.348 1116.29 450.23C1115.42 449.46 1114.06 448.831 1113.27 448.831C1112.48 448.831 1108.25 447.031 1103.87 444.831C1094.76 440.256 1090.25 439.743 1087.95 443.022C1087.11 444.227 1085.31 445.689 1083.96 446.272L1081.5 447.331L1083.47 451.331C1085.73 455.924 1085.62 458.655 1083.11 460.229C1081.62 461.162 1080.55 460.425 1076.11 455.426C1066.97 445.126 1062.39 440.831 1060.54 440.831C1059.55 440.831 1057.81 439.961 1056.67 438.898C1055.53 437.834 1053 436.665 1051.05 436.299C1049.1 435.932 1046.73 434.778 1045.78 433.732C1044.78 432.629 1042.74 431.831 1040.91 431.831C1039.17 431.831 1036.88 431.17 1035.81 430.363C1033.46 428.584 1033.64 428.578 1029.62 430.576ZM975.04 434.494C973.769 435.765 980.449 438.831 984.49 438.831C987.115 438.831 989.677 439.63 991.702 441.081C996.708 444.668 999.386 445.831 1002.64 445.831C1004.34 445.831 1007.12 446.931 1008.96 448.331C1010.76 449.706 1013.41 450.831 1014.84 450.831C1016.28 450.831 1019.34 451.81 1021.66 453.006C1023.98 454.202 1027.67 455.513 1029.87 455.919C1032.07 456.325 1034.77 456.917 1035.87 457.234C1037.21 457.62 1038.98 456.851 1041.25 454.887C1045.1 451.566 1044.93 448.831 1040.88 448.831C1039.48 448.831 1034.58 447.031 1029.99 444.831C1025.15 442.512 1020.18 440.831 1018.14 440.831C1016.15 440.831 1013.54 439.967 1012.1 438.831C1010.7 437.731 1008.15 436.831 1006.43 436.831C1004.71 436.831 1001.69 436.156 999.716 435.331C996.051 433.8 976.401 433.133 975.04 434.494ZM874.505 442.37C872.233 443.357 867.595 443.831 860.222 443.831C850.558 443.831 848.737 444.118 844.37 446.331C841.657 447.706 838.591 448.831 837.558 448.831C836.525 448.831 834.876 449.72 833.893 450.805C832.91 451.891 831.266 453.047 830.238 453.373C829.211 453.699 828.37 454.403 828.37 454.938C828.37 455.55 835.874 455.747 848.62 455.47C870.603 454.992 881.64 453.956 885.054 452.05C886.434 451.28 891.662 450.831 899.245 450.831C906.171 450.831 911.514 450.408 911.87 449.831C912.252 449.213 921.027 448.831 934.87 448.831C948.08 448.831 957.495 448.438 957.845 447.872C958.47 446.86 956.566 442.842 954.87 441.596C954.32 441.192 936.77 440.872 915.87 440.885C884.786 440.905 877.258 441.175 874.505 442.37ZM755.098 485.005C755.706 489.72 758.706 494.831 760.866 494.831C761.613 494.831 763.045 495.861 764.047 497.119C765.05 498.378 767.3 499.994 769.048 500.711C770.796 501.428 772.47 502.648 772.767 503.423C773.225 504.616 784.664 504.831 847.839 504.831C888.831 504.831 922.369 504.494 922.368 504.081C922.363 502.645 911.817 497.831 908.676 497.831C905.645 497.831 902.37 495.716 902.37 493.76C902.37 493.249 899.085 492.831 895.07 492.831C890.898 492.831 887.277 492.338 886.619 491.68C885.325 490.386 879.028 489.035 869.37 487.98C865.795 487.589 861.887 486.721 860.686 486.05C859.484 485.38 857.212 484.831 855.636 484.831C854.06 484.831 852.33 484.391 851.792 483.853C851.203 483.264 834.738 482.698 810.342 482.427C788.083 482.18 766.421 481.686 762.205 481.329L754.54 480.679L755.098 485.005ZM740.544 503.145C738.623 505.191 738.37 506.579 738.37 515.086C738.37 520.425 738.815 524.988 739.37 525.331C739.92 525.671 740.37 530.017 740.37 534.989C740.37 541.06 740.876 545.095 741.911 547.277C743.027 549.629 743.372 552.98 743.161 559.428L742.87 568.331L732.975 568.831C725.197 569.224 722.855 569.688 722.033 570.997C721.275 572.203 721.349 573.101 722.3 574.247C723.364 575.528 725.868 575.831 735.411 575.831C741.898 575.831 747.918 575.558 748.788 575.224C750.135 574.707 750.37 572.343 750.37 559.283C750.37 550.139 749.966 543.7 749.37 543.331C748.818 542.99 748.356 538.367 748.338 533.022C748.315 526.09 747.888 522.778 746.838 521.39C744.829 518.734 744.921 509.445 746.988 506.291C748.292 504.302 748.365 503.53 747.366 502.326C745.583 500.177 743.046 500.482 740.544 503.145ZM961.703 503.498C962.07 503.864 962.67 503.864 963.037 503.498C963.403 503.131 963.103 502.831 962.37 502.831C961.637 502.831 961.337 503.131 961.703 503.498ZM775.533 513.581C775.033 514.543 774.905 518.481 775.247 522.331L775.87 529.331L777.87 526.449C778.97 524.864 782.022 521.205 784.652 518.318C790.043 512.402 789.75 511.831 781.323 511.831C777.685 511.831 776.209 512.277 775.533 513.581ZM773.37 532.831C773.37 533.564 773.67 533.864 774.037 533.498C774.403 533.131 774.403 532.531 774.037 532.164C773.67 531.798 773.37 532.098 773.37 532.831ZM924.37 555.831C924.37 561.831 924.77 565.831 925.37 565.831C925.97 565.831 926.37 561.831 926.37 555.831C926.37 549.831 925.97 545.831 925.37 545.831C924.77 545.831 924.37 549.831 924.37 555.831ZM765.82 552.507C765.521 553.51 764.135 556.658 762.741 559.503C760.532 564.012 760.267 565.615 760.681 572.003C760.942 576.033 761.549 581.131 762.03 583.331C762.846 587.065 763.136 587.331 766.387 587.331H769.87V569.345C769.87 552.998 769.71 551.328 768.117 551.021C767.087 550.823 766.139 551.436 765.82 552.507Z" fill="black"/>
<path d="M171.83 73.884H179.942L195.438 98.792H195.542V73.884H203.186V111.012H195.022L179.578 86.156H179.474V111.012H171.83V73.884Z" fill="black"/>
<path d="M137.91 92.604C137.91 94.164 138.083 95.6893 138.43 97.18C138.811 98.636 139.4 99.9533 140.198 101.132C140.995 102.311 142.035 103.264 143.318 103.992C144.6 104.685 146.16 105.032 147.998 105.032C149.835 105.032 151.395 104.685 152.678 103.992C153.96 103.264 155 102.311 155.798 101.132C156.595 99.9533 157.167 98.636 157.514 97.18C157.895 95.6893 158.086 94.164 158.086 92.604C158.086 90.9747 157.895 89.3973 157.514 87.872C157.167 86.3467 156.595 84.9947 155.798 83.816C155 82.6027 153.96 81.6493 152.678 80.956C151.395 80.228 149.835 79.864 147.998 79.864C146.16 79.864 144.6 80.228 143.318 80.956C142.035 81.6493 140.995 82.6027 140.198 83.816C139.4 84.9947 138.811 86.3467 138.43 87.872C138.083 89.3973 137.91 90.9747 137.91 92.604ZM129.746 92.604C129.746 89.8307 130.162 87.2653 130.994 84.908C131.826 82.516 133.022 80.436 134.582 78.668C136.142 76.9 138.048 75.5133 140.302 74.508C142.59 73.5027 145.155 73 147.998 73C150.875 73 153.44 73.5027 155.694 74.508C157.947 75.5133 159.854 76.9 161.414 78.668C162.974 80.436 164.17 82.516 165.002 84.908C165.834 87.2653 166.25 89.8307 166.25 92.604C166.25 95.308 165.834 97.8387 165.002 100.196C164.17 102.519 162.974 104.547 161.414 106.28C159.854 108.013 157.947 109.383 155.694 110.388C153.44 111.359 150.875 111.844 147.998 111.844C145.155 111.844 142.59 111.359 140.302 110.388C138.048 109.383 136.142 108.013 134.582 106.28C133.022 104.547 131.826 102.519 130.994 100.196C130.162 97.8387 129.746 95.308 129.746 92.604Z" fill="black"/>
<path d="M103.152 98.688C103.152 99.936 103.377 100.993 103.828 101.86C104.279 102.727 104.868 103.437 105.596 103.992C106.359 104.512 107.243 104.911 108.248 105.188C109.253 105.431 110.293 105.552 111.368 105.552C112.096 105.552 112.876 105.5 113.708 105.396C114.54 105.257 115.32 105.015 116.048 104.668C116.776 104.321 117.383 103.853 117.868 103.264C118.353 102.64 118.596 101.86 118.596 100.924C118.596 99.9187 118.267 99.104 117.608 98.48C116.984 97.856 116.152 97.336 115.112 96.92C114.072 96.504 112.893 96.14 111.576 95.828C110.259 95.516 108.924 95.1693 107.572 94.788C106.185 94.4413 104.833 94.0253 103.516 93.54C102.199 93.02 101.02 92.3613 99.9801 91.564C98.9401 90.7667 98.0908 89.7787 97.4321 88.6C96.8081 87.3867 96.4961 85.9307 96.4961 84.232C96.4961 82.3253 96.8948 80.6787 97.6921 79.292C98.5241 77.8707 99.5988 76.692 100.916 75.756C102.233 74.82 103.724 74.1267 105.388 73.676C107.052 73.2253 108.716 73 110.38 73C112.321 73 114.176 73.2253 115.944 73.676C117.747 74.092 119.341 74.7853 120.728 75.756C122.115 76.7267 123.207 77.9747 124.004 79.5C124.836 80.9907 125.252 82.8107 125.252 84.96H117.348C117.279 83.8507 117.036 82.932 116.62 82.204C116.239 81.476 115.719 80.904 115.06 80.488C114.401 80.072 113.639 79.7773 112.772 79.604C111.94 79.4307 111.021 79.344 110.016 79.344C109.357 79.344 108.699 79.4133 108.04 79.552C107.381 79.6907 106.775 79.9333 106.22 80.28C105.7 80.6267 105.267 81.06 104.92 81.58C104.573 82.1 104.4 82.7587 104.4 83.556C104.4 84.284 104.539 84.8733 104.816 85.324C105.093 85.7747 105.631 86.1907 106.428 86.572C107.26 86.9533 108.387 87.3347 109.808 87.716C111.264 88.0973 113.153 88.5827 115.476 89.172C116.169 89.3107 117.123 89.5707 118.336 89.952C119.584 90.2987 120.815 90.8707 122.028 91.668C123.241 92.4653 124.281 93.54 125.148 94.892C126.049 96.2093 126.5 97.908 126.5 99.988C126.5 101.687 126.171 103.264 125.512 104.72C124.853 106.176 123.865 107.441 122.548 108.516C121.265 109.556 119.653 110.371 117.712 110.96C115.805 111.549 113.587 111.844 111.056 111.844C109.011 111.844 107.017 111.584 105.076 111.064C103.169 110.579 101.471 109.799 99.9801 108.724C98.5241 107.649 97.3628 106.28 96.4961 104.616C95.6294 102.952 95.2134 100.976 95.2481 98.688H103.152Z" fill="black"/>
<path d="M522.037 33.8C520.581 35.672 518.969 36.9893 517.201 37.752C515.433 38.48 513.648 38.844 511.845 38.844C509.003 38.844 506.437 38.3587 504.149 37.388C501.896 36.3827 499.989 35.0133 498.429 33.28C496.869 31.5467 495.673 29.5187 494.841 27.196C494.009 24.8387 493.593 22.308 493.593 19.604C493.593 16.8307 494.009 14.2653 494.841 11.908C495.673 9.516 496.869 7.436 498.429 5.668C499.989 3.9 501.896 2.51333 504.149 1.508C506.437 0.502667 509.003 0 511.845 0C513.752 0 515.589 0.294667 517.357 0.883999C519.16 1.43867 520.772 2.27067 522.193 3.38C523.649 4.48933 524.845 5.85867 525.781 7.488C526.717 9.11733 527.289 10.9893 527.497 13.104H519.697C519.212 11.024 518.276 9.464 516.889 8.424C515.503 7.384 513.821 6.864 511.845 6.864C510.008 6.864 508.448 7.228 507.165 7.956C505.883 8.64933 504.843 9.60267 504.045 10.816C503.248 11.9947 502.659 13.3467 502.277 14.872C501.931 16.3973 501.757 17.9747 501.757 19.604C501.757 21.164 501.931 22.6893 502.277 24.18C502.659 25.636 503.248 26.9533 504.045 28.132C504.843 29.3107 505.883 30.264 507.165 30.992C508.448 31.6853 510.008 32.032 511.845 32.032C514.549 32.032 516.629 31.356 518.085 30.004C519.576 28.6173 520.443 26.624 520.685 24.024H512.469V17.94H528.069V38.012H522.869L522.037 33.8Z" fill="black"/>
<path d="M456.662 0.884033H464.774L480.27 25.792H480.374V0.884033H488.018V38.012H479.854L464.41 13.156H464.306V38.012H456.662V0.884033Z" fill="black"/>
<path d="M441.326 0.884033H449.49V38.012H441.326V0.884033Z" fill="black"/>
<path d="M402.783 0.884033H410.895L426.391 25.792H426.495V0.884033H434.139V38.012H425.975L410.531 13.156H410.427V38.012H402.783V0.884033Z" fill="black"/>
<path d="M364.24 0.884033H372.352L387.848 25.792H387.952V0.884033H395.596V38.012H387.432L371.988 13.156H371.884V38.012H364.24V0.884033Z" fill="black"/>
<path d="M348.904 0.884033H357.068V38.012H348.904V0.884033Z" fill="black"/>
<path d="M335.159 38.012H327.047L320.755 12.74H320.651L314.463 38.012H306.195L296.367 0.884033H304.531L310.407 26.156H310.511L316.959 0.884033H324.603L330.947 26.468H331.051L337.135 0.884033H345.143L335.159 38.012Z" fill="black"/>
<path d="M259.089 23.66H268.709L264.029 10.036H263.925L259.089 23.66ZM259.869 0.884033H268.241L282.125 38.012H273.649L270.841 29.744H256.957L254.045 38.012H245.829L259.869 0.884033Z" fill="black"/>
<path d="M228.524 23.556L214.9 0.884033H224.052L232.736 15.548L241.368 0.884033H250.468L236.688 23.764V38.012H228.524V23.556Z" fill="black"/>
<path d="M170.713 0.884033H198.481V7.74804H178.877V15.704H196.869V22.048H178.877V31.148H198.897V38.012H170.713V0.884033Z" fill="black"/>
<path d="M141.35 17.68H150.294C152.166 17.68 153.57 17.264 154.506 16.432C155.442 15.6 155.91 14.248 155.91 12.376C155.91 10.5734 155.442 9.27337 154.506 8.47603C153.57 7.64403 152.166 7.22803 150.294 7.22803H141.35V17.68ZM133.186 0.884033H153.206C154.87 0.884033 156.36 1.16137 157.678 1.71603C159.03 2.23603 160.174 2.96403 161.11 3.90003C162.08 4.83603 162.808 5.92803 163.294 7.17603C163.814 8.38937 164.074 9.7067 164.074 11.128C164.074 13.312 163.606 15.2014 162.67 16.796C161.768 18.3907 160.278 19.604 158.198 20.436V20.54C159.203 20.8174 160.035 21.2507 160.694 21.84C161.352 22.3947 161.89 23.0707 162.306 23.868C162.722 24.6307 163.016 25.48 163.19 26.416C163.398 27.352 163.536 28.288 163.606 29.224C163.64 29.8134 163.675 30.5067 163.71 31.304C163.744 32.1014 163.796 32.916 163.866 33.748C163.97 34.58 164.108 35.3774 164.282 36.14C164.49 36.868 164.784 37.492 165.166 38.012H157.002C156.551 36.8334 156.274 35.4294 156.17 33.8C156.066 32.1707 155.91 30.6107 155.702 29.12C155.424 27.1787 154.835 25.7574 153.934 24.856C153.032 23.9547 151.559 23.504 149.514 23.504H141.35V38.012H133.186V0.884033Z" fill="black"/>
<path d="M106.948 23.66H116.568L111.888 10.036H111.784L106.948 23.66ZM107.728 0.884033H116.1L129.984 38.012H121.508L118.7 29.744H104.816L101.904 38.012H93.688L107.728 0.884033Z" fill="black"/>
<path d="M881.554 273.688C881.554 274.936 881.78 275.993 882.23 276.86C882.681 277.727 883.27 278.437 883.998 278.992C884.761 279.512 885.645 279.911 886.65 280.188C887.656 280.431 888.696 280.552 889.77 280.552C890.498 280.552 891.278 280.5 892.11 280.396C892.942 280.257 893.722 280.015 894.45 279.668C895.178 279.321 895.785 278.853 896.27 278.264C896.756 277.64 896.998 276.86 896.998 275.924C896.998 274.919 896.669 274.104 896.01 273.48C895.386 272.856 894.554 272.336 893.514 271.92C892.474 271.504 891.296 271.14 889.978 270.828C888.661 270.516 887.326 270.169 885.974 269.788C884.588 269.441 883.236 269.025 881.918 268.54C880.601 268.02 879.422 267.361 878.382 266.564C877.342 265.767 876.493 264.779 875.834 263.6C875.21 262.387 874.898 260.931 874.898 259.232C874.898 257.325 875.297 255.679 876.094 254.292C876.926 252.871 878.001 251.692 879.318 250.756C880.636 249.82 882.126 249.127 883.79 248.676C885.454 248.225 887.118 248 888.782 248C890.724 248 892.578 248.225 894.346 248.676C896.149 249.092 897.744 249.785 899.13 250.756C900.517 251.727 901.609 252.975 902.406 254.5C903.238 255.991 903.654 257.811 903.654 259.96H895.75C895.681 258.851 895.438 257.932 895.022 257.204C894.641 256.476 894.121 255.904 893.462 255.488C892.804 255.072 892.041 254.777 891.174 254.604C890.342 254.431 889.424 254.344 888.418 254.344C887.76 254.344 887.101 254.413 886.442 254.552C885.784 254.691 885.177 254.933 884.622 255.28C884.102 255.627 883.669 256.06 883.322 256.58C882.976 257.1 882.802 257.759 882.802 258.556C882.802 259.284 882.941 259.873 883.218 260.324C883.496 260.775 884.033 261.191 884.83 261.572C885.662 261.953 886.789 262.335 888.21 262.716C889.666 263.097 891.556 263.583 893.878 264.172C894.572 264.311 895.525 264.571 896.738 264.952C897.986 265.299 899.217 265.871 900.43 266.668C901.644 267.465 902.684 268.54 903.55 269.892C904.452 271.209 904.902 272.908 904.902 274.988C904.902 276.687 904.573 278.264 903.914 279.72C903.256 281.176 902.268 282.441 900.95 283.516C899.668 284.556 898.056 285.371 896.114 285.96C894.208 286.549 891.989 286.844 889.458 286.844C887.413 286.844 885.42 286.584 883.478 286.064C881.572 285.579 879.873 284.799 878.382 283.724C876.926 282.649 875.765 281.28 874.898 279.616C874.032 277.952 873.616 275.976 873.65 273.688H881.554Z" fill="black"/>
<path d="M842.271 248.884H870.039V255.748H850.435V263.704H868.427V270.048H850.435V279.148H870.455V286.012H842.271V248.884Z" fill="black"/>
<path d="M817.208 271.556L803.584 248.884H812.736L821.42 263.548L830.052 248.884H839.152L825.372 271.764V286.012H817.208V271.556Z" fill="black"/>
</svg>
