<svg width="1184" height="690" viewBox="0 0 1184 690" fill="none" xmlns="http://www.w3.org/2000/svg">
<path fill-rule="evenodd" clip-rule="evenodd" d="M228.37 48.2133C130.51 48.9213 72.8101 50.0293 68.8701 51.2763C67.7701 51.6243 57.0631 52.1323 45.0761 52.4043C23.8311 52.8863 23.2341 52.9573 21.3551 55.2053C19.4761 57.4543 19.4271 60.4793 19.4141 176.299C19.4051 254.745 19.0561 295.731 18.3851 296.983C17.7591 298.154 17.3701 311.172 17.3701 330.986C17.3701 362.367 17.3191 363.187 15.1201 367.302C12.9031 371.45 12.8601 372.237 12.2101 420.512C11.8471 447.462 11.0541 473.562 10.4481 478.512C9.30906 487.805 8.04307 507.896 6.57007 540.012C5.80207 556.766 5.15706 561.517 3.44306 563.012C2.07206 564.209 -0.431935 573.055 0.0640645 574.951C0.597065 576.986 4.14406 578.587 6.43206 577.825C7.67806 577.409 10.3311 570.599 10.3551 567.752C10.3631 566.784 11.2701 565.222 12.3701 564.28C14.2301 562.687 14.3701 561.33 14.3701 544.855C14.3701 533.496 14.7941 526.132 15.5511 524.327C16.2001 522.779 17.0831 514.087 17.5131 505.012C17.9431 495.937 18.8041 484.462 19.4261 479.512C20.0591 474.472 20.7481 449.191 20.9911 422.06C21.3871 377.99 21.5821 373.435 23.1481 371.707C24.6711 370.026 24.9591 365.91 25.6421 336.159C26.0661 317.653 26.7411 248.287 27.1421 182.012L27.8701 61.5123L47.8331 61.3233C58.8121 61.2193 68.7121 60.7983 69.8331 60.3883C73.8991 58.9003 131.912 57.9193 227.703 57.7183L325.536 57.5123L325.421 76.5123C325.313 94.4303 325.45 95.9243 327.838 102.743L330.37 109.974V261.006V412.037L328.129 419.275C325.931 426.374 325.877 427.786 325.295 493.512C324.922 535.573 324.289 562.724 323.596 566.455C322.988 569.723 322.715 572.761 322.989 573.205C323.264 573.649 324.721 574.012 326.229 574.012C327.737 574.012 329.459 574.501 330.057 575.099C332 577.042 350.374 574.916 356.87 571.997C360.521 570.356 362.824 570.544 367.612 572.874C370.219 574.144 374.719 575.579 377.612 576.064C388.013 577.81 389.312 578.27 393.19 581.59C395.354 583.442 398.13 587.107 399.36 589.735C401.545 594.402 421.928 616.012 424.147 616.012C425.632 616.012 448.793 639.174 451.788 643.655C457.963 652.894 459.384 654.727 463.265 658.465C465.523 660.639 467.37 662.932 467.37 663.56C467.37 664.188 468.229 665.479 469.279 666.429C470.328 667.379 471.742 669.495 472.419 671.131C473.742 674.323 476.404 676.036 484.042 678.609C486.697 679.504 491.259 682.268 494.179 684.752C499.359 689.158 499.674 689.274 507.129 689.539C511.331 689.688 515.787 689.424 517.03 688.951L519.291 688.091L519.349 460.064C519.4 258.579 519.23 231.614 517.892 228.411C516.88 225.988 499.694 208.09 466.028 174.399C438.336 146.686 415.272 124.006 414.774 124C414.277 123.993 411.938 122.193 409.577 120C407.215 117.806 404.88 116.012 404.387 116.012C403.544 116.012 396.736 110.717 391.524 106.009C390.234 104.843 388.209 103.51 387.024 103.047C385.839 102.583 380.37 97.4363 374.87 91.6093C347.415 62.5203 341.577 56.6083 338.12 54.3923C335.436 52.6713 334.37 51.2803 334.37 49.4993C334.37 47.3103 333.98 47.0413 331.12 47.2523C329.332 47.3853 283.095 47.8173 228.37 48.2133ZM335.037 64.6793C334.67 65.0453 334.37 72.1753 334.37 80.5223C334.37 93.1973 334.706 96.6733 336.409 101.605C338.426 107.451 338.447 109.095 338.412 260.012C338.379 398.305 338.22 413.304 336.706 421.012C335.306 428.142 334.919 439.987 334.307 494.512C333.905 530.262 333.418 561.312 333.223 563.512L332.87 567.512L337.37 567.386C343.986 567.201 350.66 565.922 352.37 564.511C354.045 563.129 357.861 562.081 363.923 561.338C367.472 560.904 368.405 561.249 371.423 564.111C373.741 566.309 376.345 567.631 379.37 568.144C393.322 570.51 394.982 571.101 399.203 575.198C401.495 577.422 403.37 579.606 403.37 580.05C403.37 580.495 404.427 582.131 405.718 583.685C407.009 585.24 408.349 587.675 408.695 589.097C409.529 592.519 418.069 600.951 427.37 607.537C434.795 612.795 441.241 618.86 443.042 622.284C443.555 623.259 447.365 627.534 451.508 631.784C455.652 636.034 460.669 642.002 462.659 645.045C464.648 648.088 468.154 652.588 470.45 655.045C472.746 657.502 476.052 661.515 477.796 663.963C480.219 667.364 482.136 668.812 485.919 670.098C488.642 671.025 493.065 673.722 495.747 676.092C499.956 679.812 501.256 680.41 505.247 680.457L509.87 680.512L510.122 457.064C510.29 308.767 510.037 233.279 509.372 232.614C508.821 232.063 508.37 230.66 508.37 229.497C508.37 228.04 494.251 213.272 463.036 182.08C438.103 157.164 416.841 136.313 415.786 135.746C414.732 135.178 411.567 132.643 408.752 130.113C403.927 125.775 401.073 123.527 395.929 120.012C386.634 113.66 381.991 109.625 368.13 95.8523C359.462 87.2383 352.37 79.6823 352.37 79.0593C352.37 77.4933 343.549 68.3383 339.752 65.9623C336.297 63.8013 335.996 63.7193 335.037 64.6793ZM167.87 158.225C165.12 158.74 161.295 159.389 159.37 159.667C156.817 160.035 154.585 161.534 151.12 165.205C148.507 167.974 146.37 170.85 146.37 171.597C146.37 172.344 145.245 175.499 143.87 178.608C142.002 182.831 141.37 185.981 141.37 191.065C141.37 195.917 140.919 198.32 139.799 199.441C137.401 201.838 135.315 201.327 134.074 198.039C133.457 196.403 132.296 194.814 131.495 194.506C129.352 193.684 116.245 200.226 111.567 204.453C107.391 208.226 103.326 217.498 104.156 221.358C104.565 223.256 113.892 228.012 117.207 228.012C118.187 228.012 119.741 228.575 120.661 229.262C122.172 230.39 122.194 230.901 120.896 234.512C119.847 237.43 119.446 243.552 119.414 257.146L119.37 275.779L123.37 279.393C126.302 282.042 127.37 283.788 127.37 285.933C127.37 288.78 130.869 294.041 134.61 296.819C135.578 297.537 136.37 298.699 136.37 299.399C136.37 301.445 143.462 308.724 148.626 311.978C151.241 313.626 155.667 315.723 158.461 316.636C161.323 317.573 163.83 319.077 164.205 320.082C164.571 321.063 164.645 325.383 164.37 329.681C163.906 336.929 163.678 337.587 161.217 338.761C159.758 339.458 157.058 341.867 155.217 344.115C153.376 346.363 150.251 350.071 148.273 352.357C143.41 357.974 137.877 366.855 136.96 370.515C136.547 372.163 133.361 376.464 129.88 380.072C125.672 384.432 123.187 387.953 122.469 390.572C121.875 392.739 120.488 395.862 119.386 397.512C118.285 399.162 117.38 401.37 117.377 402.418C117.373 403.466 114.72 409.541 111.481 415.918C105.33 428.027 103.868 433.672 104.226 443.937C104.447 450.267 105.707 452.228 109.284 451.813C111.781 451.522 111.892 451.219 112.503 443.012C113.217 433.419 114.6 428.385 119.096 419.012C123.339 410.165 128.258 399.306 130.101 394.714C130.939 392.626 134.196 388.346 137.338 385.204C141.588 380.954 143.507 378.088 144.836 374.002C145.818 370.983 147.69 367.08 148.996 365.329C150.302 363.578 151.37 361.753 151.37 361.274C151.37 360.795 152.903 358.73 154.776 356.685C157.789 353.395 158.353 353.138 159.667 354.452C160.844 355.629 161.044 357.767 160.63 364.725C160.343 369.558 159.717 374.27 159.239 375.196C158.761 376.123 158.368 402.223 158.366 433.196C158.363 487.713 158.299 489.617 156.366 492.786C154.796 495.361 154.37 497.826 154.37 504.326C154.37 508.872 153.695 515.183 152.87 518.351C152.045 521.518 151.37 525.515 151.37 527.232C151.37 528.949 150.623 531.18 149.711 532.188C147.069 535.108 146.176 542.114 145.683 563.82C145.201 585.007 145.524 587.012 149.421 587.012C153.671 587.012 154.09 585.102 153.926 566.476C153.813 553.659 154.128 548.105 155.07 546.289C155.785 544.911 156.37 541.88 156.37 539.553C156.37 536.592 156.97 534.779 158.37 533.512C159.768 532.247 160.37 530.432 160.37 527.483C160.37 525.162 161.02 521.421 161.814 519.169C162.826 516.303 163.081 512.951 162.665 507.991C162.138 501.708 162.322 500.569 164.287 497.91C166.393 495.062 166.505 493.95 166.529 475.622C166.543 465.012 166.914 455.75 167.353 455.039C167.953 454.069 168.724 454.404 170.441 456.379C171.701 457.827 173.302 459.012 173.999 459.012C175.839 459.012 180.37 465.323 180.37 467.885C180.37 470.287 186.097 482.313 187.495 482.845C187.976 483.029 188.37 484.015 188.37 485.036C188.37 486.058 188.82 487.172 189.37 487.512C189.92 487.852 190.37 489.025 190.37 490.119C190.37 491.213 191.396 493.099 192.65 494.31C197.098 498.608 197.37 500.628 197.37 529.434C197.37 544.464 197.651 558.168 197.995 559.887C198.547 562.646 199.015 563.012 201.995 563.012H205.37L205.616 539.262C206.036 498.809 206.179 501.243 202.97 494.262C201.39 490.825 199.744 488.012 199.314 488.012C198.883 488.012 197.82 485.874 196.951 483.262C196.082 480.65 194.303 477.272 192.999 475.756C190.845 473.253 189.61 469.848 187.875 461.634C187.541 460.051 185.893 457.511 184.213 455.99C179.712 451.914 178.871 451.083 172.598 444.512L166.87 438.512L166.511 412.154C166.178 387.666 166.398 383.951 168.965 370.864C169.251 369.407 170.29 368.005 171.275 367.747C172.312 367.476 173.331 365.959 173.693 364.145C174.226 361.481 174.763 361.012 177.28 361.012C181.938 361.012 194.616 363.932 196.323 365.398C198.133 366.952 202.109 368.097 222.276 372.874C235.574 376.024 239.942 379.205 237.425 383.908C236.845 384.993 236.37 387.009 236.37 388.387C236.37 389.766 235.92 391.172 235.37 391.512C233.696 392.547 234.151 403.65 235.941 405.441C238.046 407.546 258.327 407.661 264.585 405.603C266.942 404.828 270.22 403.895 271.87 403.53C273.52 403.164 276.386 401.873 278.24 400.66C281.099 398.789 281.959 397.245 283.912 390.483C287 379.789 286.052 375.407 278.797 366.835C274.509 361.769 272.695 360.413 268.719 359.301C258.821 356.535 256.069 356.553 252.68 359.405C250.976 360.839 248.639 362.012 247.488 362.012C246.134 362.012 244.504 363.424 242.87 366.012C239.927 370.674 238.345 370.927 230.37 368.012C227.361 366.912 224.156 366.012 223.249 366.012C220.704 366.012 201.738 360.33 199.87 359.008C197.701 357.473 188.428 355.653 179.949 355.097C171.259 354.527 171.004 354.439 170.092 351.691C169.33 349.393 169.541 348.459 171.229 346.662C173.049 344.725 173.337 342.991 173.586 332.483L173.87 320.512L184.87 319.96C196.403 319.381 201.991 317.899 204.177 314.841C204.895 313.835 205.904 313.012 206.418 313.012C207.574 313.012 213.37 307.039 213.37 305.848C213.37 305.37 214.913 304.244 216.8 303.344C218.775 302.402 221.562 299.652 223.371 296.86C225.099 294.194 227.268 291.992 228.191 291.968C243.143 291.578 244.37 291.017 244.37 284.577C244.37 281.291 243.765 279.806 241.565 277.699C240.023 276.221 238.028 275.012 237.133 275.012C234.864 275.012 233.938 271.354 235.537 268.713C236.585 266.983 236.763 261.693 236.37 244.012C235.878 221.894 236.222 218.012 238.669 218.012C239.345 218.012 242.929 215.276 246.634 211.932C252.68 206.476 253.37 205.467 253.37 202.087C253.37 199.732 252.696 197.712 251.57 196.693C248.867 194.246 241.7 192.014 236.494 191.997C229.744 191.974 228.872 191.139 230.796 186.535C232.552 182.331 232.866 174.447 231.427 170.663C230.396 167.949 230.421 167.96 218.87 165.499C210.897 163.8 206.486 162.71 192.493 158.979C184.746 156.913 176.254 156.653 167.87 158.225ZM175.37 164.012C174.545 164.545 171.047 164.988 167.598 164.997C161.661 165.011 161.089 165.23 156.912 169.08C154.176 171.602 152.26 174.357 151.871 176.33C151.525 178.08 150.342 181.816 149.242 184.633C148.029 187.741 147.366 191.439 147.556 194.041L147.87 198.329L156.369 198.529C161.043 198.639 166.218 198.314 167.869 197.807C169.52 197.299 174.695 196.482 179.37 195.991C193.397 194.518 202.09 193.303 203.106 192.675C203.634 192.349 206.947 192.027 210.468 191.959C213.989 191.891 217.675 191.615 218.659 191.344C220.467 190.847 226.37 179.662 226.37 176.733C226.37 175.86 225.358 174.863 224.12 174.517C222.882 174.17 220.97 173.509 219.87 173.048C218.77 172.586 214.27 171.443 209.87 170.507C201.781 168.787 194.525 166.89 186.442 164.385C181.268 162.781 177.473 162.653 175.37 164.012ZM205.37 199.213C201.166 200.41 182.218 202.685 166.37 203.896C160.045 204.379 153.497 205.22 151.819 205.766C150.14 206.312 142.079 206.746 133.904 206.731L119.041 206.703L115.706 210.343C111.73 214.681 111.483 217.385 114.861 219.598C120.396 223.225 144.754 224.523 162.37 222.131C170.879 220.975 178.03 220.43 209.87 218.51C214.82 218.211 220.67 217.468 222.87 216.857C230.055 214.864 238.792 210.1 242.743 206.022L246.617 202.025L242.243 200.04C235.089 196.794 224.86 197.594 223.368 201.516C222.487 203.834 219.35 205.236 217.543 204.119C216.967 203.763 216.028 202.243 215.457 200.742C214.314 197.736 211.864 197.364 205.37 199.213ZM206.956 224.762C206.545 225.175 199.382 225.822 191.039 226.2C173.393 227 159.256 228.427 154.56 229.881C152.74 230.445 147.219 230.869 142.291 230.822C128.728 230.694 128.52 231.063 127.711 256.651L127.232 271.79L131.705 276.827C134.166 279.597 136.471 283.197 136.829 284.827C137.187 286.457 139.031 289.202 140.925 290.926C142.82 292.65 144.37 294.746 144.37 295.584C144.37 298.595 154.172 306.036 162.37 309.247C165.899 310.63 169.861 311.011 180.726 311.011C194.315 311.012 194.62 310.964 196.549 308.512C197.63 307.137 199.151 306.012 199.928 306.012C200.706 306.012 202.481 304.29 203.873 302.186C205.266 300.082 208.085 297.415 210.138 296.259C218.216 291.709 221.714 285.013 216.013 285.011C214.834 285.011 211.166 283.731 207.862 282.168C204.558 280.605 197.321 278.13 191.781 276.669C183.101 274.38 179.706 274.012 167.239 274.012C152.095 274.012 150.374 273.558 150.366 269.562C150.364 268.435 149.464 266.039 148.366 264.238C145.791 260.013 145.845 258.313 148.585 257.444C150.377 256.875 151.496 257.548 154.437 260.963L158.074 265.186L184.732 265.062L211.39 264.939L215.718 267.476C221.066 270.61 223.882 270.686 225.807 267.748C226.979 265.96 227.307 261.494 227.37 246.498C227.414 236.056 227.432 226.724 227.41 225.762C227.375 224.217 226.22 224.012 217.537 224.012C212.128 224.012 207.367 224.349 206.956 224.762ZM273.37 234.012C270.895 235.051 267.927 235.925 266.775 235.956C265.623 235.987 261.91 237.802 258.525 239.99C252.453 243.915 252.37 244.03 252.37 248.571C252.37 252.926 252.023 253.507 245.934 259.343C238.817 266.164 237.803 268.501 241.02 270.672C243.04 272.036 243.509 271.787 248.77 266.568C251.85 263.512 254.803 261.012 255.331 261.012C257.702 261.012 260.37 256.503 260.37 252.498C260.37 247.042 262.947 244.686 271.895 241.963C280.413 239.371 283.071 237.19 281.435 234.134C280.069 231.581 279.194 231.568 273.37 234.012ZM153.57 234.212C151.058 236.724 152.928 241.012 156.535 241.012C157.505 241.012 158.801 240.075 159.415 238.929C160.304 237.267 160.179 236.458 158.795 234.929C156.796 232.72 155.271 232.511 153.57 234.212ZM203.57 234.212C200.767 237.015 203.494 241.742 207.23 240.557C210.006 239.675 210.705 237.04 208.739 234.867C206.793 232.717 205.259 232.523 203.57 234.212ZM230.596 283.191C231.107 284.724 236.249 284.998 236.62 283.512C236.757 282.962 235.359 282.367 233.513 282.191C231.078 281.958 230.277 282.232 230.596 283.191ZM697.591 284.763C695.065 285.056 693.745 286.042 691.841 289.058C690.482 291.211 689.37 294.12 689.37 295.524C689.37 296.927 688.728 298.321 687.943 298.622C687.158 298.924 685.554 301.217 684.377 303.72C682.491 307.732 682.308 309.406 682.821 317.891C683.141 323.182 683.754 335.387 684.184 345.012C684.65 355.441 685.512 363.926 686.318 366.012C687.061 367.937 687.984 370.412 688.37 371.512C688.756 372.612 689.663 375.087 690.388 377.012C691.112 378.937 691.873 384.782 692.08 390.002C692.362 397.127 692.943 400.318 694.413 402.809C695.583 404.792 696.37 407.956 696.37 410.675C696.37 414.068 697.005 415.978 698.87 418.194C701.132 420.882 701.373 422.04 701.405 430.339C701.429 436.399 701.926 440.36 702.87 442.012C703.656 443.387 704.315 446.598 704.335 449.147C704.363 452.893 704.823 454.079 706.731 455.329C708.03 456.18 709.369 458.257 709.707 459.945C710.044 461.633 711.654 464.476 713.285 466.263C719.803 473.407 721.37 475.345 721.37 476.264C721.37 476.791 722.495 478.56 723.87 480.194C726.183 482.943 726.37 483.937 726.37 493.474C726.37 503.366 726.269 503.848 723.87 505.42C722.495 506.321 721.37 507.986 721.37 509.121C721.37 511.632 711.55 531.012 710.277 531.012C709.011 531.012 709.102 563.728 710.37 564.512C710.92 564.852 711.37 568.331 711.37 572.242C711.37 580.37 713.149 583.736 716.496 581.945C718.144 581.063 718.37 579.685 718.37 570.536C718.37 564.677 717.933 559.86 717.37 559.512C716.801 559.16 716.37 554.133 716.37 547.847C716.37 537.523 716.534 536.606 718.87 533.83C720.245 532.196 721.37 530.273 721.37 529.556C721.37 528.84 722.945 525.639 724.87 522.442C726.795 519.245 728.37 515.663 728.37 514.481C728.37 513.16 729.333 511.894 730.87 511.194C733.342 510.068 733.37 509.915 733.37 497.592C733.37 485.218 734.007 482.664 736.379 485.523C737.059 486.342 738.042 487.012 738.563 487.012C739.085 487.012 741.646 488.812 744.255 491.012C746.864 493.212 749.47 495.012 750.045 495.012C750.621 495.012 752.167 497.15 753.481 499.762C754.795 502.374 756.207 504.662 756.62 504.845C757.033 505.029 757.37 505.816 757.37 506.595C757.37 507.374 758.301 508.943 759.439 510.081C761.364 512.006 761.677 512.041 763.904 510.581C765.222 509.718 766.54 509.012 766.835 509.012C767.722 509.012 767.436 523.906 766.513 525.776C766.041 526.731 764.916 528.931 764.013 530.666C763.109 532.401 762.37 535.664 762.37 537.916C762.37 540.679 761.719 542.663 760.37 544.012C759.27 545.112 758.37 546.808 758.37 547.78C758.37 548.752 757.245 551.203 755.87 553.227C753.547 556.646 753.37 557.754 753.37 568.9C753.37 575.817 753.793 581.156 754.37 581.512C755.698 582.333 755.65 589.62 754.301 592.142C752.845 594.861 754.738 597.012 758.586 597.012C760.716 597.012 761.705 596.446 762.08 595.012C762.624 592.932 765.793 592.27 766.87 594.012C767.736 595.413 774.719 595.263 776.17 593.812C777.043 592.939 777.37 585.4 777.37 566.156V539.701L779.87 536.423C781.245 534.62 782.37 532.721 782.37 532.201C782.37 531.682 783.08 530.668 783.948 529.947C784.816 529.227 786.607 526.505 787.927 523.899C789.248 521.292 791.238 518.871 792.349 518.519C794.578 517.811 795.243 512.669 793.263 511.446C790.281 509.603 796.984 509.041 822.151 509.027C846.472 509.014 849.501 509.189 850.059 510.644C850.404 511.542 850.165 513.111 849.528 514.131C848.843 515.228 848.37 520.254 848.37 526.439C848.37 532.33 847.933 537.164 847.37 537.512C846.82 537.852 846.367 539.566 846.364 541.321C846.36 543.076 845.685 545.801 844.864 547.376C844.042 548.952 843.37 552.648 843.37 555.591C843.37 559.985 843.741 561.14 845.448 562.054C848.698 563.793 850.366 562.527 850.402 558.293C850.419 556.214 851.094 553.638 851.902 552.571C852.709 551.503 853.37 548.942 853.37 546.88C853.37 544.817 853.82 542.852 854.37 542.512C854.934 542.163 855.37 537.313 855.37 531.387C855.37 525.184 855.855 519.986 856.555 518.696C857.207 517.495 858.002 514.937 858.322 513.012C858.886 509.619 859.041 509.512 863.387 509.512H867.87V531.012V552.512L862.382 552.823C857.355 553.107 853.37 554.996 853.37 557.096C853.37 559.303 856.866 561.012 861.382 561.012C864.061 561.012 866.53 561.462 866.87 562.012C867.729 563.402 872.716 563.266 874.17 561.812C875.039 560.943 875.37 553.775 875.37 535.847C875.37 512.386 875.472 511.028 877.304 510.047C879.37 508.941 921.016 508.555 923.781 509.616C925.691 510.349 925.13 513.303 921.723 520.449C920.037 523.986 919.37 527.142 919.37 531.577C919.37 534.982 918.695 539.383 917.87 541.358C916.109 545.573 915.77 565.023 917.405 568.078C918.322 569.791 919.577 570.012 928.405 570.012C939.723 570.012 940.503 569.292 935.919 563.078C933.474 559.765 933.468 559.693 933.5 535.563C933.517 522.256 933.844 510.863 934.227 510.244C934.609 509.625 937.831 508.982 941.386 508.816C946.6 508.571 947.914 508.174 948.183 506.764C948.53 504.943 946.257 502.012 944.499 502.012C943.941 502.012 941.851 501.049 939.856 499.871C937.86 498.694 934.797 497.438 933.049 497.08C931.3 496.723 930.003 495.998 930.166 495.471C930.504 494.378 934.89 494.666 937.87 495.977C938.97 496.461 941.078 497.117 942.553 497.437C944.029 497.756 945.522 498.916 945.871 500.014C946.242 501.183 947.384 502.012 948.623 502.012C949.788 502.012 951.67 502.855 952.806 503.886C953.941 504.917 957.12 506.986 959.87 508.485C962.62 509.984 965.58 511.841 966.449 512.611C967.317 513.382 968.892 514.021 969.949 514.031C971.005 514.042 973.67 515.639 975.87 517.582C978.07 519.524 981.042 521.359 982.475 521.659C983.908 521.959 986.608 523.527 988.475 525.143C990.342 526.76 992.963 528.629 994.298 529.297C995.633 529.965 998.13 532.514 999.847 534.962C1001.63 537.5 1005.03 540.546 1007.77 542.054C1010.41 543.507 1013.68 546.118 1015.04 547.854C1016.46 549.66 1018.45 551.017 1019.69 551.024C1020.89 551.031 1023.8 552.137 1026.15 553.482C1028.5 554.827 1031.09 555.672 1031.91 555.36C1033.94 554.579 1034.86 550.306 1033.38 548.52C1031.81 546.627 1026.56 544.012 1024.33 544.012C1023.38 544.012 1021.92 542.977 1021.09 541.713C1020.27 540.448 1017.63 538.539 1015.23 537.47C1010.8 535.496 1007.46 532.458 1007.4 530.351C1007.36 528.934 1001.67 524.019 1000.04 523.995C999.398 523.985 997.81 522.86 996.515 521.495C995.22 520.129 993.602 519.012 992.92 519.012C992.238 519.012 990.876 518.123 989.893 517.038C988.91 515.952 987.153 514.772 985.988 514.416C984.823 514.061 981.731 512.249 979.118 510.391C976.504 508.533 973.676 507.012 972.833 507.012C970.652 507.012 966.281 503.965 966.938 502.903C967.721 501.635 999.723 501.765 1001 503.041C1001.64 503.677 1007.52 503.963 1016.44 503.791C1029.56 503.537 1030.88 503.346 1031.2 501.656C1032.01 497.463 1029.76 497.143 986.166 495.241C975.007 494.754 969.049 494.097 968.216 493.262C967.419 492.462 963.976 492.012 958.656 492.012C954.084 492.012 949.561 491.622 948.606 491.146C945.522 489.608 939.948 487.795 936.87 487.33C935.22 487.08 932.97 486.477 931.87 485.989C929.458 484.919 922.237 484.186 904.668 483.23C896.325 482.776 891.007 482.052 890.218 481.262C889.532 480.575 887.287 480.012 885.229 480.012C883.171 480.012 881.21 479.562 880.87 479.012C880.53 478.462 877.691 477.996 874.561 477.977C871.431 477.957 867.745 477.298 866.37 476.512C864.995 475.726 862.626 475.067 861.106 475.047C859.586 475.028 857.561 474.622 856.606 474.146C852.981 472.338 847.727 470.725 843.936 470.255C841.772 469.986 838.086 468.697 835.743 467.389C833.401 466.082 830.762 465.012 829.878 465.012C827.589 465.012 822.053 461.997 822.858 461.188C823.229 460.816 834.408 460.209 847.701 459.839C872.16 459.158 887.009 458.074 888.913 456.831C889.487 456.456 895.241 456.044 901.699 455.915C909.473 455.759 914.021 455.24 915.156 454.378C916.473 453.377 923.773 453.068 946.645 453.044L976.42 453.012L977.411 450.404C978.262 448.167 978.861 447.865 981.636 448.279C985.347 448.832 990.082 450.473 995.983 453.25C998.245 454.315 1001.8 455.343 1003.87 455.536C1005.95 455.729 1008.12 456.365 1008.71 456.95C1009.29 457.534 1010.78 458.012 1012.01 458.012C1013.24 458.012 1014.53 458.462 1014.87 459.012C1015.21 459.562 1017.15 460.028 1019.18 460.047C1021.21 460.067 1024 460.726 1025.37 461.512C1026.75 462.298 1029.3 462.957 1031.04 462.977C1032.93 462.998 1035.42 464.027 1037.19 465.512C1038.82 466.887 1040.8 468.012 1041.58 468.012C1042.36 468.012 1045.33 469.137 1048.18 470.512C1051.03 471.887 1054.43 473.012 1055.73 473.012C1057.04 473.012 1061.18 474.587 1064.94 476.512C1069.56 478.88 1073.14 480.012 1076 480.012C1079.04 480.012 1081.05 480.709 1083.19 482.512C1085.14 484.153 1087.38 485.012 1089.72 485.012C1093.81 485.012 1095.81 487.332 1094.1 490.08C1093.29 491.377 1093.55 492.648 1095.2 495.452C1096.4 497.473 1097.37 500.026 1097.37 501.127C1097.37 502.227 1098.5 505.142 1099.87 507.605C1101.37 510.297 1102.37 513.677 1102.37 516.08C1102.37 518.278 1103.05 521.692 1103.87 523.666C1104.7 525.641 1105.37 528.975 1105.37 531.075C1105.37 533.175 1105.82 535.172 1106.37 535.512C1107.74 536.357 1107.67 556.314 1106.29 557.69C1105.7 558.283 1105.36 560.061 1105.54 561.64C1105.8 563.899 1106.44 564.577 1108.52 564.819C1113.02 565.34 1114.37 560.975 1114.37 545.917C1114.37 538.471 1113.95 532.872 1113.37 532.512C1112.82 532.172 1112.37 529.986 1112.37 527.653C1112.37 525.32 1111.89 522.931 1111.3 522.342C1110.71 521.754 1110.02 518.488 1109.75 515.084C1109.48 511.628 1108.41 507.363 1107.32 505.424C1106.25 503.514 1105.35 500.727 1105.34 499.232C1105.32 497.736 1104.66 495.387 1103.87 494.012C1103.08 492.637 1102.43 491.175 1102.41 490.762C1102.39 490.349 1112.18 490.012 1124.18 490.012C1141.81 490.012 1146.36 489.731 1147.93 488.544C1149 487.736 1150.89 487.061 1152.13 487.044C1153.38 487.026 1155.18 486.622 1156.13 486.146C1158.64 484.897 1164.69 482.994 1165.04 483.345C1165.2 483.51 1164.83 484.974 1164.22 486.599C1163.26 489.136 1163.48 490.289 1165.74 494.75C1167.19 497.607 1168.38 501.423 1168.4 503.229C1168.42 505.035 1169.09 507.386 1169.9 508.453C1170.71 509.521 1171.37 511.407 1171.37 512.644C1171.37 513.882 1171.82 515.172 1172.37 515.512C1172.92 515.852 1173.38 517.341 1173.4 518.821C1173.42 520.301 1174.09 522.386 1174.9 523.453C1176.1 525.041 1176.37 529.994 1176.37 550.668C1176.37 574.615 1176.47 575.996 1178.3 576.975C1179.76 577.755 1180.62 577.623 1181.8 576.439C1183.15 575.091 1183.37 571.174 1183.34 548.691C1183.31 527.88 1183.01 521.999 1181.87 520.012C1181.08 518.637 1180.43 516.288 1180.41 514.792C1180.39 513.297 1179.41 510.372 1178.23 508.292C1177.05 506.213 1175.94 502.535 1175.75 500.119C1175.42 495.865 1170.58 484.012 1169.18 484.012C1168.8 484.012 1169.13 482.775 1169.92 481.262C1170.71 479.749 1171.36 477.192 1171.36 475.578C1171.37 471.04 1167.71 464.394 1164.45 463.045C1162.89 462.397 1160.34 460.549 1158.8 458.939C1157.26 457.329 1155.29 456.012 1154.43 456.012C1153.56 456.012 1150.74 454.887 1148.16 453.512C1145.58 452.137 1142.76 451.012 1141.89 451.012C1140.01 451.012 1124.81 443.487 1121.57 440.95C1120.31 439.96 1117.95 438.86 1116.34 438.504C1114.72 438.149 1113.11 437.404 1112.77 436.85C1112.43 436.296 1112.22 430.813 1112.3 424.667C1112.42 416.084 1112.08 412.731 1110.82 410.211C1109.48 407.522 1109.28 404.792 1109.7 395.066C1110.17 384.299 1110.47 382.823 1112.93 379.107C1114.42 376.855 1115.98 375.012 1116.39 375.012C1116.81 375.012 1118.82 373.528 1120.86 371.714C1125 368.022 1125.5 363.84 1121.87 363.155C1120.77 362.948 1118.23 361.299 1116.22 359.491C1109.88 353.771 1102.08 351.154 1089.57 350.549C1083.06 350.234 1079.34 349.529 1076.47 348.061C1073.35 346.471 1070.54 346.012 1063.94 346.012C1058.97 346.012 1054.08 345.44 1052.15 344.632C1044.96 341.611 1041.25 341.012 1029.67 341.012C1016.2 341.012 1014.65 341.695 1015.24 347.387C1015.63 351.165 1017 353.012 1019.42 353.012C1020.41 353.012 1024.25 354.587 1027.94 356.512C1033.24 359.273 1035.84 360.019 1040.26 360.044C1043.6 360.063 1046.66 360.67 1047.81 361.544C1048.88 362.351 1050.77 363.012 1052 363.012C1053.24 363.012 1054.53 363.462 1054.87 364.012C1055.21 364.566 1059.75 365.012 1065.03 365.012C1074.25 365.012 1074.82 365.146 1082.49 369.134C1087.94 371.969 1090.13 373.609 1089.51 374.384C1089.01 375.005 1088.3 376.928 1087.93 378.658C1087.56 380.389 1086.38 382.596 1085.31 383.563C1083.77 384.956 1083.37 386.654 1083.37 391.733C1083.37 395.259 1082.81 399.126 1082.12 400.328C1081.34 401.692 1080.68 408.329 1080.37 418.012L1079.87 433.512L1076.47 433.837C1073.21 434.148 1071.71 433.607 1061.24 428.342C1058.69 427.06 1055.95 426.012 1055.15 426.012C1054.36 426.012 1051.5 424.889 1048.79 423.516C1046.08 422.143 1043.17 421.018 1042.32 421.016C1041.47 421.014 1037.87 419.447 1034.32 417.535C1028.69 414.497 1026.96 414.055 1020.68 414.035C1016.72 414.022 1013.21 413.562 1012.87 413.012C1012.53 412.462 1010.9 412.012 1009.25 412.012C1007.59 412.012 1005.26 411.456 1004.05 410.775C1002.85 410.095 998.72 409.308 994.87 409.025L987.87 408.512L987.581 399.737C987.362 393.093 987.665 390.429 988.831 388.765C989.677 387.556 990.37 385.569 990.37 384.349C990.37 383.128 990.82 381.852 991.37 381.512C991.92 381.172 992.37 379.847 992.37 378.568C992.37 377.19 993.389 375.574 994.87 374.604C996.245 373.703 997.37 372.128 997.37 371.103C997.37 370.079 998.042 367.952 998.864 366.376C999.685 364.801 1000.36 362.765 1000.36 361.852C1000.37 360.939 1002.4 358.262 1004.87 355.903C1009.51 351.48 1010.37 349.085 1008.01 347.127C1006.27 345.683 1000.79 347.837 997.718 351.175C995.191 353.92 990.37 363.663 990.37 366.025C990.37 366.926 989.245 368.72 987.87 370.012C986.495 371.304 985.37 372.906 985.37 373.572C985.37 374.238 984.698 376.072 983.876 377.648C983.055 379.223 982.38 381.273 982.376 382.203C982.373 383.133 981.92 384.172 981.37 384.512C980.29 385.179 979.941 411.732 980.977 414.43C981.45 415.663 983.12 416.012 988.543 416.012C992.37 416.012 996.484 416.545 997.686 417.196C999.965 418.432 1006.04 419.803 1012.87 420.621C1015.07 420.884 1017.94 421.329 1019.26 421.609L1021.64 422.118L1018.82 425.065C1015.98 428.033 1013.01 428.863 1011.87 427.012C1011.53 426.462 1009.51 426.012 1007.37 426.012C1005.24 426.012 1003.21 425.562 1002.87 425.012C1002.53 424.462 998.99 424.012 995.002 424.012C990.176 424.012 987.103 423.521 985.811 422.544C982.763 420.238 979.148 420.736 971.507 424.512C967.612 426.437 963.941 428.012 963.349 428.012C962.758 428.012 960.411 427.112 958.134 426.012C955.857 424.912 953.471 424.012 952.831 424.012C952.191 424.012 949.552 422.887 946.966 421.512C944.331 420.111 940.597 419.012 938.471 419.012C934.243 419.012 928.036 416.362 928.919 414.934C929.232 414.427 930.219 414.012 931.113 414.012C933.296 414.012 940.909 410.272 942.412 408.462C943.073 407.664 945.022 406.996 946.742 406.977C948.463 406.957 950.995 406.298 952.37 405.512C953.961 404.602 957.856 404.07 963.085 404.047C970.071 404.017 971.45 403.732 972.303 402.138C973.07 400.703 972.866 399.866 971.431 398.567C969.859 397.145 968.046 396.948 960.213 397.349C946.807 398.035 939.755 399.327 937.148 401.575C933.83 404.435 928.849 407.012 926.64 407.012C925.583 407.012 923.662 408.137 922.37 409.512C920.631 411.364 918.993 412.012 916.056 412.012C911.057 412.012 908.658 414.554 911.101 417.262C911.999 418.257 914.105 419.012 915.986 419.012C917.887 419.012 920.052 419.796 921.081 420.857C923.889 423.754 929.324 426.012 933.49 426.012C937.359 426.012 944.37 428.709 944.37 430.197C944.37 430.645 928.058 431.028 908.12 431.047C878.578 431.076 871.407 431.347 869.37 432.512C867.628 433.508 863.501 433.952 855.752 433.977L844.634 434.012L835.851 438.494C831.02 440.959 826.313 443.659 825.39 444.494C824.315 445.466 821.724 446.012 818.178 446.012C813.567 446.012 812.214 446.441 810.072 448.582C806.727 451.928 804.508 450.83 799.829 443.515C797.939 440.561 795.938 437.863 795.382 437.519C794.825 437.175 794.37 435.121 794.37 432.953V429.012H801.969C806.917 429.012 810.841 428.433 813.219 427.352C817.438 425.433 823.37 420.192 823.37 418.383C823.37 417.703 824.234 416.872 825.291 416.537C827.416 415.863 831.37 409.035 831.37 406.04C831.37 404.99 831.82 403.852 832.37 403.512C832.92 403.172 833.386 400.783 833.405 398.203C833.425 395.623 834.084 392.387 834.87 391.012C835.732 389.504 836.313 385.66 836.335 381.321C836.354 377.366 836.82 373.852 837.37 373.512C837.941 373.159 838.37 368.064 838.37 361.64V350.386L835.269 347.449C833.564 345.834 831.773 343.494 831.289 342.25C830.806 341.005 829.25 339.459 827.831 338.812C826.413 338.166 823.672 336.147 821.74 334.325C819.808 332.503 817.537 331.012 816.693 331.012C815.849 331.012 814.273 329.887 813.191 328.512C812.11 327.137 810.716 326.012 810.095 326.012C809.474 326.012 807.594 324.721 805.918 323.144C804.241 321.566 800.255 318.866 797.058 317.144C792.155 314.501 790.172 314.012 784.367 314.012C780.584 314.012 777.21 314.462 776.87 315.012C776.53 315.562 774.557 316.012 772.485 316.012C769.76 316.012 768.069 316.703 766.37 318.512C765.078 319.887 763.461 321.012 762.777 321.012C762.092 321.012 760.083 322.549 758.311 324.427C756.54 326.305 753.691 328.107 751.98 328.431C748.709 329.051 733.37 343.061 733.37 345.429C733.37 346.108 732.245 347.72 730.87 349.012C728.69 351.06 728.37 352.21 728.37 358.008C728.37 362.522 727.756 365.916 726.455 368.583L724.54 372.512L723.877 369.512C723.513 367.862 722.781 365.608 722.252 364.503C721.198 362.302 721.715 327.319 723.057 310.012C723.505 304.237 724.44 298.518 725.134 297.302C726.269 295.317 726.089 294.864 723.357 292.844C721.684 291.607 720.522 290.058 720.774 289.401C721.026 288.744 720.653 287.414 719.945 286.446C718.9 285.016 716.986 284.657 709.764 284.534C704.872 284.45 699.395 284.553 697.591 284.763ZM698.12 295.099C697.158 296.79 696.37 299.19 696.37 300.433C696.37 301.871 695.462 303.104 693.87 303.83C692.189 304.596 691.37 305.775 691.37 307.432C691.37 308.786 690.92 310.172 690.37 310.512C689.82 310.852 689.37 313.552 689.37 316.512C689.37 319.472 689.82 322.172 690.37 322.512C690.97 322.883 691.384 329.812 691.405 339.821C691.432 352.404 691.793 357.127 692.87 359.012C693.656 360.387 694.315 362.764 694.335 364.295C694.354 365.826 695.495 369.299 696.87 372.012C698.958 376.133 699.37 378.357 699.37 385.512C699.37 392.667 699.782 394.891 701.87 399.012C703.362 401.956 704.37 405.647 704.37 408.164C704.37 411.164 705.02 413.075 706.62 414.776C708.571 416.852 708.915 418.454 709.207 426.841C709.392 432.16 709.954 436.94 710.457 437.462C710.959 437.985 711.37 440.52 711.37 443.097C711.37 446.991 711.792 448.059 713.87 449.42C715.432 450.443 716.37 451.995 716.37 453.555C716.37 456.581 719.889 462.341 724.466 466.808C727.323 469.596 728.461 470.058 731.848 469.808C737.319 469.404 737.481 467.172 732.434 461.697C729.957 459.01 728.37 456.319 728.37 454.805C728.37 453.439 727.446 451.486 726.317 450.464C725.188 449.442 722.938 445.741 721.317 442.239C718.537 436.233 718.37 435.144 718.37 423.001C718.37 415.499 717.953 409.872 717.37 409.512C716.76 409.135 716.37 401.48 716.37 389.887C716.37 377.922 715.961 370.115 715.265 368.815C713.82 366.115 713.904 317.078 715.356 315.626C715.914 315.068 716.37 310.229 716.37 304.871C716.37 299.456 716.814 294.856 717.37 294.512C720.132 292.805 717.51 292.013 709.12 292.018L699.87 292.025L698.12 295.099ZM781.82 321.928C781.298 322.432 779.096 323.118 776.928 323.453C772.054 324.206 771.635 324.605 773.158 327.044C774.909 329.848 774.653 331.79 772.37 333.012C770.669 333.922 770.37 335.106 770.37 340.925C770.37 348.405 771.149 349.693 776.772 351.511C778.837 352.178 781.111 354.347 783.589 358.012C787.294 363.489 787.309 363.555 787.339 374.088C787.368 384.095 787.236 384.79 784.87 387.012C783.434 388.361 782.37 390.479 782.37 391.986C782.37 396.176 780.668 397.012 772.13 397.012C763.266 397.012 758.873 395.33 753.567 389.902C750.877 387.151 750.37 385.878 750.37 381.874C750.37 378.184 749.809 376.509 747.87 374.417C746.449 372.884 745.37 370.519 745.37 368.939C745.37 367.163 746.274 365.446 747.87 364.191C749.245 363.109 750.37 361.486 750.37 360.583C750.37 359.68 751.067 357.878 751.918 356.579C753.027 354.887 753.381 352.275 753.168 347.375C752.787 338.623 751.063 337.962 745.071 344.269C736.952 352.817 735.37 355.738 735.37 362.187C735.37 365.405 734.975 368.821 734.493 369.776C731.251 376.193 730.131 388.569 732.299 394.012C733.866 397.944 737.168 402.011 738.794 402.013C739.386 402.014 741.177 403.139 742.776 404.513C744.374 405.888 746.231 407.012 746.903 407.012C747.575 407.012 748.718 407.727 749.443 408.6C750.168 409.474 754.714 412.174 759.546 414.6C767.22 418.454 769.147 419.012 774.791 419.012C778.345 419.012 781.53 419.462 781.87 420.012C782.655 421.282 806.77 421.347 809.134 420.085C810.089 419.575 811.587 418.941 812.462 418.677C813.338 418.412 814.819 416.585 815.753 414.617C816.687 412.649 818.333 410.567 819.411 409.99C821.774 408.726 821.983 407.012 819.774 407.012C818.897 407.012 816.984 406.394 815.524 405.639C814.064 404.885 811.07 403.707 808.87 403.022C806.67 402.338 803.745 400.756 802.37 399.507C800.995 398.258 798.857 396.931 797.62 396.557C795.341 395.868 794.876 394.464 795.977 391.594C796.789 389.478 803.668 389.462 805.42 391.572C807.038 393.522 814.152 397.012 816.508 397.012C817.478 397.012 818.702 396.241 819.229 395.299C819.757 394.357 821.466 393.533 823.029 393.467C825.393 393.369 825.925 392.858 826.197 390.43C826.377 388.825 826.939 387.084 827.447 386.562C827.955 386.039 828.37 382.638 828.37 379.003C828.37 374.74 828.891 371.705 829.838 370.453C830.789 369.196 831.318 366.09 831.338 361.635L831.37 354.758L822.71 346.385C817.715 341.556 813.201 338.012 812.046 338.012C810.944 338.012 807.004 335.312 803.291 332.012C799.578 328.712 796.247 326.012 795.888 326.012C795.53 326.012 793.762 324.887 791.959 323.512C788.673 321.005 783.599 320.213 781.82 321.928ZM1033.01 348.708C1032.62 349.091 1033.98 350.216 1036.02 351.208C1039.9 353.094 1047.85 353.659 1048.81 352.117C1049.51 350.974 1047.02 350.012 1043.35 350.012C1041.78 350.012 1040.21 349.562 1039.87 349.012C1039.17 347.877 1034.07 347.651 1033.01 348.708ZM1052.37 353.939C1052.37 354.529 1053.4 355.012 1054.65 355.012C1055.9 355.012 1057.92 355.707 1059.13 356.556C1060.74 357.685 1063.29 358.021 1068.6 357.806C1081.41 357.288 1075.77 354.105 1060.62 353.302C1055.14 353.012 1052.37 353.225 1052.37 353.939ZM1081.94 358.898C1081.64 359.386 1082.36 360.037 1083.54 360.346C1086.47 361.113 1098.37 359.927 1098.37 358.867C1098.37 357.731 1082.64 357.76 1081.94 358.898ZM772.923 360.927C772.601 361.448 772.764 362.137 773.285 362.459C773.806 362.781 774.495 362.618 774.817 362.097C775.139 361.576 774.976 360.887 774.455 360.565C773.934 360.243 773.245 360.406 772.923 360.927ZM811.593 361.569C808.748 363.561 808.796 364.166 812.056 367.425C814.024 369.394 815.56 370.031 817.806 369.811C822.174 369.385 822.423 366.076 818.345 362.645C814.68 359.561 814.5 359.532 811.593 361.569ZM257.57 364.212C255.804 365.978 256.016 372.012 257.844 372.012C259.649 372.012 262.72 366.367 261.974 364.422C261.312 362.696 259.187 362.595 257.57 364.212ZM760.37 365.012C760.37 366.112 760.82 367.012 761.37 367.012C761.92 367.012 762.37 366.112 762.37 365.012C762.37 363.912 761.92 363.012 761.37 363.012C760.82 363.012 760.37 363.912 760.37 365.012ZM791.57 364.212C789.579 366.203 790.178 368.926 792.749 369.571C799.016 371.144 803.415 368.181 800.33 364.464C798.873 362.708 793.236 362.546 791.57 364.212ZM1099.62 367.688C1097.66 368.092 1097.37 368.775 1097.37 373.023C1097.37 375.702 1096.92 378.172 1096.37 378.512C1095.82 378.852 1095.37 380.375 1095.37 381.897C1095.37 383.555 1094.37 385.604 1092.87 387.012C1090.64 389.105 1090.37 390.163 1090.37 396.721C1090.37 401.425 1089.85 404.882 1088.93 406.297C1087.93 407.851 1087.55 411.05 1087.68 417.012L1087.87 425.512L1090.87 425.839C1092.52 426.019 1095.12 427.353 1096.65 428.804C1099.33 431.348 1099.52 431.383 1102.15 429.795C1104.46 428.398 1104.92 427.372 1105.18 422.99C1105.38 419.563 1104.96 417.033 1103.93 415.456C1102.67 413.539 1102.37 409.742 1102.37 395.702C1102.37 379.571 1102.51 378.191 1104.38 376.505C1106.26 374.801 1109.68 368.985 1109.12 368.439C1108.48 367.814 1101.64 367.273 1099.62 367.688ZM246.404 375.908C244.874 380.545 245.525 383.012 248.28 383.012C251.144 383.012 251.66 381.488 250.228 377.256C248.358 371.727 247.844 371.546 246.404 375.908ZM267.37 373.512C267.37 373.787 267.595 374.012 267.87 374.012C268.145 374.012 268.37 373.787 268.37 373.512C268.37 373.237 268.145 373.012 267.87 373.012C267.595 373.012 267.37 373.237 267.37 373.512ZM772.923 377.927C772.601 378.448 772.764 379.137 773.285 379.459C773.806 379.781 774.495 379.618 774.817 379.097C775.139 378.576 774.976 377.887 774.455 377.565C773.934 377.243 773.245 377.406 772.923 377.927ZM244.153 390.203C243.209 390.923 242.133 393.465 241.761 395.852L241.086 400.191L252.478 399.852C262.234 399.561 264.58 399.153 268.813 397.012C273.89 394.444 276.408 391.719 275.004 390.31C274.567 389.871 267.833 389.373 260.04 389.203C249.507 388.973 245.429 389.23 244.153 390.203ZM723.915 400.154C723.46 401.852 723.773 403.89 724.789 405.855C725.979 408.157 726.37 411.955 726.37 421.227C726.37 432.849 726.537 433.884 729.34 439.63C730.974 442.978 732.999 446.289 733.84 446.987C734.682 447.686 735.37 449.337 735.37 450.657C735.37 452.067 737.02 454.847 739.37 457.396C741.833 460.068 743.37 462.705 743.37 464.259C743.37 468.748 746.898 470.008 759.585 470.047C767.479 470.072 771.621 470.512 773.37 471.512C775.326 472.63 780.661 472.946 797.87 472.961C810.413 472.973 820.515 472.565 821.37 472.012C822.195 471.479 822.369 471.036 821.758 471.027C821.146 471.019 818.946 469.662 816.87 468.012C814.794 466.362 812.12 465.012 810.929 465.012C809.737 465.012 807.236 463.437 805.37 461.512C803.504 459.587 801.431 458.012 800.763 458.012C800.095 458.012 796.809 453.95 793.46 448.985C788.597 441.776 787.37 439.173 787.37 436.066C787.37 430.548 786.536 429.017 783.513 428.98C782.059 428.963 779.996 428.288 778.929 427.48C777.685 426.539 774.656 426.012 770.497 426.012C764.794 426.012 762.908 425.461 754.939 421.469C749.951 418.971 743.845 415.371 741.37 413.469C738.895 411.568 736.195 409.711 735.37 409.343C732.496 408.062 726.862 402.643 725.747 400.086L724.623 397.512L723.915 400.154ZM1029.62 427.757C1027.83 428.647 1026.37 429.959 1026.37 430.673C1026.37 432.049 1033.31 436.012 1035.72 436.012C1036.5 436.012 1038.43 436.684 1040.01 437.506C1041.58 438.327 1044.24 439.002 1045.92 439.006C1050.37 439.015 1051.37 440.619 1051.37 447.778C1051.37 454.672 1050.19 458.012 1047.75 458.012C1046.9 458.012 1046.37 458.516 1046.58 459.132C1047.19 460.975 1055.21 465.012 1058.26 465.012C1059.82 465.012 1062.74 466.132 1064.76 467.501C1071.28 471.923 1074.17 473.012 1079.43 473.012C1083.47 473.012 1085.22 473.553 1087.55 475.512C1089.39 477.058 1091.77 478.012 1093.78 478.012C1095.57 478.012 1099.12 479.069 1101.67 480.362C1105.92 482.514 1107.7 482.728 1122.77 482.907C1135.68 483.06 1140.01 482.77 1142.92 481.557C1144.95 480.707 1147.57 480.013 1148.74 480.013C1151.29 480.015 1162.34 474.869 1162.36 473.672C1162.36 473.21 1160.96 471.635 1159.23 470.172C1157.5 468.709 1155.17 466.499 1154.05 465.262C1152.92 464.012 1150.84 463.012 1149.37 463.012C1147.8 463.012 1145.85 461.998 1144.56 460.512C1143.36 459.137 1141.32 458.012 1140.03 458.012C1138.73 458.012 1135.55 456.887 1132.97 455.512C1130.38 454.137 1127.63 453.012 1126.85 453.012C1125.25 453.012 1118.68 449.529 1116.29 447.411C1115.42 446.641 1114.06 446.012 1113.27 446.012C1112.48 446.012 1108.25 444.212 1103.87 442.012C1094.76 437.437 1090.25 436.924 1087.95 440.203C1087.11 441.408 1085.31 442.87 1083.96 443.453L1081.5 444.512L1083.47 448.512C1085.73 453.105 1085.62 455.836 1083.11 457.41C1081.62 458.343 1080.55 457.606 1076.11 452.607C1066.97 442.307 1062.39 438.012 1060.54 438.012C1059.55 438.012 1057.81 437.142 1056.67 436.079C1055.53 435.015 1053 433.846 1051.05 433.48C1049.1 433.113 1046.73 431.959 1045.78 430.913C1044.78 429.81 1042.74 429.012 1040.91 429.012C1039.17 429.012 1036.88 428.351 1035.81 427.544C1033.46 425.765 1033.64 425.759 1029.62 427.757ZM975.04 431.675C973.769 432.946 980.449 436.012 984.49 436.012C987.115 436.012 989.677 436.811 991.702 438.262C996.708 441.849 999.386 443.012 1002.64 443.012C1004.34 443.012 1007.12 444.112 1008.96 445.512C1010.76 446.887 1013.41 448.012 1014.84 448.012C1016.28 448.012 1019.34 448.991 1021.66 450.187C1023.98 451.383 1027.67 452.694 1029.87 453.1C1032.07 453.506 1034.77 454.098 1035.87 454.415C1037.21 454.801 1038.98 454.032 1041.25 452.068C1045.1 448.747 1044.93 446.012 1040.88 446.012C1039.48 446.012 1034.58 444.212 1029.99 442.012C1025.15 439.693 1020.18 438.012 1018.14 438.012C1016.15 438.012 1013.54 437.148 1012.1 436.012C1010.7 434.912 1008.15 434.012 1006.43 434.012C1004.71 434.012 1001.69 433.337 999.716 432.512C996.051 430.981 976.401 430.314 975.04 431.675ZM874.505 439.551C872.233 440.538 867.595 441.012 860.222 441.012C850.558 441.012 848.737 441.299 844.37 443.512C841.657 444.887 838.591 446.012 837.558 446.012C836.525 446.012 834.876 446.901 833.893 447.986C832.91 449.072 831.266 450.228 830.238 450.554C829.211 450.88 828.37 451.584 828.37 452.119C828.37 452.731 835.874 452.928 848.62 452.651C870.603 452.173 881.64 451.137 885.054 449.231C886.434 448.461 891.662 448.012 899.245 448.012C906.171 448.012 911.514 447.589 911.87 447.012C912.252 446.394 921.027 446.012 934.87 446.012C948.08 446.012 957.495 445.619 957.845 445.053C958.47 444.041 956.566 440.023 954.87 438.777C954.32 438.373 936.77 438.053 915.87 438.066C884.786 438.086 877.258 438.356 874.505 439.551ZM755.098 482.186C755.706 486.901 758.706 492.012 760.866 492.012C761.613 492.012 763.045 493.042 764.047 494.3C765.05 495.559 767.3 497.175 769.048 497.892C770.796 498.609 772.47 499.829 772.767 500.604C773.225 501.797 784.664 502.012 847.839 502.012C888.831 502.012 922.369 501.675 922.368 501.262C922.363 499.826 911.817 495.012 908.676 495.012C905.645 495.012 902.37 492.897 902.37 490.941C902.37 490.43 899.085 490.012 895.07 490.012C890.898 490.012 887.277 489.519 886.619 488.861C885.325 487.567 879.028 486.216 869.37 485.161C865.795 484.77 861.887 483.902 860.686 483.231C859.484 482.561 857.212 482.012 855.636 482.012C854.06 482.012 852.33 481.572 851.792 481.034C851.203 480.445 834.738 479.879 810.342 479.608C788.083 479.361 766.421 478.867 762.205 478.51L754.54 477.86L755.098 482.186ZM740.544 500.326C738.623 502.372 738.37 503.76 738.37 512.267C738.37 517.606 738.815 522.169 739.37 522.512C739.92 522.852 740.37 527.198 740.37 532.17C740.37 538.241 740.876 542.276 741.911 544.458C743.027 546.81 743.372 550.161 743.161 556.609L742.87 565.512L732.975 566.012C725.197 566.405 722.855 566.869 722.033 568.178C721.275 569.384 721.349 570.282 722.3 571.428C723.364 572.709 725.868 573.012 735.411 573.012C741.898 573.012 747.918 572.739 748.788 572.405C750.135 571.888 750.37 569.524 750.37 556.464C750.37 547.32 749.966 540.881 749.37 540.512C748.818 540.171 748.356 535.548 748.338 530.203C748.315 523.271 747.888 519.959 746.838 518.571C744.829 515.915 744.921 506.626 746.988 503.472C748.292 501.483 748.365 500.711 747.366 499.507C745.583 497.358 743.046 497.663 740.544 500.326ZM961.703 500.679C962.07 501.045 962.67 501.045 963.037 500.679C963.403 500.312 963.103 500.012 962.37 500.012C961.637 500.012 961.337 500.312 961.703 500.679ZM775.533 510.762C775.033 511.724 774.905 515.662 775.247 519.512L775.87 526.512L777.87 523.63C778.97 522.045 782.022 518.386 784.652 515.499C790.043 509.583 789.75 509.012 781.323 509.012C777.685 509.012 776.209 509.458 775.533 510.762ZM773.37 530.012C773.37 530.745 773.67 531.045 774.037 530.679C774.403 530.312 774.403 529.712 774.037 529.345C773.67 528.979 773.37 529.279 773.37 530.012ZM924.37 553.012C924.37 559.012 924.77 563.012 925.37 563.012C925.97 563.012 926.37 559.012 926.37 553.012C926.37 547.012 925.97 543.012 925.37 543.012C924.77 543.012 924.37 547.012 924.37 553.012ZM765.82 549.688C765.521 550.691 764.135 553.839 762.741 556.684C760.532 561.193 760.267 562.796 760.681 569.184C760.942 573.214 761.549 578.312 762.03 580.512C762.846 584.246 763.136 584.512 766.387 584.512H769.87V566.526C769.87 550.179 769.71 548.509 768.117 548.202C767.087 548.004 766.139 548.617 765.82 549.688Z" fill="black"/>
<path d="M239.355 98.004V106.012H231.191V98.004H239.355ZM222.819 80.844C222.854 78.972 223.166 77.256 223.755 75.696C224.379 74.136 225.229 72.784 226.303 71.64C227.413 70.496 228.73 69.612 230.255 68.988C231.815 68.3293 233.549 68 235.455 68C237.917 68 239.962 68.3467 241.591 69.04C243.255 69.6987 244.59 70.5307 245.595 71.536C246.601 72.5413 247.311 73.6333 247.727 74.812C248.178 75.956 248.403 77.0307 248.403 78.036C248.403 79.7 248.178 81.0693 247.727 82.144C247.311 83.2187 246.774 84.1373 246.115 84.9C245.491 85.6627 244.781 86.3213 243.983 86.876C243.221 87.396 242.493 87.9333 241.799 88.488C241.106 89.008 240.482 89.6147 239.927 90.308C239.407 91.0013 239.078 91.868 238.939 92.908V94.884H231.919V92.544C232.023 91.0533 232.301 89.8053 232.751 88.8C233.237 87.7947 233.791 86.9453 234.415 86.252C235.039 85.524 235.698 84.9 236.391 84.38C237.085 83.86 237.726 83.34 238.315 82.82C238.905 82.3 239.373 81.728 239.719 81.104C240.101 80.48 240.274 79.7 240.239 78.764C240.239 77.1693 239.841 75.9907 239.043 75.228C238.281 74.4653 237.206 74.084 235.819 74.084C234.883 74.084 234.069 74.2747 233.375 74.656C232.717 75.0027 232.162 75.488 231.711 76.112C231.295 76.7013 230.983 77.412 230.775 78.244C230.567 79.0413 230.463 79.908 230.463 80.844H222.819Z" fill="black"/>
<path d="M186.2 68.8843H194.312L209.808 93.7923H209.912V68.8843H217.556V106.012H209.392L193.948 81.1563H193.844V106.012H186.2V68.8843Z" fill="black"/>
<path d="M152.28 87.604C152.28 89.164 152.453 90.6893 152.8 92.18C153.181 93.636 153.77 94.9533 154.568 96.132C155.365 97.3107 156.405 98.264 157.688 98.992C158.97 99.6853 160.53 100.032 162.368 100.032C164.205 100.032 165.765 99.6853 167.048 98.992C168.33 98.264 169.37 97.3107 170.168 96.132C170.965 94.9533 171.537 93.636 171.884 92.18C172.265 90.6893 172.456 89.164 172.456 87.604C172.456 85.9747 172.265 84.3973 171.884 82.872C171.537 81.3467 170.965 79.9947 170.168 78.816C169.37 77.6027 168.33 76.6493 167.048 75.956C165.765 75.228 164.205 74.864 162.368 74.864C160.53 74.864 158.97 75.228 157.688 75.956C156.405 76.6493 155.365 77.6027 154.568 78.816C153.77 79.9947 153.181 81.3467 152.8 82.872C152.453 84.3973 152.28 85.9747 152.28 87.604ZM144.116 87.604C144.116 84.8307 144.532 82.2653 145.364 79.908C146.196 77.516 147.392 75.436 148.952 73.668C150.512 71.9 152.418 70.5133 154.672 69.508C156.96 68.5027 159.525 68 162.368 68C165.245 68 167.81 68.5027 170.064 69.508C172.317 70.5133 174.224 71.9 175.784 73.668C177.344 75.436 178.54 77.516 179.372 79.908C180.204 82.2653 180.62 84.8307 180.62 87.604C180.62 90.308 180.204 92.8387 179.372 95.196C178.54 97.5187 177.344 99.5467 175.784 101.28C174.224 103.013 172.317 104.383 170.064 105.388C167.81 106.359 165.245 106.844 162.368 106.844C159.525 106.844 156.96 106.359 154.672 105.388C152.418 104.383 150.512 103.013 148.952 101.28C147.392 99.5467 146.196 97.5187 145.364 95.196C144.532 92.8387 144.116 90.308 144.116 87.604Z" fill="black"/>
<path d="M117.522 93.688C117.522 94.936 117.747 95.9933 118.198 96.86C118.649 97.7267 119.238 98.4373 119.966 98.992C120.729 99.512 121.613 99.9107 122.618 100.188C123.623 100.431 124.663 100.552 125.738 100.552C126.466 100.552 127.246 100.5 128.078 100.396C128.91 100.257 129.69 100.015 130.418 99.668C131.146 99.3213 131.753 98.8533 132.238 98.264C132.723 97.64 132.966 96.86 132.966 95.924C132.966 94.9187 132.637 94.104 131.978 93.48C131.354 92.856 130.522 92.336 129.482 91.92C128.442 91.504 127.263 91.14 125.946 90.828C124.629 90.516 123.294 90.1693 121.942 89.788C120.555 89.4413 119.203 89.0253 117.886 88.54C116.569 88.02 115.39 87.3613 114.35 86.564C113.31 85.7667 112.461 84.7787 111.802 83.6C111.178 82.3867 110.866 80.9307 110.866 79.232C110.866 77.3253 111.265 75.6787 112.062 74.292C112.894 72.8707 113.969 71.692 115.286 70.756C116.603 69.82 118.094 69.1267 119.758 68.676C121.422 68.2253 123.086 68 124.75 68C126.691 68 128.546 68.2253 130.314 68.676C132.117 69.092 133.711 69.7853 135.098 70.756C136.485 71.7267 137.577 72.9747 138.374 74.5C139.206 75.9907 139.622 77.8107 139.622 79.96H131.718C131.649 78.8507 131.406 77.932 130.99 77.204C130.609 76.476 130.089 75.904 129.43 75.488C128.771 75.072 128.009 74.7773 127.142 74.604C126.31 74.4307 125.391 74.344 124.386 74.344C123.727 74.344 123.069 74.4133 122.41 74.552C121.751 74.6907 121.145 74.9333 120.59 75.28C120.07 75.6267 119.637 76.06 119.29 76.58C118.943 77.1 118.77 77.7587 118.77 78.556C118.77 79.284 118.909 79.8733 119.186 80.324C119.463 80.7747 120.001 81.1907 120.798 81.572C121.63 81.9533 122.757 82.3347 124.178 82.716C125.634 83.0973 127.523 83.5827 129.846 84.172C130.539 84.3107 131.493 84.5707 132.706 84.952C133.954 85.2987 135.185 85.8707 136.398 86.668C137.611 87.4653 138.651 88.54 139.518 89.892C140.419 91.2093 140.87 92.908 140.87 94.988C140.87 96.6867 140.541 98.264 139.882 99.72C139.223 101.176 138.235 102.441 136.918 103.516C135.635 104.556 134.023 105.371 132.082 105.96C130.175 106.549 127.957 106.844 125.426 106.844C123.381 106.844 121.387 106.584 119.446 106.064C117.539 105.579 115.841 104.799 114.35 103.724C112.894 102.649 111.733 101.28 110.866 99.616C109.999 97.952 109.583 95.976 109.618 93.688H117.522Z" fill="black"/>
<path d="M778.329 33.8C776.873 35.672 775.261 36.9893 773.493 37.752C771.725 38.48 769.94 38.844 768.137 38.844C765.295 38.844 762.729 38.3587 760.441 37.388C758.188 36.3827 756.281 35.0133 754.721 33.28C753.161 31.5467 751.965 29.5187 751.133 27.196C750.301 24.8387 749.885 22.308 749.885 19.604C749.885 16.8307 750.301 14.2653 751.133 11.908C751.965 9.516 753.161 7.436 754.721 5.668C756.281 3.9 758.188 2.51333 760.441 1.508C762.729 0.502666 765.295 0 768.137 0C770.044 0 771.881 0.294666 773.649 0.883998C775.452 1.43867 777.064 2.27067 778.485 3.38C779.941 4.48933 781.137 5.85867 782.073 7.488C783.009 9.11733 783.581 10.9893 783.789 13.104H775.989C775.504 11.024 774.568 9.464 773.181 8.424C771.795 7.384 770.113 6.864 768.137 6.864C766.3 6.864 764.74 7.228 763.457 7.956C762.175 8.64933 761.135 9.60267 760.337 10.816C759.54 11.9947 758.951 13.3467 758.569 14.872C758.223 16.3973 758.049 17.9747 758.049 19.604C758.049 21.164 758.223 22.6893 758.569 24.18C758.951 25.636 759.54 26.9533 760.337 28.132C761.135 29.3107 762.175 30.264 763.457 30.992C764.74 31.6853 766.3 32.032 768.137 32.032C770.841 32.032 772.921 31.356 774.377 30.004C775.868 28.6173 776.735 26.624 776.977 24.024H768.761V17.94H784.361V38.012H779.161L778.329 33.8Z" fill="black"/>
<path d="M712.954 0.884277H721.066L736.562 25.7923H736.666V0.884277H744.31V38.0123H736.146L720.702 13.1563H720.598V38.0123H712.954V0.884277Z" fill="black"/>
<path d="M697.618 0.884277H705.782V38.0123H697.618V0.884277Z" fill="black"/>
<path d="M659.075 0.884277H667.187L682.683 25.7923H682.787V0.884277H690.431V38.0123H682.267L666.823 13.1563H666.719V38.0123H659.075V0.884277Z" fill="black"/>
<path d="M620.532 0.884277H628.644L644.14 25.7923H644.244V0.884277H651.888V38.0123H643.724L628.28 13.1563H628.176V38.0123H620.532V0.884277Z" fill="black"/>
<path d="M605.196 0.884277H613.36V38.0123H605.196V0.884277Z" fill="black"/>
<path d="M591.451 38.0123H583.339L577.047 12.7403H576.943L570.755 38.0123H562.487L552.659 0.884277H560.823L566.699 26.1563H566.803L573.251 0.884277H580.895L587.239 26.4683H587.343L593.427 0.884277H601.435L591.451 38.0123Z" fill="black"/>
<path d="M513.413 25.688C513.413 26.936 513.638 27.9933 514.089 28.86C514.54 29.7267 515.129 30.4373 515.857 30.992C516.62 31.512 517.504 31.9107 518.509 32.188C519.514 32.4307 520.554 32.552 521.629 32.552C522.357 32.552 523.137 32.5 523.969 32.396C524.801 32.2573 525.581 32.0147 526.309 31.668C527.037 31.3213 527.644 30.8533 528.129 30.264C528.614 29.64 528.857 28.86 528.857 27.924C528.857 26.9187 528.528 26.104 527.869 25.48C527.245 24.856 526.413 24.336 525.373 23.92C524.333 23.504 523.154 23.14 521.837 22.828C520.52 22.516 519.185 22.1693 517.833 21.788C516.446 21.4413 515.094 21.0253 513.777 20.54C512.46 20.02 511.281 19.3613 510.241 18.564C509.201 17.7667 508.352 16.7787 507.693 15.6C507.069 14.3867 506.757 12.9307 506.757 11.232C506.757 9.32533 507.156 7.67866 507.953 6.292C508.785 4.87067 509.86 3.692 511.177 2.756C512.494 1.82 513.985 1.12666 515.649 0.675998C517.313 0.225333 518.977 0 520.641 0C522.582 0 524.437 0.225333 526.205 0.675998C528.008 1.092 529.602 1.78533 530.989 2.756C532.376 3.72666 533.468 4.97466 534.265 6.5C535.097 7.99067 535.513 9.81067 535.513 11.96H527.609C527.54 10.8507 527.297 9.932 526.881 9.204C526.5 8.476 525.98 7.904 525.321 7.488C524.662 7.072 523.9 6.77733 523.033 6.604C522.201 6.43067 521.282 6.344 520.277 6.344C519.618 6.344 518.96 6.41333 518.301 6.552C517.642 6.69067 517.036 6.93333 516.481 7.28C515.961 7.62667 515.528 8.06 515.181 8.58C514.834 9.1 514.661 9.75867 514.661 10.556C514.661 11.284 514.8 11.8733 515.077 12.324C515.354 12.7747 515.892 13.1907 516.689 13.572C517.521 13.9533 518.648 14.3347 520.069 14.716C521.525 15.0973 523.414 15.5827 525.737 16.172C526.43 16.3107 527.384 16.5707 528.597 16.952C529.845 17.2987 531.076 17.8707 532.289 18.668C533.502 19.4653 534.542 20.54 535.409 21.892C536.31 23.2093 536.761 24.908 536.761 26.988C536.761 28.6867 536.432 30.264 535.773 31.72C535.114 33.176 534.126 34.4413 532.809 35.516C531.526 36.556 529.914 37.3707 527.973 37.96C526.066 38.5493 523.848 38.844 521.317 38.844C519.272 38.844 517.278 38.584 515.337 38.064C513.43 37.5787 511.732 36.7987 510.241 35.724C508.785 34.6493 507.624 33.28 506.757 31.616C505.89 29.952 505.474 27.976 505.509 25.688H513.413Z" fill="black"/>
<path d="M478.485 17.6803H487.429C489.301 17.6803 490.705 17.2643 491.641 16.4323C492.577 15.6003 493.045 14.2483 493.045 12.3763C493.045 10.5736 492.577 9.27361 491.641 8.47628C490.705 7.64428 489.301 7.22828 487.429 7.22828H478.485V17.6803ZM470.321 0.884277H490.341C492.005 0.884277 493.496 1.16161 494.813 1.71628C496.165 2.23628 497.309 2.96428 498.245 3.90028C499.216 4.83628 499.944 5.92828 500.429 7.17628C500.949 8.38961 501.209 9.70695 501.209 11.1283C501.209 13.3123 500.741 15.2016 499.805 16.7963C498.904 18.3909 497.413 19.6043 495.333 20.4363V20.5403C496.339 20.8176 497.171 21.2509 497.829 21.8403C498.488 22.3949 499.025 23.0709 499.441 23.8683C499.857 24.6309 500.152 25.4803 500.325 26.4163C500.533 27.3523 500.672 28.2883 500.741 29.2243C500.776 29.8136 500.811 30.5069 500.845 31.3043C500.88 32.1016 500.932 32.9163 501.001 33.7483C501.105 34.5803 501.244 35.3776 501.417 36.1403C501.625 36.8683 501.92 37.4923 502.301 38.0123H494.137C493.687 36.8336 493.409 35.4296 493.305 33.8003C493.201 32.1709 493.045 30.6109 492.837 29.1203C492.56 27.1789 491.971 25.7576 491.069 24.8563C490.168 23.9549 488.695 23.5043 486.649 23.5043H478.485V38.0123H470.321V0.884277Z" fill="black"/>
<path d="M436.603 0.884277H464.371V7.74828H444.767V15.7043H462.759V22.0483H444.767V31.1483H464.787V38.0123H436.603V0.884277Z" fill="black"/>
<path d="M408.397 25.688C408.397 26.936 408.623 27.9933 409.073 28.86C409.524 29.7267 410.113 30.4373 410.841 30.992C411.604 31.512 412.488 31.9107 413.493 32.188C414.499 32.4307 415.539 32.552 416.613 32.552C417.341 32.552 418.121 32.5 418.953 32.396C419.785 32.2573 420.565 32.0147 421.293 31.668C422.021 31.3213 422.628 30.8533 423.113 30.264C423.599 29.64 423.841 28.86 423.841 27.924C423.841 26.9187 423.512 26.104 422.853 25.48C422.229 24.856 421.397 24.336 420.357 23.92C419.317 23.504 418.139 23.14 416.821 22.828C415.504 22.516 414.169 22.1693 412.817 21.788C411.431 21.4413 410.079 21.0253 408.761 20.54C407.444 20.02 406.265 19.3613 405.225 18.564C404.185 17.7667 403.336 16.7787 402.677 15.6C402.053 14.3867 401.741 12.9307 401.741 11.232C401.741 9.32533 402.14 7.67866 402.937 6.292C403.769 4.87067 404.844 3.692 406.161 2.756C407.479 1.82 408.969 1.12666 410.633 0.675998C412.297 0.225333 413.961 0 415.625 0C417.567 0 419.421 0.225333 421.189 0.675998C422.992 1.092 424.587 1.78533 425.973 2.756C427.36 3.72666 428.452 4.97466 429.249 6.5C430.081 7.99067 430.497 9.81067 430.497 11.96H422.593C422.524 10.8507 422.281 9.932 421.865 9.204C421.484 8.476 420.964 7.904 420.305 7.488C419.647 7.072 418.884 6.77733 418.017 6.604C417.185 6.43067 416.267 6.344 415.261 6.344C414.603 6.344 413.944 6.41333 413.285 6.552C412.627 6.69067 412.02 6.93333 411.465 7.28C410.945 7.62667 410.512 8.06 410.165 8.58C409.819 9.1 409.645 9.75867 409.645 10.556C409.645 11.284 409.784 11.8733 410.061 12.324C410.339 12.7747 410.876 13.1907 411.673 13.572C412.505 13.9533 413.632 14.3347 415.053 14.716C416.509 15.0973 418.399 15.5827 420.721 16.172C421.415 16.3107 422.368 16.5707 423.581 16.952C424.829 17.2987 426.06 17.8707 427.273 18.668C428.487 19.4653 429.527 20.54 430.393 21.892C431.295 23.2093 431.745 24.908 431.745 26.988C431.745 28.6867 431.416 30.264 430.757 31.72C430.099 33.176 429.111 34.4413 427.793 35.516C426.511 36.556 424.899 37.3707 422.957 37.96C421.051 38.5493 418.832 38.844 416.301 38.844C414.256 38.844 412.263 38.584 410.321 38.064C408.415 37.5787 406.716 36.7987 405.225 35.724C403.769 34.6493 402.608 33.28 401.741 31.616C400.875 29.952 400.459 27.976 400.493 25.688H408.397Z" fill="black"/>
<path d="M395.802 23.9723C395.802 28.9989 394.398 32.7429 391.59 35.2043C388.782 37.6309 384.899 38.8443 379.942 38.8443C374.915 38.8443 371.015 37.6309 368.242 35.2043C365.503 32.7776 364.134 29.0336 364.134 23.9723V0.884277H372.298V23.9723C372.298 24.9776 372.385 25.9656 372.558 26.9363C372.731 27.9069 373.095 28.7736 373.65 29.5363C374.205 30.2643 374.967 30.8709 375.938 31.3563C376.943 31.8069 378.278 32.0323 379.942 32.0323C382.854 32.0323 384.865 31.3909 385.974 30.1083C387.083 28.7909 387.638 26.7456 387.638 23.9723V0.884277H395.802V23.9723Z" fill="black"/>
<path d="M320.454 17.6803H329.398C331.27 17.6803 332.674 17.2643 333.61 16.4323C334.546 15.6003 335.014 14.2483 335.014 12.3763C335.014 10.5736 334.546 9.27361 333.61 8.47628C332.674 7.64428 331.27 7.22828 329.398 7.22828H320.454V17.6803ZM312.29 0.884277H332.31C333.974 0.884277 335.465 1.16161 336.782 1.71628C338.134 2.23628 339.278 2.96428 340.214 3.90028C341.185 4.83628 341.913 5.92828 342.398 7.17628C342.918 8.38961 343.178 9.70695 343.178 11.1283C343.178 13.3123 342.71 15.2016 341.774 16.7963C340.873 18.3909 339.382 19.6043 337.302 20.4363V20.5403C338.308 20.8176 339.14 21.2509 339.798 21.8403C340.457 22.3949 340.994 23.0709 341.41 23.8683C341.826 24.6309 342.121 25.4803 342.294 26.4163C342.502 27.3523 342.641 28.2883 342.71 29.2243C342.745 29.8136 342.779 30.5069 342.814 31.3043C342.849 32.1016 342.901 32.9163 342.97 33.7483C343.074 34.5803 343.213 35.3776 343.386 36.1403C343.594 36.8683 343.889 37.4923 344.27 38.0123H336.106C335.656 36.8336 335.378 35.4296 335.274 33.8003C335.17 32.1709 335.014 30.6109 334.806 29.1203C334.529 27.1789 333.939 25.7576 333.038 24.8563C332.137 23.9549 330.663 23.5043 328.618 23.5043H320.454V38.0123H312.29V0.884277Z" fill="black"/>
<path d="M305.259 23.9723C305.259 28.9989 303.855 32.7429 301.047 35.2043C298.239 37.6309 294.357 38.8443 289.399 38.8443C284.373 38.8443 280.473 37.6309 277.699 35.2043C274.961 32.7776 273.591 29.0336 273.591 23.9723V0.884277H281.755V23.9723C281.755 24.9776 281.842 25.9656 282.015 26.9363C282.189 27.9069 282.553 28.7736 283.107 29.5363C283.662 30.2643 284.425 30.8709 285.395 31.3563C286.401 31.8069 287.735 32.0323 289.399 32.0323C292.311 32.0323 294.322 31.3909 295.431 30.1083C296.541 28.7909 297.095 26.7456 297.095 23.9723V0.884277H305.259V23.9723Z" fill="black"/>
<path d="M239.826 19.604C239.826 21.164 240 22.6893 240.346 24.18C240.728 25.636 241.317 26.9533 242.114 28.132C242.912 29.3107 243.952 30.264 245.234 30.992C246.517 31.6853 248.077 32.032 249.914 32.032C251.752 32.032 253.312 31.6853 254.594 30.992C255.877 30.264 256.917 29.3107 257.714 28.132C258.512 26.9533 259.084 25.636 259.43 24.18C259.812 22.6893 260.002 21.164 260.002 19.604C260.002 17.9747 259.812 16.3973 259.43 14.872C259.084 13.3467 258.512 11.9947 257.714 10.816C256.917 9.60267 255.877 8.64933 254.594 7.956C253.312 7.228 251.752 6.864 249.914 6.864C248.077 6.864 246.517 7.228 245.234 7.956C243.952 8.64933 242.912 9.60267 242.114 10.816C241.317 11.9947 240.728 13.3467 240.346 14.872C240 16.3973 239.826 17.9747 239.826 19.604ZM231.662 19.604C231.662 16.8307 232.078 14.2653 232.91 11.908C233.742 9.516 234.938 7.436 236.498 5.668C238.058 3.9 239.965 2.51333 242.218 1.508C244.506 0.502666 247.072 0 249.914 0C252.792 0 255.357 0.502666 257.61 1.508C259.864 2.51333 261.77 3.9 263.33 5.668C264.89 7.436 266.086 9.516 266.918 11.908C267.75 14.2653 268.166 16.8307 268.166 19.604C268.166 22.308 267.75 24.8387 266.918 27.196C266.086 29.5187 264.89 31.5467 263.33 33.28C261.77 35.0133 259.864 36.3827 257.61 37.388C255.357 38.3587 252.792 38.844 249.914 38.844C247.072 38.844 244.506 38.3587 242.218 37.388C239.965 36.3827 238.058 35.0133 236.498 33.28C234.938 31.5467 233.742 29.5187 232.91 27.196C232.078 24.8387 231.662 22.308 231.662 19.604Z" fill="black"/>
<path d="M185.083 0.884277H212.851V7.74828H193.247V15.7043H211.239V22.0483H193.247V31.1483H213.267V38.0123H185.083V0.884277Z" fill="black"/>
<path d="M155.72 17.6803H164.664C166.536 17.6803 167.94 17.2643 168.876 16.4323C169.812 15.6003 170.28 14.2483 170.28 12.3763C170.28 10.5736 169.812 9.27361 168.876 8.47628C167.94 7.64428 166.536 7.22828 164.664 7.22828H155.72V17.6803ZM147.556 0.884277H167.576C169.24 0.884277 170.73 1.16161 172.048 1.71628C173.4 2.23628 174.544 2.96428 175.48 3.90028C176.45 4.83628 177.178 5.92828 177.664 7.17628C178.184 8.38961 178.444 9.70695 178.444 11.1283C178.444 13.3123 177.976 15.2016 177.04 16.7963C176.138 18.3909 174.648 19.6043 172.568 20.4363V20.5403C173.573 20.8176 174.405 21.2509 175.064 21.8403C175.722 22.3949 176.26 23.0709 176.676 23.8683C177.092 24.6309 177.386 25.4803 177.56 26.4163C177.768 27.3523 177.906 28.2883 177.976 29.2243C178.01 29.8136 178.045 30.5069 178.08 31.3043C178.114 32.1016 178.166 32.9163 178.236 33.7483C178.34 34.5803 178.478 35.3776 178.652 36.1403C178.86 36.8683 179.154 37.4923 179.536 38.0123H171.372C170.921 36.8336 170.644 35.4296 170.54 33.8003C170.436 32.1709 170.28 30.6109 170.072 29.1203C169.794 27.1789 169.205 25.7576 168.304 24.8563C167.402 23.9549 165.929 23.5043 163.884 23.5043H155.72V38.0123H147.556V0.884277Z" fill="black"/>
<path d="M121.318 23.6603H130.938L126.258 10.0363H126.154L121.318 23.6603ZM122.098 0.884277H130.47L144.354 38.0123H135.878L133.07 29.7443H119.186L116.274 38.0123H108.058L122.098 0.884277Z" fill="black"/>
<path d="M877.554 269.688C877.554 270.936 877.78 271.993 878.23 272.86C878.681 273.727 879.27 274.437 879.998 274.992C880.761 275.512 881.645 275.911 882.65 276.188C883.656 276.431 884.696 276.552 885.77 276.552C886.498 276.552 887.278 276.5 888.11 276.396C888.942 276.257 889.722 276.015 890.45 275.668C891.178 275.321 891.785 274.853 892.27 274.264C892.756 273.64 892.998 272.86 892.998 271.924C892.998 270.919 892.669 270.104 892.01 269.48C891.386 268.856 890.554 268.336 889.514 267.92C888.474 267.504 887.296 267.14 885.978 266.828C884.661 266.516 883.326 266.169 881.974 265.788C880.588 265.441 879.236 265.025 877.918 264.54C876.601 264.02 875.422 263.361 874.382 262.564C873.342 261.767 872.493 260.779 871.834 259.6C871.21 258.387 870.898 256.931 870.898 255.232C870.898 253.325 871.297 251.679 872.094 250.292C872.926 248.871 874.001 247.692 875.318 246.756C876.636 245.82 878.126 245.127 879.79 244.676C881.454 244.225 883.118 244 884.782 244C886.724 244 888.578 244.225 890.346 244.676C892.149 245.092 893.744 245.785 895.13 246.756C896.517 247.727 897.609 248.975 898.406 250.5C899.238 251.991 899.654 253.811 899.654 255.96H891.75C891.681 254.851 891.438 253.932 891.022 253.204C890.641 252.476 890.121 251.904 889.462 251.488C888.804 251.072 888.041 250.777 887.174 250.604C886.342 250.431 885.424 250.344 884.418 250.344C883.76 250.344 883.101 250.413 882.442 250.552C881.784 250.691 881.177 250.933 880.622 251.28C880.102 251.627 879.669 252.06 879.322 252.58C878.976 253.1 878.802 253.759 878.802 254.556C878.802 255.284 878.941 255.873 879.218 256.324C879.496 256.775 880.033 257.191 880.83 257.572C881.662 257.953 882.789 258.335 884.21 258.716C885.666 259.097 887.556 259.583 889.878 260.172C890.572 260.311 891.525 260.571 892.738 260.952C893.986 261.299 895.217 261.871 896.43 262.668C897.644 263.465 898.684 264.54 899.55 265.892C900.452 267.209 900.902 268.908 900.902 270.988C900.902 272.687 900.573 274.264 899.914 275.72C899.256 277.176 898.268 278.441 896.95 279.516C895.668 280.556 894.056 281.371 892.114 281.96C890.208 282.549 887.989 282.844 885.458 282.844C883.413 282.844 881.42 282.584 879.478 282.064C877.572 281.579 875.873 280.799 874.382 279.724C872.926 278.649 871.765 277.28 870.898 275.616C870.032 273.952 869.616 271.976 869.65 269.688H877.554Z" fill="black"/>
<path d="M838.271 244.884H866.039V251.748H846.435V259.704H864.427V266.048H846.435V275.148H866.455V282.012H838.271V244.884Z" fill="black"/>
<path d="M813.208 267.556L799.584 244.884H808.736L817.42 259.548L826.052 244.884H835.152L821.372 267.764V282.012H813.208V267.556Z" fill="black"/>
</svg>
